%TF.GenerationSoftware,KiCad,Pcbnew,8.0.1*%
%TF.CreationDate,2024-05-21T10:24:44-06:00*%
%TF.ProjectId,SparkFun_Qwiic_WAV_Trigger_Pro_panelized,53706172-6b46-4756-9e5f-51776969635f,rev?*%
%TF.SameCoordinates,Original*%
%TF.FileFunction,Soldermask,Top*%
%TF.FilePolarity,Negative*%
%FSLAX46Y46*%
G04 Gerber Fmt 4.6, Leading zero omitted, Abs format (unit mm)*
G04 Created by KiCad (PCBNEW 8.0.1) date 2024-05-21 10:24:44*
%MOMM*%
%LPD*%
G01*
G04 APERTURE LIST*
G04 Aperture macros list*
%AMRoundRect*
0 Rectangle with rounded corners*
0 $1 Rounding radius*
0 $2 $3 $4 $5 $6 $7 $8 $9 X,Y pos of 4 corners*
0 Add a 4 corners polygon primitive as box body*
4,1,4,$2,$3,$4,$5,$6,$7,$8,$9,$2,$3,0*
0 Add four circle primitives for the rounded corners*
1,1,$1+$1,$2,$3*
1,1,$1+$1,$4,$5*
1,1,$1+$1,$6,$7*
1,1,$1+$1,$8,$9*
0 Add four rect primitives between the rounded corners*
20,1,$1+$1,$2,$3,$4,$5,0*
20,1,$1+$1,$4,$5,$6,$7,0*
20,1,$1+$1,$6,$7,$8,$9,0*
20,1,$1+$1,$8,$9,$2,$3,0*%
G04 Aperture macros list end*
%ADD10C,3.000000*%
%ADD11C,1.000000*%
%ADD12RoundRect,0.135000X0.135000X0.185000X-0.135000X0.185000X-0.135000X-0.185000X0.135000X-0.185000X0*%
%ADD13RoundRect,0.140000X0.170000X-0.140000X0.170000X0.140000X-0.170000X0.140000X-0.170000X-0.140000X0*%
%ADD14RoundRect,0.101600X0.315000X0.415000X-0.315000X0.415000X-0.315000X-0.415000X0.315000X-0.415000X0*%
%ADD15RoundRect,0.140000X-0.140000X-0.170000X0.140000X-0.170000X0.140000X0.170000X-0.140000X0.170000X0*%
%ADD16RoundRect,0.135000X-0.185000X0.135000X-0.185000X-0.135000X0.185000X-0.135000X0.185000X0.135000X0*%
%ADD17RoundRect,0.101600X0.500000X-0.450000X0.500000X0.450000X-0.500000X0.450000X-0.500000X-0.450000X0*%
%ADD18RoundRect,0.225000X-0.250000X0.225000X-0.250000X-0.225000X0.250000X-0.225000X0.250000X0.225000X0*%
%ADD19RoundRect,0.135000X0.185000X-0.135000X0.185000X0.135000X-0.185000X0.135000X-0.185000X-0.135000X0*%
%ADD20C,0.650000*%
%ADD21RoundRect,0.070000X0.150000X0.500000X-0.150000X0.500000X-0.150000X-0.500000X0.150000X-0.500000X0*%
%ADD22RoundRect,0.070000X-0.150000X-0.500000X0.150000X-0.500000X0.150000X0.500000X-0.150000X0.500000X0*%
%ADD23RoundRect,0.070000X0.300000X0.500000X-0.300000X0.500000X-0.300000X-0.500000X0.300000X-0.500000X0*%
%ADD24RoundRect,0.070000X-0.300000X-0.500000X0.300000X-0.500000X0.300000X0.500000X-0.300000X0.500000X0*%
%ADD25O,1.000000X1.600000*%
%ADD26O,1.000000X2.100000*%
%ADD27C,3.302000*%
%ADD28RoundRect,0.250000X-0.250000X-0.475000X0.250000X-0.475000X0.250000X0.475000X-0.250000X0.475000X0*%
%ADD29RoundRect,0.101600X-0.415000X0.315000X-0.415000X-0.315000X0.415000X-0.315000X0.415000X0.315000X0*%
%ADD30RoundRect,0.101600X-0.350000X0.375000X-0.350000X-0.375000X0.350000X-0.375000X0.350000X0.375000X0*%
%ADD31RoundRect,0.101600X0.350000X-0.375000X0.350000X0.375000X-0.350000X0.375000X-0.350000X-0.375000X0*%
%ADD32RoundRect,0.101600X-0.675000X0.300000X-0.675000X-0.300000X0.675000X-0.300000X0.675000X0.300000X0*%
%ADD33RoundRect,0.101600X-1.000000X0.600000X-1.000000X-0.600000X1.000000X-0.600000X1.000000X0.600000X0*%
%ADD34RoundRect,0.101600X0.415000X-0.315000X0.415000X0.315000X-0.415000X0.315000X-0.415000X-0.315000X0*%
%ADD35RoundRect,0.101600X0.275000X0.600000X-0.275000X0.600000X-0.275000X-0.600000X0.275000X-0.600000X0*%
%ADD36RoundRect,0.101600X0.600000X-0.275000X0.600000X0.275000X-0.600000X0.275000X-0.600000X-0.275000X0*%
%ADD37RoundRect,0.140000X0.140000X0.170000X-0.140000X0.170000X-0.140000X-0.170000X0.140000X-0.170000X0*%
%ADD38RoundRect,0.140000X-0.170000X0.140000X-0.170000X-0.140000X0.170000X-0.140000X0.170000X0.140000X0*%
%ADD39RoundRect,0.101600X-0.275000X-0.600000X0.275000X-0.600000X0.275000X0.600000X-0.275000X0.600000X0*%
%ADD40RoundRect,0.100000X-0.100000X0.637500X-0.100000X-0.637500X0.100000X-0.637500X0.100000X0.637500X0*%
%ADD41RoundRect,0.075000X0.725000X0.075000X-0.725000X0.075000X-0.725000X-0.075000X0.725000X-0.075000X0*%
%ADD42RoundRect,0.075000X0.075000X0.725000X-0.075000X0.725000X-0.075000X-0.725000X0.075000X-0.725000X0*%
%ADD43RoundRect,0.135000X-0.135000X-0.185000X0.135000X-0.185000X0.135000X0.185000X-0.135000X0.185000X0*%
%ADD44C,2.082800*%
%ADD45RoundRect,0.101600X-0.600000X0.275000X-0.600000X-0.275000X0.600000X-0.275000X0.600000X0.275000X0*%
%ADD46RoundRect,0.218750X0.256250X-0.218750X0.256250X0.218750X-0.256250X0.218750X-0.256250X-0.218750X0*%
%ADD47R,1.000000X1.000000*%
%ADD48O,1.000000X1.000000*%
G04 APERTURE END LIST*
D10*
%TO.C,*%
X138050000Y117135000D03*
%TD*%
%TO.C,*%
X-3700000Y117135000D03*
%TD*%
%TO.C,*%
X-3700000Y705000D03*
%TD*%
D11*
%TO.C,J5*%
X94345000Y95110000D03*
X94345000Y103110000D03*
%TD*%
%TO.C,J5*%
X94345000Y55240000D03*
X94345000Y63240000D03*
%TD*%
%TO.C,J5*%
X94345000Y15370000D03*
X94345000Y23370000D03*
%TD*%
%TO.C,J5*%
X49395000Y95110000D03*
X49395000Y103110000D03*
%TD*%
%TO.C,J5*%
X49395000Y55240000D03*
X49395000Y63240000D03*
%TD*%
%TO.C,J5*%
X49395000Y15370000D03*
X49395000Y23370000D03*
%TD*%
%TO.C,J5*%
X4445000Y95110000D03*
X4445000Y103110000D03*
%TD*%
%TO.C,J5*%
X4445000Y55240000D03*
X4445000Y63240000D03*
%TD*%
D12*
%TO.C,R11*%
X97395000Y105140000D03*
X96375000Y105140000D03*
%TD*%
%TO.C,R11*%
X97395000Y65270000D03*
X96375000Y65270000D03*
%TD*%
%TO.C,R11*%
X97395000Y25400000D03*
X96375000Y25400000D03*
%TD*%
%TO.C,R11*%
X52445000Y105140000D03*
X51425000Y105140000D03*
%TD*%
%TO.C,R11*%
X52445000Y65270000D03*
X51425000Y65270000D03*
%TD*%
%TO.C,R11*%
X52445000Y25400000D03*
X51425000Y25400000D03*
%TD*%
%TO.C,R11*%
X7495000Y105140000D03*
X6475000Y105140000D03*
%TD*%
%TO.C,R11*%
X7495000Y65270000D03*
X6475000Y65270000D03*
%TD*%
D13*
%TO.C,C23*%
X129270000Y104660000D03*
X129270000Y105620000D03*
%TD*%
%TO.C,C23*%
X129270000Y64790000D03*
X129270000Y65750000D03*
%TD*%
%TO.C,C23*%
X129270000Y24920000D03*
X129270000Y25880000D03*
%TD*%
%TO.C,C23*%
X84320000Y104660000D03*
X84320000Y105620000D03*
%TD*%
%TO.C,C23*%
X84320000Y64790000D03*
X84320000Y65750000D03*
%TD*%
%TO.C,C23*%
X84320000Y24920000D03*
X84320000Y25880000D03*
%TD*%
%TO.C,C23*%
X39370000Y104660000D03*
X39370000Y105620000D03*
%TD*%
%TO.C,C23*%
X39370000Y64790000D03*
X39370000Y65750000D03*
%TD*%
D14*
%TO.C,D6*%
X98275000Y89900000D03*
X100575000Y89900000D03*
%TD*%
%TO.C,D6*%
X98275000Y50030000D03*
X100575000Y50030000D03*
%TD*%
%TO.C,D6*%
X98275000Y10160000D03*
X100575000Y10160000D03*
%TD*%
%TO.C,D6*%
X53325000Y89900000D03*
X55625000Y89900000D03*
%TD*%
%TO.C,D6*%
X53325000Y50030000D03*
X55625000Y50030000D03*
%TD*%
%TO.C,D6*%
X53325000Y10160000D03*
X55625000Y10160000D03*
%TD*%
%TO.C,D6*%
X8375000Y89900000D03*
X10675000Y89900000D03*
%TD*%
%TO.C,D6*%
X8375000Y50030000D03*
X10675000Y50030000D03*
%TD*%
D15*
%TO.C,C14*%
X124980000Y109585000D03*
X125940000Y109585000D03*
%TD*%
%TO.C,C14*%
X124980000Y69715000D03*
X125940000Y69715000D03*
%TD*%
%TO.C,C14*%
X124980000Y29845000D03*
X125940000Y29845000D03*
%TD*%
%TO.C,C14*%
X80030000Y109585000D03*
X80990000Y109585000D03*
%TD*%
%TO.C,C14*%
X80030000Y69715000D03*
X80990000Y69715000D03*
%TD*%
%TO.C,C14*%
X80030000Y29845000D03*
X80990000Y29845000D03*
%TD*%
%TO.C,C14*%
X35080000Y109585000D03*
X36040000Y109585000D03*
%TD*%
%TO.C,C14*%
X35080000Y69715000D03*
X36040000Y69715000D03*
%TD*%
D13*
%TO.C,C6*%
X103870000Y109105000D03*
X103870000Y110065000D03*
%TD*%
%TO.C,C6*%
X103870000Y69235000D03*
X103870000Y70195000D03*
%TD*%
%TO.C,C6*%
X103870000Y29365000D03*
X103870000Y30325000D03*
%TD*%
%TO.C,C6*%
X58920000Y109105000D03*
X58920000Y110065000D03*
%TD*%
%TO.C,C6*%
X58920000Y69235000D03*
X58920000Y70195000D03*
%TD*%
%TO.C,C6*%
X58920000Y29365000D03*
X58920000Y30325000D03*
%TD*%
%TO.C,C6*%
X13970000Y109105000D03*
X13970000Y110065000D03*
%TD*%
%TO.C,C6*%
X13970000Y69235000D03*
X13970000Y70195000D03*
%TD*%
D16*
%TO.C,R19*%
X100695000Y112000000D03*
X100695000Y110980000D03*
%TD*%
%TO.C,R19*%
X100695000Y72130000D03*
X100695000Y71110000D03*
%TD*%
%TO.C,R19*%
X100695000Y32260000D03*
X100695000Y31240000D03*
%TD*%
%TO.C,R19*%
X55745000Y112000000D03*
X55745000Y110980000D03*
%TD*%
%TO.C,R19*%
X55745000Y72130000D03*
X55745000Y71110000D03*
%TD*%
%TO.C,R19*%
X55745000Y32260000D03*
X55745000Y31240000D03*
%TD*%
%TO.C,R19*%
X10795000Y112000000D03*
X10795000Y110980000D03*
%TD*%
%TO.C,R19*%
X10795000Y72130000D03*
X10795000Y71110000D03*
%TD*%
D17*
%TO.C,SW1*%
X124660000Y111980000D03*
X124660000Y116080000D03*
X126260000Y111980000D03*
X126260000Y116080000D03*
%TD*%
%TO.C,SW1*%
X124660000Y72110000D03*
X124660000Y76210000D03*
X126260000Y72110000D03*
X126260000Y76210000D03*
%TD*%
%TO.C,SW1*%
X124660000Y32240000D03*
X124660000Y36340000D03*
X126260000Y32240000D03*
X126260000Y36340000D03*
%TD*%
%TO.C,SW1*%
X79710000Y111980000D03*
X79710000Y116080000D03*
X81310000Y111980000D03*
X81310000Y116080000D03*
%TD*%
%TO.C,SW1*%
X79710000Y72110000D03*
X79710000Y76210000D03*
X81310000Y72110000D03*
X81310000Y76210000D03*
%TD*%
%TO.C,SW1*%
X79710000Y32240000D03*
X79710000Y36340000D03*
X81310000Y32240000D03*
X81310000Y36340000D03*
%TD*%
%TO.C,SW1*%
X34760000Y111980000D03*
X34760000Y116080000D03*
X36360000Y111980000D03*
X36360000Y116080000D03*
%TD*%
%TO.C,SW1*%
X34760000Y72110000D03*
X34760000Y76210000D03*
X36360000Y72110000D03*
X36360000Y76210000D03*
%TD*%
D18*
%TO.C,L2*%
X96885000Y96390000D03*
X96885000Y94840000D03*
%TD*%
%TO.C,L2*%
X96885000Y56520000D03*
X96885000Y54970000D03*
%TD*%
%TO.C,L2*%
X96885000Y16650000D03*
X96885000Y15100000D03*
%TD*%
%TO.C,L2*%
X51935000Y96390000D03*
X51935000Y94840000D03*
%TD*%
%TO.C,L2*%
X51935000Y56520000D03*
X51935000Y54970000D03*
%TD*%
%TO.C,L2*%
X51935000Y16650000D03*
X51935000Y15100000D03*
%TD*%
%TO.C,L2*%
X6985000Y96390000D03*
X6985000Y94840000D03*
%TD*%
%TO.C,L2*%
X6985000Y56520000D03*
X6985000Y54970000D03*
%TD*%
D19*
%TO.C,R18*%
X113395000Y108440000D03*
X113395000Y109460000D03*
%TD*%
%TO.C,R18*%
X113395000Y68570000D03*
X113395000Y69590000D03*
%TD*%
%TO.C,R18*%
X113395000Y28700000D03*
X113395000Y29720000D03*
%TD*%
%TO.C,R18*%
X68445000Y108440000D03*
X68445000Y109460000D03*
%TD*%
%TO.C,R18*%
X68445000Y68570000D03*
X68445000Y69590000D03*
%TD*%
%TO.C,R18*%
X68445000Y28700000D03*
X68445000Y29720000D03*
%TD*%
%TO.C,R18*%
X23495000Y108440000D03*
X23495000Y109460000D03*
%TD*%
%TO.C,R18*%
X23495000Y68570000D03*
X23495000Y69590000D03*
%TD*%
D20*
%TO.C,J2*%
X105425000Y85280000D03*
X111205000Y85280000D03*
D21*
X107065000Y86385000D03*
X108065000Y86385000D03*
D22*
X108565000Y86385000D03*
X109565000Y86385000D03*
X110065000Y86385000D03*
X109065000Y86385000D03*
D21*
X107565000Y86385000D03*
X106565000Y86385000D03*
D23*
X105090000Y86385000D03*
D24*
X111540000Y86385000D03*
D25*
X103997000Y81630000D03*
D26*
X103997000Y85810000D03*
X112633000Y85810000D03*
D25*
X112633000Y81630000D03*
D23*
X105865000Y86385000D03*
D24*
X110765000Y86385000D03*
%TD*%
D20*
%TO.C,J2*%
X105425000Y45410000D03*
X111205000Y45410000D03*
D21*
X107065000Y46515000D03*
X108065000Y46515000D03*
D22*
X108565000Y46515000D03*
X109565000Y46515000D03*
X110065000Y46515000D03*
X109065000Y46515000D03*
D21*
X107565000Y46515000D03*
X106565000Y46515000D03*
D23*
X105090000Y46515000D03*
D24*
X111540000Y46515000D03*
D25*
X103997000Y41760000D03*
D26*
X103997000Y45940000D03*
X112633000Y45940000D03*
D25*
X112633000Y41760000D03*
D23*
X105865000Y46515000D03*
D24*
X110765000Y46515000D03*
%TD*%
D20*
%TO.C,J2*%
X105425000Y5540000D03*
X111205000Y5540000D03*
D21*
X107065000Y6645000D03*
X108065000Y6645000D03*
D22*
X108565000Y6645000D03*
X109565000Y6645000D03*
X110065000Y6645000D03*
X109065000Y6645000D03*
D21*
X107565000Y6645000D03*
X106565000Y6645000D03*
D23*
X105090000Y6645000D03*
D24*
X111540000Y6645000D03*
D25*
X103997000Y1890000D03*
D26*
X103997000Y6070000D03*
X112633000Y6070000D03*
D25*
X112633000Y1890000D03*
D23*
X105865000Y6645000D03*
D24*
X110765000Y6645000D03*
%TD*%
D20*
%TO.C,J2*%
X60475000Y85280000D03*
X66255000Y85280000D03*
D21*
X62115000Y86385000D03*
X63115000Y86385000D03*
D22*
X63615000Y86385000D03*
X64615000Y86385000D03*
X65115000Y86385000D03*
X64115000Y86385000D03*
D21*
X62615000Y86385000D03*
X61615000Y86385000D03*
D23*
X60140000Y86385000D03*
D24*
X66590000Y86385000D03*
D25*
X59047000Y81630000D03*
D26*
X59047000Y85810000D03*
X67683000Y85810000D03*
D25*
X67683000Y81630000D03*
D23*
X60915000Y86385000D03*
D24*
X65815000Y86385000D03*
%TD*%
D20*
%TO.C,J2*%
X60475000Y45410000D03*
X66255000Y45410000D03*
D21*
X62115000Y46515000D03*
X63115000Y46515000D03*
D22*
X63615000Y46515000D03*
X64615000Y46515000D03*
X65115000Y46515000D03*
X64115000Y46515000D03*
D21*
X62615000Y46515000D03*
X61615000Y46515000D03*
D23*
X60140000Y46515000D03*
D24*
X66590000Y46515000D03*
D25*
X59047000Y41760000D03*
D26*
X59047000Y45940000D03*
X67683000Y45940000D03*
D25*
X67683000Y41760000D03*
D23*
X60915000Y46515000D03*
D24*
X65815000Y46515000D03*
%TD*%
D20*
%TO.C,J2*%
X60475000Y5540000D03*
X66255000Y5540000D03*
D21*
X62115000Y6645000D03*
X63115000Y6645000D03*
D22*
X63615000Y6645000D03*
X64615000Y6645000D03*
X65115000Y6645000D03*
X64115000Y6645000D03*
D21*
X62615000Y6645000D03*
X61615000Y6645000D03*
D23*
X60140000Y6645000D03*
D24*
X66590000Y6645000D03*
D25*
X59047000Y1890000D03*
D26*
X59047000Y6070000D03*
X67683000Y6070000D03*
D25*
X67683000Y1890000D03*
D23*
X60915000Y6645000D03*
D24*
X65815000Y6645000D03*
%TD*%
D20*
%TO.C,J2*%
X15525000Y85280000D03*
X21305000Y85280000D03*
D21*
X17165000Y86385000D03*
X18165000Y86385000D03*
D22*
X18665000Y86385000D03*
X19665000Y86385000D03*
X20165000Y86385000D03*
X19165000Y86385000D03*
D21*
X17665000Y86385000D03*
X16665000Y86385000D03*
D23*
X15190000Y86385000D03*
D24*
X21640000Y86385000D03*
D25*
X14097000Y81630000D03*
D26*
X14097000Y85810000D03*
X22733000Y85810000D03*
D25*
X22733000Y81630000D03*
D23*
X15965000Y86385000D03*
D24*
X20865000Y86385000D03*
%TD*%
D20*
%TO.C,J2*%
X15525000Y45410000D03*
X21305000Y45410000D03*
D21*
X17165000Y46515000D03*
X18165000Y46515000D03*
D22*
X18665000Y46515000D03*
X19665000Y46515000D03*
X20165000Y46515000D03*
X19165000Y46515000D03*
D21*
X17665000Y46515000D03*
X16665000Y46515000D03*
D23*
X15190000Y46515000D03*
D24*
X21640000Y46515000D03*
D25*
X14097000Y41760000D03*
D26*
X14097000Y45940000D03*
X22733000Y45940000D03*
D25*
X22733000Y41760000D03*
D23*
X15965000Y46515000D03*
D24*
X20865000Y46515000D03*
%TD*%
D27*
%TO.C,ST4*%
X92440000Y115300000D03*
%TD*%
%TO.C,ST4*%
X92440000Y75430000D03*
%TD*%
%TO.C,ST4*%
X92440000Y35560000D03*
%TD*%
%TO.C,ST4*%
X47490000Y115300000D03*
%TD*%
%TO.C,ST4*%
X47490000Y75430000D03*
%TD*%
%TO.C,ST4*%
X47490000Y35560000D03*
%TD*%
%TO.C,ST4*%
X2540000Y115300000D03*
%TD*%
%TO.C,ST4*%
X2540000Y75430000D03*
%TD*%
D19*
%TO.C,R5*%
X116570000Y83675000D03*
X116570000Y84695000D03*
%TD*%
%TO.C,R5*%
X116570000Y43805000D03*
X116570000Y44825000D03*
%TD*%
%TO.C,R5*%
X116570000Y3935000D03*
X116570000Y4955000D03*
%TD*%
%TO.C,R5*%
X71620000Y83675000D03*
X71620000Y84695000D03*
%TD*%
%TO.C,R5*%
X71620000Y43805000D03*
X71620000Y44825000D03*
%TD*%
%TO.C,R5*%
X71620000Y3935000D03*
X71620000Y4955000D03*
%TD*%
%TO.C,R5*%
X26670000Y83675000D03*
X26670000Y84695000D03*
%TD*%
%TO.C,R5*%
X26670000Y43805000D03*
X26670000Y44825000D03*
%TD*%
D28*
%TO.C,L1*%
X91490000Y97520000D03*
X93390000Y97520000D03*
%TD*%
%TO.C,L1*%
X91490000Y57650000D03*
X93390000Y57650000D03*
%TD*%
%TO.C,L1*%
X91490000Y17780000D03*
X93390000Y17780000D03*
%TD*%
%TO.C,L1*%
X46540000Y97520000D03*
X48440000Y97520000D03*
%TD*%
%TO.C,L1*%
X46540000Y57650000D03*
X48440000Y57650000D03*
%TD*%
%TO.C,L1*%
X46540000Y17780000D03*
X48440000Y17780000D03*
%TD*%
%TO.C,L1*%
X1590000Y97520000D03*
X3490000Y97520000D03*
%TD*%
%TO.C,L1*%
X1590000Y57650000D03*
X3490000Y57650000D03*
%TD*%
D19*
%TO.C,R20*%
X117205000Y108440000D03*
X117205000Y109460000D03*
%TD*%
%TO.C,R20*%
X117205000Y68570000D03*
X117205000Y69590000D03*
%TD*%
%TO.C,R20*%
X117205000Y28700000D03*
X117205000Y29720000D03*
%TD*%
%TO.C,R20*%
X72255000Y108440000D03*
X72255000Y109460000D03*
%TD*%
%TO.C,R20*%
X72255000Y68570000D03*
X72255000Y69590000D03*
%TD*%
%TO.C,R20*%
X72255000Y28700000D03*
X72255000Y29720000D03*
%TD*%
%TO.C,R20*%
X27305000Y108440000D03*
X27305000Y109460000D03*
%TD*%
%TO.C,R20*%
X27305000Y68570000D03*
X27305000Y69590000D03*
%TD*%
D15*
%TO.C,C10*%
X121805000Y94980000D03*
X122765000Y94980000D03*
%TD*%
%TO.C,C10*%
X121805000Y55110000D03*
X122765000Y55110000D03*
%TD*%
%TO.C,C10*%
X121805000Y15240000D03*
X122765000Y15240000D03*
%TD*%
%TO.C,C10*%
X76855000Y94980000D03*
X77815000Y94980000D03*
%TD*%
%TO.C,C10*%
X76855000Y55110000D03*
X77815000Y55110000D03*
%TD*%
%TO.C,C10*%
X76855000Y15240000D03*
X77815000Y15240000D03*
%TD*%
%TO.C,C10*%
X31905000Y94980000D03*
X32865000Y94980000D03*
%TD*%
%TO.C,C10*%
X31905000Y55110000D03*
X32865000Y55110000D03*
%TD*%
D29*
%TO.C,D2*%
X121015000Y81130000D03*
X121015000Y83430000D03*
%TD*%
%TO.C,D2*%
X121015000Y41260000D03*
X121015000Y43560000D03*
%TD*%
%TO.C,D2*%
X121015000Y1390000D03*
X121015000Y3690000D03*
%TD*%
%TO.C,D2*%
X76065000Y81130000D03*
X76065000Y83430000D03*
%TD*%
%TO.C,D2*%
X76065000Y41260000D03*
X76065000Y43560000D03*
%TD*%
%TO.C,D2*%
X76065000Y1390000D03*
X76065000Y3690000D03*
%TD*%
%TO.C,D2*%
X31115000Y81130000D03*
X31115000Y83430000D03*
%TD*%
%TO.C,D2*%
X31115000Y41260000D03*
X31115000Y43560000D03*
%TD*%
D12*
%TO.C,R15*%
X97395000Y112125000D03*
X96375000Y112125000D03*
%TD*%
%TO.C,R15*%
X97395000Y72255000D03*
X96375000Y72255000D03*
%TD*%
%TO.C,R15*%
X97395000Y32385000D03*
X96375000Y32385000D03*
%TD*%
%TO.C,R15*%
X52445000Y112125000D03*
X51425000Y112125000D03*
%TD*%
%TO.C,R15*%
X52445000Y72255000D03*
X51425000Y72255000D03*
%TD*%
%TO.C,R15*%
X52445000Y32385000D03*
X51425000Y32385000D03*
%TD*%
%TO.C,R15*%
X7495000Y112125000D03*
X6475000Y112125000D03*
%TD*%
%TO.C,R15*%
X7495000Y72255000D03*
X6475000Y72255000D03*
%TD*%
D30*
%TO.C,Y1*%
X121785000Y100735000D03*
D31*
X122785000Y99385000D03*
D30*
X122785000Y100735000D03*
D31*
X121785000Y99385000D03*
%TD*%
D30*
%TO.C,Y1*%
X121785000Y60865000D03*
D31*
X122785000Y59515000D03*
D30*
X122785000Y60865000D03*
D31*
X121785000Y59515000D03*
%TD*%
D30*
%TO.C,Y1*%
X121785000Y20995000D03*
D31*
X122785000Y19645000D03*
D30*
X122785000Y20995000D03*
D31*
X121785000Y19645000D03*
%TD*%
D30*
%TO.C,Y1*%
X76835000Y100735000D03*
D31*
X77835000Y99385000D03*
D30*
X77835000Y100735000D03*
D31*
X76835000Y99385000D03*
%TD*%
D30*
%TO.C,Y1*%
X76835000Y60865000D03*
D31*
X77835000Y59515000D03*
D30*
X77835000Y60865000D03*
D31*
X76835000Y59515000D03*
%TD*%
D30*
%TO.C,Y1*%
X76835000Y20995000D03*
D31*
X77835000Y19645000D03*
D30*
X77835000Y20995000D03*
D31*
X76835000Y19645000D03*
%TD*%
D30*
%TO.C,Y1*%
X31885000Y100735000D03*
D31*
X32885000Y99385000D03*
D30*
X32885000Y100735000D03*
D31*
X31885000Y99385000D03*
%TD*%
D30*
%TO.C,Y1*%
X31885000Y60865000D03*
D31*
X32885000Y59515000D03*
D30*
X32885000Y60865000D03*
D31*
X31885000Y59515000D03*
%TD*%
D32*
%TO.C,J4*%
X94980000Y90765000D03*
X94980000Y89765000D03*
X94980000Y88765000D03*
X94980000Y87765000D03*
D33*
X91305000Y86465000D03*
X91305000Y92065000D03*
%TD*%
D32*
%TO.C,J4*%
X94980000Y50895000D03*
X94980000Y49895000D03*
X94980000Y48895000D03*
X94980000Y47895000D03*
D33*
X91305000Y46595000D03*
X91305000Y52195000D03*
%TD*%
D32*
%TO.C,J4*%
X94980000Y11025000D03*
X94980000Y10025000D03*
X94980000Y9025000D03*
X94980000Y8025000D03*
D33*
X91305000Y6725000D03*
X91305000Y12325000D03*
%TD*%
D32*
%TO.C,J4*%
X50030000Y90765000D03*
X50030000Y89765000D03*
X50030000Y88765000D03*
X50030000Y87765000D03*
D33*
X46355000Y86465000D03*
X46355000Y92065000D03*
%TD*%
D32*
%TO.C,J4*%
X50030000Y50895000D03*
X50030000Y49895000D03*
X50030000Y48895000D03*
X50030000Y47895000D03*
D33*
X46355000Y46595000D03*
X46355000Y52195000D03*
%TD*%
D32*
%TO.C,J4*%
X50030000Y11025000D03*
X50030000Y10025000D03*
X50030000Y9025000D03*
X50030000Y8025000D03*
D33*
X46355000Y6725000D03*
X46355000Y12325000D03*
%TD*%
D32*
%TO.C,J4*%
X5080000Y90765000D03*
X5080000Y89765000D03*
X5080000Y88765000D03*
X5080000Y87765000D03*
D33*
X1405000Y86465000D03*
X1405000Y92065000D03*
%TD*%
D32*
%TO.C,J4*%
X5080000Y50895000D03*
X5080000Y49895000D03*
X5080000Y48895000D03*
X5080000Y47895000D03*
D33*
X1405000Y46595000D03*
X1405000Y52195000D03*
%TD*%
D15*
%TO.C,C11*%
X121805000Y98155000D03*
X122765000Y98155000D03*
%TD*%
%TO.C,C11*%
X121805000Y58285000D03*
X122765000Y58285000D03*
%TD*%
%TO.C,C11*%
X121805000Y18415000D03*
X122765000Y18415000D03*
%TD*%
%TO.C,C11*%
X76855000Y98155000D03*
X77815000Y98155000D03*
%TD*%
%TO.C,C11*%
X76855000Y58285000D03*
X77815000Y58285000D03*
%TD*%
%TO.C,C11*%
X76855000Y18415000D03*
X77815000Y18415000D03*
%TD*%
%TO.C,C11*%
X31905000Y98155000D03*
X32865000Y98155000D03*
%TD*%
%TO.C,C11*%
X31905000Y58285000D03*
X32865000Y58285000D03*
%TD*%
%TO.C,C4*%
X118630000Y90535000D03*
X119590000Y90535000D03*
%TD*%
%TO.C,C4*%
X118630000Y50665000D03*
X119590000Y50665000D03*
%TD*%
%TO.C,C4*%
X118630000Y10795000D03*
X119590000Y10795000D03*
%TD*%
%TO.C,C4*%
X73680000Y90535000D03*
X74640000Y90535000D03*
%TD*%
%TO.C,C4*%
X73680000Y50665000D03*
X74640000Y50665000D03*
%TD*%
%TO.C,C4*%
X73680000Y10795000D03*
X74640000Y10795000D03*
%TD*%
%TO.C,C4*%
X28730000Y90535000D03*
X29690000Y90535000D03*
%TD*%
%TO.C,C4*%
X28730000Y50665000D03*
X29690000Y50665000D03*
%TD*%
D11*
%TO.C,FID2*%
X96250000Y81010000D03*
%TD*%
%TO.C,FID2*%
X96250000Y41140000D03*
%TD*%
%TO.C,FID2*%
X96250000Y1270000D03*
%TD*%
%TO.C,FID2*%
X51300000Y81010000D03*
%TD*%
%TO.C,FID2*%
X51300000Y41140000D03*
%TD*%
%TO.C,FID2*%
X51300000Y1270000D03*
%TD*%
%TO.C,FID2*%
X6350000Y81010000D03*
%TD*%
%TO.C,FID2*%
X6350000Y41140000D03*
%TD*%
D34*
%TO.C,D5*%
X96885000Y101210000D03*
X96885000Y98910000D03*
%TD*%
%TO.C,D5*%
X96885000Y61340000D03*
X96885000Y59040000D03*
%TD*%
%TO.C,D5*%
X96885000Y21470000D03*
X96885000Y19170000D03*
%TD*%
%TO.C,D5*%
X51935000Y101210000D03*
X51935000Y98910000D03*
%TD*%
%TO.C,D5*%
X51935000Y61340000D03*
X51935000Y59040000D03*
%TD*%
%TO.C,D5*%
X51935000Y21470000D03*
X51935000Y19170000D03*
%TD*%
%TO.C,D5*%
X6985000Y101210000D03*
X6985000Y98910000D03*
%TD*%
%TO.C,D5*%
X6985000Y61340000D03*
X6985000Y59040000D03*
%TD*%
D35*
%TO.C,U4*%
X126410000Y107710100D03*
X125460000Y107710100D03*
X124510000Y107710100D03*
X124510000Y105109900D03*
X126410000Y105109900D03*
%TD*%
%TO.C,U4*%
X126410000Y67840100D03*
X125460000Y67840100D03*
X124510000Y67840100D03*
X124510000Y65239900D03*
X126410000Y65239900D03*
%TD*%
%TO.C,U4*%
X126410000Y27970100D03*
X125460000Y27970100D03*
X124510000Y27970100D03*
X124510000Y25369900D03*
X126410000Y25369900D03*
%TD*%
%TO.C,U4*%
X81460000Y107710100D03*
X80510000Y107710100D03*
X79560000Y107710100D03*
X79560000Y105109900D03*
X81460000Y105109900D03*
%TD*%
%TO.C,U4*%
X81460000Y67840100D03*
X80510000Y67840100D03*
X79560000Y67840100D03*
X79560000Y65239900D03*
X81460000Y65239900D03*
%TD*%
%TO.C,U4*%
X81460000Y27970100D03*
X80510000Y27970100D03*
X79560000Y27970100D03*
X79560000Y25369900D03*
X81460000Y25369900D03*
%TD*%
%TO.C,U4*%
X36510000Y107710100D03*
X35560000Y107710100D03*
X34610000Y107710100D03*
X34610000Y105109900D03*
X36510000Y105109900D03*
%TD*%
%TO.C,U4*%
X36510000Y67840100D03*
X35560000Y67840100D03*
X34610000Y67840100D03*
X34610000Y65239900D03*
X36510000Y65239900D03*
%TD*%
D15*
%TO.C,C20*%
X130060000Y102600000D03*
X131020000Y102600000D03*
%TD*%
%TO.C,C20*%
X130060000Y62730000D03*
X131020000Y62730000D03*
%TD*%
%TO.C,C20*%
X130060000Y22860000D03*
X131020000Y22860000D03*
%TD*%
%TO.C,C20*%
X85110000Y102600000D03*
X86070000Y102600000D03*
%TD*%
%TO.C,C20*%
X85110000Y62730000D03*
X86070000Y62730000D03*
%TD*%
%TO.C,C20*%
X85110000Y22860000D03*
X86070000Y22860000D03*
%TD*%
%TO.C,C20*%
X40160000Y102600000D03*
X41120000Y102600000D03*
%TD*%
%TO.C,C20*%
X40160000Y62730000D03*
X41120000Y62730000D03*
%TD*%
D16*
%TO.C,R7*%
X119745000Y108190000D03*
X119745000Y107170000D03*
%TD*%
%TO.C,R7*%
X119745000Y68320000D03*
X119745000Y67300000D03*
%TD*%
%TO.C,R7*%
X119745000Y28450000D03*
X119745000Y27430000D03*
%TD*%
%TO.C,R7*%
X74795000Y108190000D03*
X74795000Y107170000D03*
%TD*%
%TO.C,R7*%
X74795000Y68320000D03*
X74795000Y67300000D03*
%TD*%
%TO.C,R7*%
X74795000Y28450000D03*
X74795000Y27430000D03*
%TD*%
%TO.C,R7*%
X29845000Y108190000D03*
X29845000Y107170000D03*
%TD*%
%TO.C,R7*%
X29845000Y68320000D03*
X29845000Y67300000D03*
%TD*%
D32*
%TO.C,J3*%
X94980000Y109815000D03*
X94980000Y108815000D03*
X94980000Y107815000D03*
X94980000Y106815000D03*
D33*
X91305000Y105515000D03*
X91305000Y111115000D03*
%TD*%
D32*
%TO.C,J3*%
X94980000Y69945000D03*
X94980000Y68945000D03*
X94980000Y67945000D03*
X94980000Y66945000D03*
D33*
X91305000Y65645000D03*
X91305000Y71245000D03*
%TD*%
D32*
%TO.C,J3*%
X94980000Y30075000D03*
X94980000Y29075000D03*
X94980000Y28075000D03*
X94980000Y27075000D03*
D33*
X91305000Y25775000D03*
X91305000Y31375000D03*
%TD*%
D32*
%TO.C,J3*%
X50030000Y109815000D03*
X50030000Y108815000D03*
X50030000Y107815000D03*
X50030000Y106815000D03*
D33*
X46355000Y105515000D03*
X46355000Y111115000D03*
%TD*%
D32*
%TO.C,J3*%
X50030000Y69945000D03*
X50030000Y68945000D03*
X50030000Y67945000D03*
X50030000Y66945000D03*
D33*
X46355000Y65645000D03*
X46355000Y71245000D03*
%TD*%
D32*
%TO.C,J3*%
X50030000Y30075000D03*
X50030000Y29075000D03*
X50030000Y28075000D03*
X50030000Y27075000D03*
D33*
X46355000Y25775000D03*
X46355000Y31375000D03*
%TD*%
D32*
%TO.C,J3*%
X5080000Y109815000D03*
X5080000Y108815000D03*
X5080000Y107815000D03*
X5080000Y106815000D03*
D33*
X1405000Y105515000D03*
X1405000Y111115000D03*
%TD*%
D32*
%TO.C,J3*%
X5080000Y69945000D03*
X5080000Y68945000D03*
X5080000Y67945000D03*
X5080000Y66945000D03*
D33*
X1405000Y65645000D03*
X1405000Y71245000D03*
%TD*%
D36*
%TO.C,U6*%
X93740100Y99110000D03*
X93740100Y100060000D03*
X93740100Y101010000D03*
X91139900Y101010000D03*
X91139900Y99110000D03*
%TD*%
%TO.C,U6*%
X93740100Y59240000D03*
X93740100Y60190000D03*
X93740100Y61140000D03*
X91139900Y61140000D03*
X91139900Y59240000D03*
%TD*%
%TO.C,U6*%
X93740100Y19370000D03*
X93740100Y20320000D03*
X93740100Y21270000D03*
X91139900Y21270000D03*
X91139900Y19370000D03*
%TD*%
%TO.C,U6*%
X48790100Y99110000D03*
X48790100Y100060000D03*
X48790100Y101010000D03*
X46189900Y101010000D03*
X46189900Y99110000D03*
%TD*%
%TO.C,U6*%
X48790100Y59240000D03*
X48790100Y60190000D03*
X48790100Y61140000D03*
X46189900Y61140000D03*
X46189900Y59240000D03*
%TD*%
%TO.C,U6*%
X48790100Y19370000D03*
X48790100Y20320000D03*
X48790100Y21270000D03*
X46189900Y21270000D03*
X46189900Y19370000D03*
%TD*%
%TO.C,U6*%
X3840100Y99110000D03*
X3840100Y100060000D03*
X3840100Y101010000D03*
X1239900Y101010000D03*
X1239900Y99110000D03*
%TD*%
%TO.C,U6*%
X3840100Y59240000D03*
X3840100Y60190000D03*
X3840100Y61140000D03*
X1239900Y61140000D03*
X1239900Y59240000D03*
%TD*%
D37*
%TO.C,C17*%
X126575000Y101965000D03*
X125615000Y101965000D03*
%TD*%
%TO.C,C17*%
X126575000Y62095000D03*
X125615000Y62095000D03*
%TD*%
%TO.C,C17*%
X126575000Y22225000D03*
X125615000Y22225000D03*
%TD*%
%TO.C,C17*%
X81625000Y101965000D03*
X80665000Y101965000D03*
%TD*%
%TO.C,C17*%
X81625000Y62095000D03*
X80665000Y62095000D03*
%TD*%
%TO.C,C17*%
X81625000Y22225000D03*
X80665000Y22225000D03*
%TD*%
%TO.C,C17*%
X36675000Y101965000D03*
X35715000Y101965000D03*
%TD*%
%TO.C,C17*%
X36675000Y62095000D03*
X35715000Y62095000D03*
%TD*%
D15*
%TO.C,C3*%
X121805000Y103235000D03*
X122765000Y103235000D03*
%TD*%
%TO.C,C3*%
X121805000Y63365000D03*
X122765000Y63365000D03*
%TD*%
%TO.C,C3*%
X121805000Y23495000D03*
X122765000Y23495000D03*
%TD*%
%TO.C,C3*%
X76855000Y103235000D03*
X77815000Y103235000D03*
%TD*%
%TO.C,C3*%
X76855000Y63365000D03*
X77815000Y63365000D03*
%TD*%
%TO.C,C3*%
X76855000Y23495000D03*
X77815000Y23495000D03*
%TD*%
%TO.C,C3*%
X31905000Y103235000D03*
X32865000Y103235000D03*
%TD*%
%TO.C,C3*%
X31905000Y63365000D03*
X32865000Y63365000D03*
%TD*%
D38*
%TO.C,C7*%
X101330000Y92666000D03*
X101330000Y91706000D03*
%TD*%
%TO.C,C7*%
X101330000Y52796000D03*
X101330000Y51836000D03*
%TD*%
%TO.C,C7*%
X101330000Y12926000D03*
X101330000Y11966000D03*
%TD*%
%TO.C,C7*%
X56380000Y92666000D03*
X56380000Y91706000D03*
%TD*%
%TO.C,C7*%
X56380000Y52796000D03*
X56380000Y51836000D03*
%TD*%
%TO.C,C7*%
X56380000Y12926000D03*
X56380000Y11966000D03*
%TD*%
%TO.C,C7*%
X11430000Y92666000D03*
X11430000Y91706000D03*
%TD*%
%TO.C,C7*%
X11430000Y52796000D03*
X11430000Y51836000D03*
%TD*%
%TO.C,C27*%
X98790000Y100540000D03*
X98790000Y99580000D03*
%TD*%
%TO.C,C27*%
X98790000Y60670000D03*
X98790000Y59710000D03*
%TD*%
%TO.C,C27*%
X98790000Y20800000D03*
X98790000Y19840000D03*
%TD*%
%TO.C,C27*%
X53840000Y100540000D03*
X53840000Y99580000D03*
%TD*%
%TO.C,C27*%
X53840000Y60670000D03*
X53840000Y59710000D03*
%TD*%
%TO.C,C27*%
X53840000Y20800000D03*
X53840000Y19840000D03*
%TD*%
%TO.C,C27*%
X8890000Y100540000D03*
X8890000Y99580000D03*
%TD*%
%TO.C,C27*%
X8890000Y60670000D03*
X8890000Y59710000D03*
%TD*%
D14*
%TO.C,D1*%
X116055000Y86471000D03*
X118355000Y86471000D03*
%TD*%
%TO.C,D1*%
X116055000Y46601000D03*
X118355000Y46601000D03*
%TD*%
%TO.C,D1*%
X116055000Y6731000D03*
X118355000Y6731000D03*
%TD*%
%TO.C,D1*%
X71105000Y86471000D03*
X73405000Y86471000D03*
%TD*%
%TO.C,D1*%
X71105000Y46601000D03*
X73405000Y46601000D03*
%TD*%
%TO.C,D1*%
X71105000Y6731000D03*
X73405000Y6731000D03*
%TD*%
%TO.C,D1*%
X26155000Y86471000D03*
X28455000Y86471000D03*
%TD*%
%TO.C,D1*%
X26155000Y46601000D03*
X28455000Y46601000D03*
%TD*%
D37*
%TO.C,C18*%
X131020000Y101330000D03*
X130060000Y101330000D03*
%TD*%
%TO.C,C18*%
X131020000Y61460000D03*
X130060000Y61460000D03*
%TD*%
%TO.C,C18*%
X131020000Y21590000D03*
X130060000Y21590000D03*
%TD*%
%TO.C,C18*%
X86070000Y101330000D03*
X85110000Y101330000D03*
%TD*%
%TO.C,C18*%
X86070000Y61460000D03*
X85110000Y61460000D03*
%TD*%
%TO.C,C18*%
X86070000Y21590000D03*
X85110000Y21590000D03*
%TD*%
%TO.C,C18*%
X41120000Y101330000D03*
X40160000Y101330000D03*
%TD*%
%TO.C,C18*%
X41120000Y61460000D03*
X40160000Y61460000D03*
%TD*%
%TO.C,C19*%
X126575000Y100695000D03*
X125615000Y100695000D03*
%TD*%
%TO.C,C19*%
X126575000Y60825000D03*
X125615000Y60825000D03*
%TD*%
%TO.C,C19*%
X126575000Y20955000D03*
X125615000Y20955000D03*
%TD*%
%TO.C,C19*%
X81625000Y100695000D03*
X80665000Y100695000D03*
%TD*%
%TO.C,C19*%
X81625000Y60825000D03*
X80665000Y60825000D03*
%TD*%
%TO.C,C19*%
X81625000Y20955000D03*
X80665000Y20955000D03*
%TD*%
%TO.C,C19*%
X36675000Y100695000D03*
X35715000Y100695000D03*
%TD*%
%TO.C,C19*%
X36675000Y60825000D03*
X35715000Y60825000D03*
%TD*%
D39*
%TO.C,U1*%
X98475000Y84789900D03*
X99425000Y84789900D03*
X100375000Y84789900D03*
X100375000Y87390100D03*
X99475000Y87390100D03*
X98475000Y87390100D03*
%TD*%
%TO.C,U1*%
X98475000Y44919900D03*
X99425000Y44919900D03*
X100375000Y44919900D03*
X100375000Y47520100D03*
X99475000Y47520100D03*
X98475000Y47520100D03*
%TD*%
%TO.C,U1*%
X98475000Y5049900D03*
X99425000Y5049900D03*
X100375000Y5049900D03*
X100375000Y7650100D03*
X99475000Y7650100D03*
X98475000Y7650100D03*
%TD*%
%TO.C,U1*%
X53525000Y84789900D03*
X54475000Y84789900D03*
X55425000Y84789900D03*
X55425000Y87390100D03*
X54525000Y87390100D03*
X53525000Y87390100D03*
%TD*%
%TO.C,U1*%
X53525000Y44919900D03*
X54475000Y44919900D03*
X55425000Y44919900D03*
X55425000Y47520100D03*
X54525000Y47520100D03*
X53525000Y47520100D03*
%TD*%
%TO.C,U1*%
X53525000Y5049900D03*
X54475000Y5049900D03*
X55425000Y5049900D03*
X55425000Y7650100D03*
X54525000Y7650100D03*
X53525000Y7650100D03*
%TD*%
%TO.C,U1*%
X8575000Y84789900D03*
X9525000Y84789900D03*
X10475000Y84789900D03*
X10475000Y87390100D03*
X9575000Y87390100D03*
X8575000Y87390100D03*
%TD*%
%TO.C,U1*%
X8575000Y44919900D03*
X9525000Y44919900D03*
X10475000Y44919900D03*
X10475000Y47520100D03*
X9575000Y47520100D03*
X8575000Y47520100D03*
%TD*%
D16*
%TO.C,R22*%
X128000000Y109460000D03*
X128000000Y108440000D03*
%TD*%
%TO.C,R22*%
X128000000Y69590000D03*
X128000000Y68570000D03*
%TD*%
%TO.C,R22*%
X128000000Y29720000D03*
X128000000Y28700000D03*
%TD*%
%TO.C,R22*%
X83050000Y109460000D03*
X83050000Y108440000D03*
%TD*%
%TO.C,R22*%
X83050000Y69590000D03*
X83050000Y68570000D03*
%TD*%
%TO.C,R22*%
X83050000Y29720000D03*
X83050000Y28700000D03*
%TD*%
%TO.C,R22*%
X38100000Y109460000D03*
X38100000Y108440000D03*
%TD*%
%TO.C,R22*%
X38100000Y69590000D03*
X38100000Y68570000D03*
%TD*%
D40*
%TO.C,U5*%
X131560000Y97842500D03*
X130910000Y97842500D03*
X130260000Y97842500D03*
X129610000Y97842500D03*
X128960000Y97842500D03*
X128310000Y97842500D03*
X127660000Y97842500D03*
X127010000Y97842500D03*
X126360000Y97842500D03*
X125710000Y97842500D03*
X125710000Y92117500D03*
X126360000Y92117500D03*
X127010000Y92117500D03*
X127660000Y92117500D03*
X128310000Y92117500D03*
X128960000Y92117500D03*
X129610000Y92117500D03*
X130260000Y92117500D03*
X130910000Y92117500D03*
X131560000Y92117500D03*
%TD*%
%TO.C,U5*%
X131560000Y57972500D03*
X130910000Y57972500D03*
X130260000Y57972500D03*
X129610000Y57972500D03*
X128960000Y57972500D03*
X128310000Y57972500D03*
X127660000Y57972500D03*
X127010000Y57972500D03*
X126360000Y57972500D03*
X125710000Y57972500D03*
X125710000Y52247500D03*
X126360000Y52247500D03*
X127010000Y52247500D03*
X127660000Y52247500D03*
X128310000Y52247500D03*
X128960000Y52247500D03*
X129610000Y52247500D03*
X130260000Y52247500D03*
X130910000Y52247500D03*
X131560000Y52247500D03*
%TD*%
%TO.C,U5*%
X131560000Y18102500D03*
X130910000Y18102500D03*
X130260000Y18102500D03*
X129610000Y18102500D03*
X128960000Y18102500D03*
X128310000Y18102500D03*
X127660000Y18102500D03*
X127010000Y18102500D03*
X126360000Y18102500D03*
X125710000Y18102500D03*
X125710000Y12377500D03*
X126360000Y12377500D03*
X127010000Y12377500D03*
X127660000Y12377500D03*
X128310000Y12377500D03*
X128960000Y12377500D03*
X129610000Y12377500D03*
X130260000Y12377500D03*
X130910000Y12377500D03*
X131560000Y12377500D03*
%TD*%
%TO.C,U5*%
X86610000Y97842500D03*
X85960000Y97842500D03*
X85310000Y97842500D03*
X84660000Y97842500D03*
X84010000Y97842500D03*
X83360000Y97842500D03*
X82710000Y97842500D03*
X82060000Y97842500D03*
X81410000Y97842500D03*
X80760000Y97842500D03*
X80760000Y92117500D03*
X81410000Y92117500D03*
X82060000Y92117500D03*
X82710000Y92117500D03*
X83360000Y92117500D03*
X84010000Y92117500D03*
X84660000Y92117500D03*
X85310000Y92117500D03*
X85960000Y92117500D03*
X86610000Y92117500D03*
%TD*%
%TO.C,U5*%
X86610000Y57972500D03*
X85960000Y57972500D03*
X85310000Y57972500D03*
X84660000Y57972500D03*
X84010000Y57972500D03*
X83360000Y57972500D03*
X82710000Y57972500D03*
X82060000Y57972500D03*
X81410000Y57972500D03*
X80760000Y57972500D03*
X80760000Y52247500D03*
X81410000Y52247500D03*
X82060000Y52247500D03*
X82710000Y52247500D03*
X83360000Y52247500D03*
X84010000Y52247500D03*
X84660000Y52247500D03*
X85310000Y52247500D03*
X85960000Y52247500D03*
X86610000Y52247500D03*
%TD*%
%TO.C,U5*%
X86610000Y18102500D03*
X85960000Y18102500D03*
X85310000Y18102500D03*
X84660000Y18102500D03*
X84010000Y18102500D03*
X83360000Y18102500D03*
X82710000Y18102500D03*
X82060000Y18102500D03*
X81410000Y18102500D03*
X80760000Y18102500D03*
X80760000Y12377500D03*
X81410000Y12377500D03*
X82060000Y12377500D03*
X82710000Y12377500D03*
X83360000Y12377500D03*
X84010000Y12377500D03*
X84660000Y12377500D03*
X85310000Y12377500D03*
X85960000Y12377500D03*
X86610000Y12377500D03*
%TD*%
%TO.C,U5*%
X41660000Y97842500D03*
X41010000Y97842500D03*
X40360000Y97842500D03*
X39710000Y97842500D03*
X39060000Y97842500D03*
X38410000Y97842500D03*
X37760000Y97842500D03*
X37110000Y97842500D03*
X36460000Y97842500D03*
X35810000Y97842500D03*
X35810000Y92117500D03*
X36460000Y92117500D03*
X37110000Y92117500D03*
X37760000Y92117500D03*
X38410000Y92117500D03*
X39060000Y92117500D03*
X39710000Y92117500D03*
X40360000Y92117500D03*
X41010000Y92117500D03*
X41660000Y92117500D03*
%TD*%
%TO.C,U5*%
X41660000Y57972500D03*
X41010000Y57972500D03*
X40360000Y57972500D03*
X39710000Y57972500D03*
X39060000Y57972500D03*
X38410000Y57972500D03*
X37760000Y57972500D03*
X37110000Y57972500D03*
X36460000Y57972500D03*
X35810000Y57972500D03*
X35810000Y52247500D03*
X36460000Y52247500D03*
X37110000Y52247500D03*
X37760000Y52247500D03*
X38410000Y52247500D03*
X39060000Y52247500D03*
X39710000Y52247500D03*
X40360000Y52247500D03*
X41010000Y52247500D03*
X41660000Y52247500D03*
%TD*%
D12*
%TO.C,R23*%
X97395000Y102600000D03*
X96375000Y102600000D03*
%TD*%
%TO.C,R23*%
X97395000Y62730000D03*
X96375000Y62730000D03*
%TD*%
%TO.C,R23*%
X97395000Y22860000D03*
X96375000Y22860000D03*
%TD*%
%TO.C,R23*%
X52445000Y102600000D03*
X51425000Y102600000D03*
%TD*%
%TO.C,R23*%
X52445000Y62730000D03*
X51425000Y62730000D03*
%TD*%
%TO.C,R23*%
X52445000Y22860000D03*
X51425000Y22860000D03*
%TD*%
%TO.C,R23*%
X7495000Y102600000D03*
X6475000Y102600000D03*
%TD*%
%TO.C,R23*%
X7495000Y62730000D03*
X6475000Y62730000D03*
%TD*%
D41*
%TO.C,U3*%
X118530000Y92790000D03*
X118530000Y93290000D03*
X118530000Y93790000D03*
X118530000Y94290000D03*
X118530000Y94790000D03*
X118530000Y95290000D03*
X118530000Y95790000D03*
X118530000Y96290000D03*
X118530000Y96790000D03*
X118530000Y97290000D03*
X118530000Y97790000D03*
X118530000Y98290000D03*
X118530000Y98790000D03*
X118530000Y99290000D03*
X118530000Y99790000D03*
X118530000Y100290000D03*
X118530000Y100790000D03*
X118530000Y101290000D03*
X118530000Y101790000D03*
X118530000Y102290000D03*
X118530000Y102790000D03*
X118530000Y103290000D03*
X118530000Y103790000D03*
X118530000Y104290000D03*
X118530000Y104790000D03*
D42*
X116855000Y106465000D03*
X116355000Y106465000D03*
X115855000Y106465000D03*
X115355000Y106465000D03*
X114855000Y106465000D03*
X114355000Y106465000D03*
X113855000Y106465000D03*
X113355000Y106465000D03*
X112855000Y106465000D03*
X112355000Y106465000D03*
X111855000Y106465000D03*
X111355000Y106465000D03*
X110855000Y106465000D03*
X110355000Y106465000D03*
X109855000Y106465000D03*
X109355000Y106465000D03*
X108855000Y106465000D03*
X108355000Y106465000D03*
X107855000Y106465000D03*
X107355000Y106465000D03*
X106855000Y106465000D03*
X106355000Y106465000D03*
X105855000Y106465000D03*
X105355000Y106465000D03*
X104855000Y106465000D03*
D41*
X103180000Y104790000D03*
X103180000Y104290000D03*
X103180000Y103790000D03*
X103180000Y103290000D03*
X103180000Y102790000D03*
X103180000Y102290000D03*
X103180000Y101790000D03*
X103180000Y101290000D03*
X103180000Y100790000D03*
X103180000Y100290000D03*
X103180000Y99790000D03*
X103180000Y99290000D03*
X103180000Y98790000D03*
X103180000Y98290000D03*
X103180000Y97790000D03*
X103180000Y97290000D03*
X103180000Y96790000D03*
X103180000Y96290000D03*
X103180000Y95790000D03*
X103180000Y95290000D03*
X103180000Y94790000D03*
X103180000Y94290000D03*
X103180000Y93790000D03*
X103180000Y93290000D03*
X103180000Y92790000D03*
D42*
X104855000Y91115000D03*
X105355000Y91115000D03*
X105855000Y91115000D03*
X106355000Y91115000D03*
X106855000Y91115000D03*
X107355000Y91115000D03*
X107855000Y91115000D03*
X108355000Y91115000D03*
X108855000Y91115000D03*
X109355000Y91115000D03*
X109855000Y91115000D03*
X110355000Y91115000D03*
X110855000Y91115000D03*
X111355000Y91115000D03*
X111855000Y91115000D03*
X112355000Y91115000D03*
X112855000Y91115000D03*
X113355000Y91115000D03*
X113855000Y91115000D03*
X114355000Y91115000D03*
X114855000Y91115000D03*
X115355000Y91115000D03*
X115855000Y91115000D03*
X116355000Y91115000D03*
X116855000Y91115000D03*
%TD*%
D41*
%TO.C,U3*%
X118530000Y52920000D03*
X118530000Y53420000D03*
X118530000Y53920000D03*
X118530000Y54420000D03*
X118530000Y54920000D03*
X118530000Y55420000D03*
X118530000Y55920000D03*
X118530000Y56420000D03*
X118530000Y56920000D03*
X118530000Y57420000D03*
X118530000Y57920000D03*
X118530000Y58420000D03*
X118530000Y58920000D03*
X118530000Y59420000D03*
X118530000Y59920000D03*
X118530000Y60420000D03*
X118530000Y60920000D03*
X118530000Y61420000D03*
X118530000Y61920000D03*
X118530000Y62420000D03*
X118530000Y62920000D03*
X118530000Y63420000D03*
X118530000Y63920000D03*
X118530000Y64420000D03*
X118530000Y64920000D03*
D42*
X116855000Y66595000D03*
X116355000Y66595000D03*
X115855000Y66595000D03*
X115355000Y66595000D03*
X114855000Y66595000D03*
X114355000Y66595000D03*
X113855000Y66595000D03*
X113355000Y66595000D03*
X112855000Y66595000D03*
X112355000Y66595000D03*
X111855000Y66595000D03*
X111355000Y66595000D03*
X110855000Y66595000D03*
X110355000Y66595000D03*
X109855000Y66595000D03*
X109355000Y66595000D03*
X108855000Y66595000D03*
X108355000Y66595000D03*
X107855000Y66595000D03*
X107355000Y66595000D03*
X106855000Y66595000D03*
X106355000Y66595000D03*
X105855000Y66595000D03*
X105355000Y66595000D03*
X104855000Y66595000D03*
D41*
X103180000Y64920000D03*
X103180000Y64420000D03*
X103180000Y63920000D03*
X103180000Y63420000D03*
X103180000Y62920000D03*
X103180000Y62420000D03*
X103180000Y61920000D03*
X103180000Y61420000D03*
X103180000Y60920000D03*
X103180000Y60420000D03*
X103180000Y59920000D03*
X103180000Y59420000D03*
X103180000Y58920000D03*
X103180000Y58420000D03*
X103180000Y57920000D03*
X103180000Y57420000D03*
X103180000Y56920000D03*
X103180000Y56420000D03*
X103180000Y55920000D03*
X103180000Y55420000D03*
X103180000Y54920000D03*
X103180000Y54420000D03*
X103180000Y53920000D03*
X103180000Y53420000D03*
X103180000Y52920000D03*
D42*
X104855000Y51245000D03*
X105355000Y51245000D03*
X105855000Y51245000D03*
X106355000Y51245000D03*
X106855000Y51245000D03*
X107355000Y51245000D03*
X107855000Y51245000D03*
X108355000Y51245000D03*
X108855000Y51245000D03*
X109355000Y51245000D03*
X109855000Y51245000D03*
X110355000Y51245000D03*
X110855000Y51245000D03*
X111355000Y51245000D03*
X111855000Y51245000D03*
X112355000Y51245000D03*
X112855000Y51245000D03*
X113355000Y51245000D03*
X113855000Y51245000D03*
X114355000Y51245000D03*
X114855000Y51245000D03*
X115355000Y51245000D03*
X115855000Y51245000D03*
X116355000Y51245000D03*
X116855000Y51245000D03*
%TD*%
D41*
%TO.C,U3*%
X118530000Y13050000D03*
X118530000Y13550000D03*
X118530000Y14050000D03*
X118530000Y14550000D03*
X118530000Y15050000D03*
X118530000Y15550000D03*
X118530000Y16050000D03*
X118530000Y16550000D03*
X118530000Y17050000D03*
X118530000Y17550000D03*
X118530000Y18050000D03*
X118530000Y18550000D03*
X118530000Y19050000D03*
X118530000Y19550000D03*
X118530000Y20050000D03*
X118530000Y20550000D03*
X118530000Y21050000D03*
X118530000Y21550000D03*
X118530000Y22050000D03*
X118530000Y22550000D03*
X118530000Y23050000D03*
X118530000Y23550000D03*
X118530000Y24050000D03*
X118530000Y24550000D03*
X118530000Y25050000D03*
D42*
X116855000Y26725000D03*
X116355000Y26725000D03*
X115855000Y26725000D03*
X115355000Y26725000D03*
X114855000Y26725000D03*
X114355000Y26725000D03*
X113855000Y26725000D03*
X113355000Y26725000D03*
X112855000Y26725000D03*
X112355000Y26725000D03*
X111855000Y26725000D03*
X111355000Y26725000D03*
X110855000Y26725000D03*
X110355000Y26725000D03*
X109855000Y26725000D03*
X109355000Y26725000D03*
X108855000Y26725000D03*
X108355000Y26725000D03*
X107855000Y26725000D03*
X107355000Y26725000D03*
X106855000Y26725000D03*
X106355000Y26725000D03*
X105855000Y26725000D03*
X105355000Y26725000D03*
X104855000Y26725000D03*
D41*
X103180000Y25050000D03*
X103180000Y24550000D03*
X103180000Y24050000D03*
X103180000Y23550000D03*
X103180000Y23050000D03*
X103180000Y22550000D03*
X103180000Y22050000D03*
X103180000Y21550000D03*
X103180000Y21050000D03*
X103180000Y20550000D03*
X103180000Y20050000D03*
X103180000Y19550000D03*
X103180000Y19050000D03*
X103180000Y18550000D03*
X103180000Y18050000D03*
X103180000Y17550000D03*
X103180000Y17050000D03*
X103180000Y16550000D03*
X103180000Y16050000D03*
X103180000Y15550000D03*
X103180000Y15050000D03*
X103180000Y14550000D03*
X103180000Y14050000D03*
X103180000Y13550000D03*
X103180000Y13050000D03*
D42*
X104855000Y11375000D03*
X105355000Y11375000D03*
X105855000Y11375000D03*
X106355000Y11375000D03*
X106855000Y11375000D03*
X107355000Y11375000D03*
X107855000Y11375000D03*
X108355000Y11375000D03*
X108855000Y11375000D03*
X109355000Y11375000D03*
X109855000Y11375000D03*
X110355000Y11375000D03*
X110855000Y11375000D03*
X111355000Y11375000D03*
X111855000Y11375000D03*
X112355000Y11375000D03*
X112855000Y11375000D03*
X113355000Y11375000D03*
X113855000Y11375000D03*
X114355000Y11375000D03*
X114855000Y11375000D03*
X115355000Y11375000D03*
X115855000Y11375000D03*
X116355000Y11375000D03*
X116855000Y11375000D03*
%TD*%
D41*
%TO.C,U3*%
X73580000Y92790000D03*
X73580000Y93290000D03*
X73580000Y93790000D03*
X73580000Y94290000D03*
X73580000Y94790000D03*
X73580000Y95290000D03*
X73580000Y95790000D03*
X73580000Y96290000D03*
X73580000Y96790000D03*
X73580000Y97290000D03*
X73580000Y97790000D03*
X73580000Y98290000D03*
X73580000Y98790000D03*
X73580000Y99290000D03*
X73580000Y99790000D03*
X73580000Y100290000D03*
X73580000Y100790000D03*
X73580000Y101290000D03*
X73580000Y101790000D03*
X73580000Y102290000D03*
X73580000Y102790000D03*
X73580000Y103290000D03*
X73580000Y103790000D03*
X73580000Y104290000D03*
X73580000Y104790000D03*
D42*
X71905000Y106465000D03*
X71405000Y106465000D03*
X70905000Y106465000D03*
X70405000Y106465000D03*
X69905000Y106465000D03*
X69405000Y106465000D03*
X68905000Y106465000D03*
X68405000Y106465000D03*
X67905000Y106465000D03*
X67405000Y106465000D03*
X66905000Y106465000D03*
X66405000Y106465000D03*
X65905000Y106465000D03*
X65405000Y106465000D03*
X64905000Y106465000D03*
X64405000Y106465000D03*
X63905000Y106465000D03*
X63405000Y106465000D03*
X62905000Y106465000D03*
X62405000Y106465000D03*
X61905000Y106465000D03*
X61405000Y106465000D03*
X60905000Y106465000D03*
X60405000Y106465000D03*
X59905000Y106465000D03*
D41*
X58230000Y104790000D03*
X58230000Y104290000D03*
X58230000Y103790000D03*
X58230000Y103290000D03*
X58230000Y102790000D03*
X58230000Y102290000D03*
X58230000Y101790000D03*
X58230000Y101290000D03*
X58230000Y100790000D03*
X58230000Y100290000D03*
X58230000Y99790000D03*
X58230000Y99290000D03*
X58230000Y98790000D03*
X58230000Y98290000D03*
X58230000Y97790000D03*
X58230000Y97290000D03*
X58230000Y96790000D03*
X58230000Y96290000D03*
X58230000Y95790000D03*
X58230000Y95290000D03*
X58230000Y94790000D03*
X58230000Y94290000D03*
X58230000Y93790000D03*
X58230000Y93290000D03*
X58230000Y92790000D03*
D42*
X59905000Y91115000D03*
X60405000Y91115000D03*
X60905000Y91115000D03*
X61405000Y91115000D03*
X61905000Y91115000D03*
X62405000Y91115000D03*
X62905000Y91115000D03*
X63405000Y91115000D03*
X63905000Y91115000D03*
X64405000Y91115000D03*
X64905000Y91115000D03*
X65405000Y91115000D03*
X65905000Y91115000D03*
X66405000Y91115000D03*
X66905000Y91115000D03*
X67405000Y91115000D03*
X67905000Y91115000D03*
X68405000Y91115000D03*
X68905000Y91115000D03*
X69405000Y91115000D03*
X69905000Y91115000D03*
X70405000Y91115000D03*
X70905000Y91115000D03*
X71405000Y91115000D03*
X71905000Y91115000D03*
%TD*%
D41*
%TO.C,U3*%
X73580000Y52920000D03*
X73580000Y53420000D03*
X73580000Y53920000D03*
X73580000Y54420000D03*
X73580000Y54920000D03*
X73580000Y55420000D03*
X73580000Y55920000D03*
X73580000Y56420000D03*
X73580000Y56920000D03*
X73580000Y57420000D03*
X73580000Y57920000D03*
X73580000Y58420000D03*
X73580000Y58920000D03*
X73580000Y59420000D03*
X73580000Y59920000D03*
X73580000Y60420000D03*
X73580000Y60920000D03*
X73580000Y61420000D03*
X73580000Y61920000D03*
X73580000Y62420000D03*
X73580000Y62920000D03*
X73580000Y63420000D03*
X73580000Y63920000D03*
X73580000Y64420000D03*
X73580000Y64920000D03*
D42*
X71905000Y66595000D03*
X71405000Y66595000D03*
X70905000Y66595000D03*
X70405000Y66595000D03*
X69905000Y66595000D03*
X69405000Y66595000D03*
X68905000Y66595000D03*
X68405000Y66595000D03*
X67905000Y66595000D03*
X67405000Y66595000D03*
X66905000Y66595000D03*
X66405000Y66595000D03*
X65905000Y66595000D03*
X65405000Y66595000D03*
X64905000Y66595000D03*
X64405000Y66595000D03*
X63905000Y66595000D03*
X63405000Y66595000D03*
X62905000Y66595000D03*
X62405000Y66595000D03*
X61905000Y66595000D03*
X61405000Y66595000D03*
X60905000Y66595000D03*
X60405000Y66595000D03*
X59905000Y66595000D03*
D41*
X58230000Y64920000D03*
X58230000Y64420000D03*
X58230000Y63920000D03*
X58230000Y63420000D03*
X58230000Y62920000D03*
X58230000Y62420000D03*
X58230000Y61920000D03*
X58230000Y61420000D03*
X58230000Y60920000D03*
X58230000Y60420000D03*
X58230000Y59920000D03*
X58230000Y59420000D03*
X58230000Y58920000D03*
X58230000Y58420000D03*
X58230000Y57920000D03*
X58230000Y57420000D03*
X58230000Y56920000D03*
X58230000Y56420000D03*
X58230000Y55920000D03*
X58230000Y55420000D03*
X58230000Y54920000D03*
X58230000Y54420000D03*
X58230000Y53920000D03*
X58230000Y53420000D03*
X58230000Y52920000D03*
D42*
X59905000Y51245000D03*
X60405000Y51245000D03*
X60905000Y51245000D03*
X61405000Y51245000D03*
X61905000Y51245000D03*
X62405000Y51245000D03*
X62905000Y51245000D03*
X63405000Y51245000D03*
X63905000Y51245000D03*
X64405000Y51245000D03*
X64905000Y51245000D03*
X65405000Y51245000D03*
X65905000Y51245000D03*
X66405000Y51245000D03*
X66905000Y51245000D03*
X67405000Y51245000D03*
X67905000Y51245000D03*
X68405000Y51245000D03*
X68905000Y51245000D03*
X69405000Y51245000D03*
X69905000Y51245000D03*
X70405000Y51245000D03*
X70905000Y51245000D03*
X71405000Y51245000D03*
X71905000Y51245000D03*
%TD*%
D41*
%TO.C,U3*%
X73580000Y13050000D03*
X73580000Y13550000D03*
X73580000Y14050000D03*
X73580000Y14550000D03*
X73580000Y15050000D03*
X73580000Y15550000D03*
X73580000Y16050000D03*
X73580000Y16550000D03*
X73580000Y17050000D03*
X73580000Y17550000D03*
X73580000Y18050000D03*
X73580000Y18550000D03*
X73580000Y19050000D03*
X73580000Y19550000D03*
X73580000Y20050000D03*
X73580000Y20550000D03*
X73580000Y21050000D03*
X73580000Y21550000D03*
X73580000Y22050000D03*
X73580000Y22550000D03*
X73580000Y23050000D03*
X73580000Y23550000D03*
X73580000Y24050000D03*
X73580000Y24550000D03*
X73580000Y25050000D03*
D42*
X71905000Y26725000D03*
X71405000Y26725000D03*
X70905000Y26725000D03*
X70405000Y26725000D03*
X69905000Y26725000D03*
X69405000Y26725000D03*
X68905000Y26725000D03*
X68405000Y26725000D03*
X67905000Y26725000D03*
X67405000Y26725000D03*
X66905000Y26725000D03*
X66405000Y26725000D03*
X65905000Y26725000D03*
X65405000Y26725000D03*
X64905000Y26725000D03*
X64405000Y26725000D03*
X63905000Y26725000D03*
X63405000Y26725000D03*
X62905000Y26725000D03*
X62405000Y26725000D03*
X61905000Y26725000D03*
X61405000Y26725000D03*
X60905000Y26725000D03*
X60405000Y26725000D03*
X59905000Y26725000D03*
D41*
X58230000Y25050000D03*
X58230000Y24550000D03*
X58230000Y24050000D03*
X58230000Y23550000D03*
X58230000Y23050000D03*
X58230000Y22550000D03*
X58230000Y22050000D03*
X58230000Y21550000D03*
X58230000Y21050000D03*
X58230000Y20550000D03*
X58230000Y20050000D03*
X58230000Y19550000D03*
X58230000Y19050000D03*
X58230000Y18550000D03*
X58230000Y18050000D03*
X58230000Y17550000D03*
X58230000Y17050000D03*
X58230000Y16550000D03*
X58230000Y16050000D03*
X58230000Y15550000D03*
X58230000Y15050000D03*
X58230000Y14550000D03*
X58230000Y14050000D03*
X58230000Y13550000D03*
X58230000Y13050000D03*
D42*
X59905000Y11375000D03*
X60405000Y11375000D03*
X60905000Y11375000D03*
X61405000Y11375000D03*
X61905000Y11375000D03*
X62405000Y11375000D03*
X62905000Y11375000D03*
X63405000Y11375000D03*
X63905000Y11375000D03*
X64405000Y11375000D03*
X64905000Y11375000D03*
X65405000Y11375000D03*
X65905000Y11375000D03*
X66405000Y11375000D03*
X66905000Y11375000D03*
X67405000Y11375000D03*
X67905000Y11375000D03*
X68405000Y11375000D03*
X68905000Y11375000D03*
X69405000Y11375000D03*
X69905000Y11375000D03*
X70405000Y11375000D03*
X70905000Y11375000D03*
X71405000Y11375000D03*
X71905000Y11375000D03*
%TD*%
D41*
%TO.C,U3*%
X28630000Y92790000D03*
X28630000Y93290000D03*
X28630000Y93790000D03*
X28630000Y94290000D03*
X28630000Y94790000D03*
X28630000Y95290000D03*
X28630000Y95790000D03*
X28630000Y96290000D03*
X28630000Y96790000D03*
X28630000Y97290000D03*
X28630000Y97790000D03*
X28630000Y98290000D03*
X28630000Y98790000D03*
X28630000Y99290000D03*
X28630000Y99790000D03*
X28630000Y100290000D03*
X28630000Y100790000D03*
X28630000Y101290000D03*
X28630000Y101790000D03*
X28630000Y102290000D03*
X28630000Y102790000D03*
X28630000Y103290000D03*
X28630000Y103790000D03*
X28630000Y104290000D03*
X28630000Y104790000D03*
D42*
X26955000Y106465000D03*
X26455000Y106465000D03*
X25955000Y106465000D03*
X25455000Y106465000D03*
X24955000Y106465000D03*
X24455000Y106465000D03*
X23955000Y106465000D03*
X23455000Y106465000D03*
X22955000Y106465000D03*
X22455000Y106465000D03*
X21955000Y106465000D03*
X21455000Y106465000D03*
X20955000Y106465000D03*
X20455000Y106465000D03*
X19955000Y106465000D03*
X19455000Y106465000D03*
X18955000Y106465000D03*
X18455000Y106465000D03*
X17955000Y106465000D03*
X17455000Y106465000D03*
X16955000Y106465000D03*
X16455000Y106465000D03*
X15955000Y106465000D03*
X15455000Y106465000D03*
X14955000Y106465000D03*
D41*
X13280000Y104790000D03*
X13280000Y104290000D03*
X13280000Y103790000D03*
X13280000Y103290000D03*
X13280000Y102790000D03*
X13280000Y102290000D03*
X13280000Y101790000D03*
X13280000Y101290000D03*
X13280000Y100790000D03*
X13280000Y100290000D03*
X13280000Y99790000D03*
X13280000Y99290000D03*
X13280000Y98790000D03*
X13280000Y98290000D03*
X13280000Y97790000D03*
X13280000Y97290000D03*
X13280000Y96790000D03*
X13280000Y96290000D03*
X13280000Y95790000D03*
X13280000Y95290000D03*
X13280000Y94790000D03*
X13280000Y94290000D03*
X13280000Y93790000D03*
X13280000Y93290000D03*
X13280000Y92790000D03*
D42*
X14955000Y91115000D03*
X15455000Y91115000D03*
X15955000Y91115000D03*
X16455000Y91115000D03*
X16955000Y91115000D03*
X17455000Y91115000D03*
X17955000Y91115000D03*
X18455000Y91115000D03*
X18955000Y91115000D03*
X19455000Y91115000D03*
X19955000Y91115000D03*
X20455000Y91115000D03*
X20955000Y91115000D03*
X21455000Y91115000D03*
X21955000Y91115000D03*
X22455000Y91115000D03*
X22955000Y91115000D03*
X23455000Y91115000D03*
X23955000Y91115000D03*
X24455000Y91115000D03*
X24955000Y91115000D03*
X25455000Y91115000D03*
X25955000Y91115000D03*
X26455000Y91115000D03*
X26955000Y91115000D03*
%TD*%
D41*
%TO.C,U3*%
X28630000Y52920000D03*
X28630000Y53420000D03*
X28630000Y53920000D03*
X28630000Y54420000D03*
X28630000Y54920000D03*
X28630000Y55420000D03*
X28630000Y55920000D03*
X28630000Y56420000D03*
X28630000Y56920000D03*
X28630000Y57420000D03*
X28630000Y57920000D03*
X28630000Y58420000D03*
X28630000Y58920000D03*
X28630000Y59420000D03*
X28630000Y59920000D03*
X28630000Y60420000D03*
X28630000Y60920000D03*
X28630000Y61420000D03*
X28630000Y61920000D03*
X28630000Y62420000D03*
X28630000Y62920000D03*
X28630000Y63420000D03*
X28630000Y63920000D03*
X28630000Y64420000D03*
X28630000Y64920000D03*
D42*
X26955000Y66595000D03*
X26455000Y66595000D03*
X25955000Y66595000D03*
X25455000Y66595000D03*
X24955000Y66595000D03*
X24455000Y66595000D03*
X23955000Y66595000D03*
X23455000Y66595000D03*
X22955000Y66595000D03*
X22455000Y66595000D03*
X21955000Y66595000D03*
X21455000Y66595000D03*
X20955000Y66595000D03*
X20455000Y66595000D03*
X19955000Y66595000D03*
X19455000Y66595000D03*
X18955000Y66595000D03*
X18455000Y66595000D03*
X17955000Y66595000D03*
X17455000Y66595000D03*
X16955000Y66595000D03*
X16455000Y66595000D03*
X15955000Y66595000D03*
X15455000Y66595000D03*
X14955000Y66595000D03*
D41*
X13280000Y64920000D03*
X13280000Y64420000D03*
X13280000Y63920000D03*
X13280000Y63420000D03*
X13280000Y62920000D03*
X13280000Y62420000D03*
X13280000Y61920000D03*
X13280000Y61420000D03*
X13280000Y60920000D03*
X13280000Y60420000D03*
X13280000Y59920000D03*
X13280000Y59420000D03*
X13280000Y58920000D03*
X13280000Y58420000D03*
X13280000Y57920000D03*
X13280000Y57420000D03*
X13280000Y56920000D03*
X13280000Y56420000D03*
X13280000Y55920000D03*
X13280000Y55420000D03*
X13280000Y54920000D03*
X13280000Y54420000D03*
X13280000Y53920000D03*
X13280000Y53420000D03*
X13280000Y52920000D03*
D42*
X14955000Y51245000D03*
X15455000Y51245000D03*
X15955000Y51245000D03*
X16455000Y51245000D03*
X16955000Y51245000D03*
X17455000Y51245000D03*
X17955000Y51245000D03*
X18455000Y51245000D03*
X18955000Y51245000D03*
X19455000Y51245000D03*
X19955000Y51245000D03*
X20455000Y51245000D03*
X20955000Y51245000D03*
X21455000Y51245000D03*
X21955000Y51245000D03*
X22455000Y51245000D03*
X22955000Y51245000D03*
X23455000Y51245000D03*
X23955000Y51245000D03*
X24455000Y51245000D03*
X24955000Y51245000D03*
X25455000Y51245000D03*
X25955000Y51245000D03*
X26455000Y51245000D03*
X26955000Y51245000D03*
%TD*%
D19*
%TO.C,R1*%
X96885000Y84310000D03*
X96885000Y85330000D03*
%TD*%
%TO.C,R1*%
X96885000Y44440000D03*
X96885000Y45460000D03*
%TD*%
%TO.C,R1*%
X96885000Y4570000D03*
X96885000Y5590000D03*
%TD*%
%TO.C,R1*%
X51935000Y84310000D03*
X51935000Y85330000D03*
%TD*%
%TO.C,R1*%
X51935000Y44440000D03*
X51935000Y45460000D03*
%TD*%
%TO.C,R1*%
X51935000Y4570000D03*
X51935000Y5590000D03*
%TD*%
%TO.C,R1*%
X6985000Y84310000D03*
X6985000Y85330000D03*
%TD*%
%TO.C,R1*%
X6985000Y44440000D03*
X6985000Y45460000D03*
%TD*%
D38*
%TO.C,C16*%
X131175000Y89745000D03*
X131175000Y88785000D03*
%TD*%
%TO.C,C16*%
X131175000Y49875000D03*
X131175000Y48915000D03*
%TD*%
%TO.C,C16*%
X131175000Y10005000D03*
X131175000Y9045000D03*
%TD*%
%TO.C,C16*%
X86225000Y89745000D03*
X86225000Y88785000D03*
%TD*%
%TO.C,C16*%
X86225000Y49875000D03*
X86225000Y48915000D03*
%TD*%
%TO.C,C16*%
X86225000Y10005000D03*
X86225000Y9045000D03*
%TD*%
%TO.C,C16*%
X41275000Y89745000D03*
X41275000Y88785000D03*
%TD*%
%TO.C,C16*%
X41275000Y49875000D03*
X41275000Y48915000D03*
%TD*%
D19*
%TO.C,R17*%
X102600000Y109075000D03*
X102600000Y110095000D03*
%TD*%
%TO.C,R17*%
X102600000Y69205000D03*
X102600000Y70225000D03*
%TD*%
%TO.C,R17*%
X102600000Y29335000D03*
X102600000Y30355000D03*
%TD*%
%TO.C,R17*%
X57650000Y109075000D03*
X57650000Y110095000D03*
%TD*%
%TO.C,R17*%
X57650000Y69205000D03*
X57650000Y70225000D03*
%TD*%
%TO.C,R17*%
X57650000Y29335000D03*
X57650000Y30355000D03*
%TD*%
%TO.C,R17*%
X12700000Y109075000D03*
X12700000Y110095000D03*
%TD*%
%TO.C,R17*%
X12700000Y69205000D03*
X12700000Y70225000D03*
%TD*%
D43*
%TO.C,R25*%
X91930000Y95615000D03*
X92950000Y95615000D03*
%TD*%
%TO.C,R25*%
X91930000Y55745000D03*
X92950000Y55745000D03*
%TD*%
%TO.C,R25*%
X91930000Y15875000D03*
X92950000Y15875000D03*
%TD*%
%TO.C,R25*%
X46980000Y95615000D03*
X48000000Y95615000D03*
%TD*%
%TO.C,R25*%
X46980000Y55745000D03*
X48000000Y55745000D03*
%TD*%
%TO.C,R25*%
X46980000Y15875000D03*
X48000000Y15875000D03*
%TD*%
%TO.C,R25*%
X2030000Y95615000D03*
X3050000Y95615000D03*
%TD*%
%TO.C,R25*%
X2030000Y55745000D03*
X3050000Y55745000D03*
%TD*%
D15*
%TO.C,C26*%
X91960000Y102600000D03*
X92920000Y102600000D03*
%TD*%
%TO.C,C26*%
X91960000Y62730000D03*
X92920000Y62730000D03*
%TD*%
%TO.C,C26*%
X91960000Y22860000D03*
X92920000Y22860000D03*
%TD*%
%TO.C,C26*%
X47010000Y102600000D03*
X47970000Y102600000D03*
%TD*%
%TO.C,C26*%
X47010000Y62730000D03*
X47970000Y62730000D03*
%TD*%
%TO.C,C26*%
X47010000Y22860000D03*
X47970000Y22860000D03*
%TD*%
%TO.C,C26*%
X2060000Y102600000D03*
X3020000Y102600000D03*
%TD*%
%TO.C,C26*%
X2060000Y62730000D03*
X3020000Y62730000D03*
%TD*%
D11*
%TO.C,FID1*%
X128000000Y116570000D03*
%TD*%
%TO.C,FID1*%
X128000000Y76700000D03*
%TD*%
%TO.C,FID1*%
X128000000Y36830000D03*
%TD*%
%TO.C,FID1*%
X83050000Y116570000D03*
%TD*%
%TO.C,FID1*%
X83050000Y76700000D03*
%TD*%
%TO.C,FID1*%
X83050000Y36830000D03*
%TD*%
%TO.C,FID1*%
X38100000Y116570000D03*
%TD*%
%TO.C,FID1*%
X38100000Y76700000D03*
%TD*%
D38*
%TO.C,C24*%
X129270000Y109430000D03*
X129270000Y108470000D03*
%TD*%
%TO.C,C24*%
X129270000Y69560000D03*
X129270000Y68600000D03*
%TD*%
%TO.C,C24*%
X129270000Y29690000D03*
X129270000Y28730000D03*
%TD*%
%TO.C,C24*%
X84320000Y109430000D03*
X84320000Y108470000D03*
%TD*%
%TO.C,C24*%
X84320000Y69560000D03*
X84320000Y68600000D03*
%TD*%
%TO.C,C24*%
X84320000Y29690000D03*
X84320000Y28730000D03*
%TD*%
%TO.C,C24*%
X39370000Y109430000D03*
X39370000Y108470000D03*
%TD*%
%TO.C,C24*%
X39370000Y69560000D03*
X39370000Y68600000D03*
%TD*%
D16*
%TO.C,R21*%
X128000000Y105650000D03*
X128000000Y104630000D03*
%TD*%
%TO.C,R21*%
X128000000Y65780000D03*
X128000000Y64760000D03*
%TD*%
%TO.C,R21*%
X128000000Y25910000D03*
X128000000Y24890000D03*
%TD*%
%TO.C,R21*%
X83050000Y105650000D03*
X83050000Y104630000D03*
%TD*%
%TO.C,R21*%
X83050000Y65780000D03*
X83050000Y64760000D03*
%TD*%
%TO.C,R21*%
X83050000Y25910000D03*
X83050000Y24890000D03*
%TD*%
%TO.C,R21*%
X38100000Y105650000D03*
X38100000Y104630000D03*
%TD*%
%TO.C,R21*%
X38100000Y65780000D03*
X38100000Y64760000D03*
%TD*%
D13*
%TO.C,C8*%
X105140000Y109105000D03*
X105140000Y110065000D03*
%TD*%
%TO.C,C8*%
X105140000Y69235000D03*
X105140000Y70195000D03*
%TD*%
%TO.C,C8*%
X105140000Y29365000D03*
X105140000Y30325000D03*
%TD*%
%TO.C,C8*%
X60190000Y109105000D03*
X60190000Y110065000D03*
%TD*%
%TO.C,C8*%
X60190000Y69235000D03*
X60190000Y70195000D03*
%TD*%
%TO.C,C8*%
X60190000Y29365000D03*
X60190000Y30325000D03*
%TD*%
%TO.C,C8*%
X15240000Y109105000D03*
X15240000Y110065000D03*
%TD*%
%TO.C,C8*%
X15240000Y69235000D03*
X15240000Y70195000D03*
%TD*%
D12*
%TO.C,R24*%
X97395000Y103870000D03*
X96375000Y103870000D03*
%TD*%
%TO.C,R24*%
X97395000Y64000000D03*
X96375000Y64000000D03*
%TD*%
%TO.C,R24*%
X97395000Y24130000D03*
X96375000Y24130000D03*
%TD*%
%TO.C,R24*%
X52445000Y103870000D03*
X51425000Y103870000D03*
%TD*%
%TO.C,R24*%
X52445000Y64000000D03*
X51425000Y64000000D03*
%TD*%
%TO.C,R24*%
X52445000Y24130000D03*
X51425000Y24130000D03*
%TD*%
%TO.C,R24*%
X7495000Y103870000D03*
X6475000Y103870000D03*
%TD*%
%TO.C,R24*%
X7495000Y64000000D03*
X6475000Y64000000D03*
%TD*%
D27*
%TO.C,ST1*%
X92440000Y82280000D03*
%TD*%
%TO.C,ST1*%
X92440000Y42410000D03*
%TD*%
%TO.C,ST1*%
X92440000Y2540000D03*
%TD*%
%TO.C,ST1*%
X47490000Y82280000D03*
%TD*%
%TO.C,ST1*%
X47490000Y42410000D03*
%TD*%
%TO.C,ST1*%
X47490000Y2540000D03*
%TD*%
%TO.C,ST1*%
X2540000Y82280000D03*
%TD*%
%TO.C,ST1*%
X2540000Y42410000D03*
%TD*%
D37*
%TO.C,C12*%
X122765000Y101965000D03*
X121805000Y101965000D03*
%TD*%
%TO.C,C12*%
X122765000Y62095000D03*
X121805000Y62095000D03*
%TD*%
%TO.C,C12*%
X122765000Y22225000D03*
X121805000Y22225000D03*
%TD*%
%TO.C,C12*%
X77815000Y101965000D03*
X76855000Y101965000D03*
%TD*%
%TO.C,C12*%
X77815000Y62095000D03*
X76855000Y62095000D03*
%TD*%
%TO.C,C12*%
X77815000Y22225000D03*
X76855000Y22225000D03*
%TD*%
%TO.C,C12*%
X32865000Y101965000D03*
X31905000Y101965000D03*
%TD*%
%TO.C,C12*%
X32865000Y62095000D03*
X31905000Y62095000D03*
%TD*%
D27*
%TO.C,ST2*%
X131810000Y82280000D03*
%TD*%
%TO.C,ST2*%
X131810000Y42410000D03*
%TD*%
%TO.C,ST2*%
X131810000Y2540000D03*
%TD*%
%TO.C,ST2*%
X86860000Y82280000D03*
%TD*%
%TO.C,ST2*%
X86860000Y42410000D03*
%TD*%
%TO.C,ST2*%
X86860000Y2540000D03*
%TD*%
%TO.C,ST2*%
X41910000Y82280000D03*
%TD*%
%TO.C,ST2*%
X41910000Y42410000D03*
%TD*%
D13*
%TO.C,C9*%
X114665000Y108470000D03*
X114665000Y109430000D03*
%TD*%
%TO.C,C9*%
X114665000Y68600000D03*
X114665000Y69560000D03*
%TD*%
%TO.C,C9*%
X114665000Y28730000D03*
X114665000Y29690000D03*
%TD*%
%TO.C,C9*%
X69715000Y108470000D03*
X69715000Y109430000D03*
%TD*%
%TO.C,C9*%
X69715000Y68600000D03*
X69715000Y69560000D03*
%TD*%
%TO.C,C9*%
X69715000Y28730000D03*
X69715000Y29690000D03*
%TD*%
%TO.C,C9*%
X24765000Y108470000D03*
X24765000Y109430000D03*
%TD*%
%TO.C,C9*%
X24765000Y68600000D03*
X24765000Y69560000D03*
%TD*%
D44*
%TO.C,J1*%
X123555000Y81010000D03*
X126095000Y81010000D03*
%TD*%
%TO.C,J1*%
X123555000Y41140000D03*
X126095000Y41140000D03*
%TD*%
%TO.C,J1*%
X123555000Y1270000D03*
X126095000Y1270000D03*
%TD*%
%TO.C,J1*%
X78605000Y81010000D03*
X81145000Y81010000D03*
%TD*%
%TO.C,J1*%
X78605000Y41140000D03*
X81145000Y41140000D03*
%TD*%
%TO.C,J1*%
X78605000Y1270000D03*
X81145000Y1270000D03*
%TD*%
%TO.C,J1*%
X33655000Y81010000D03*
X36195000Y81010000D03*
%TD*%
%TO.C,J1*%
X33655000Y41140000D03*
X36195000Y41140000D03*
%TD*%
D37*
%TO.C,C21*%
X131020000Y100060000D03*
X130060000Y100060000D03*
%TD*%
%TO.C,C21*%
X131020000Y60190000D03*
X130060000Y60190000D03*
%TD*%
%TO.C,C21*%
X131020000Y20320000D03*
X130060000Y20320000D03*
%TD*%
%TO.C,C21*%
X86070000Y100060000D03*
X85110000Y100060000D03*
%TD*%
%TO.C,C21*%
X86070000Y60190000D03*
X85110000Y60190000D03*
%TD*%
%TO.C,C21*%
X86070000Y20320000D03*
X85110000Y20320000D03*
%TD*%
%TO.C,C21*%
X41120000Y100060000D03*
X40160000Y100060000D03*
%TD*%
%TO.C,C21*%
X41120000Y60190000D03*
X40160000Y60190000D03*
%TD*%
D19*
%TO.C,R2*%
X117840000Y83675000D03*
X117840000Y84695000D03*
%TD*%
%TO.C,R2*%
X117840000Y43805000D03*
X117840000Y44825000D03*
%TD*%
%TO.C,R2*%
X117840000Y3935000D03*
X117840000Y4955000D03*
%TD*%
%TO.C,R2*%
X72890000Y83675000D03*
X72890000Y84695000D03*
%TD*%
%TO.C,R2*%
X72890000Y43805000D03*
X72890000Y44825000D03*
%TD*%
%TO.C,R2*%
X72890000Y3935000D03*
X72890000Y4955000D03*
%TD*%
%TO.C,R2*%
X27940000Y83675000D03*
X27940000Y84695000D03*
%TD*%
%TO.C,R2*%
X27940000Y43805000D03*
X27940000Y44825000D03*
%TD*%
D45*
%TO.C,U2*%
X123524900Y87040000D03*
X123524900Y86090000D03*
X123524900Y85140000D03*
X126125100Y85140000D03*
X126125100Y87040000D03*
%TD*%
%TO.C,U2*%
X123524900Y47170000D03*
X123524900Y46220000D03*
X123524900Y45270000D03*
X126125100Y45270000D03*
X126125100Y47170000D03*
%TD*%
%TO.C,U2*%
X123524900Y7300000D03*
X123524900Y6350000D03*
X123524900Y5400000D03*
X126125100Y5400000D03*
X126125100Y7300000D03*
%TD*%
%TO.C,U2*%
X78574900Y87040000D03*
X78574900Y86090000D03*
X78574900Y85140000D03*
X81175100Y85140000D03*
X81175100Y87040000D03*
%TD*%
%TO.C,U2*%
X78574900Y47170000D03*
X78574900Y46220000D03*
X78574900Y45270000D03*
X81175100Y45270000D03*
X81175100Y47170000D03*
%TD*%
%TO.C,U2*%
X78574900Y7300000D03*
X78574900Y6350000D03*
X78574900Y5400000D03*
X81175100Y5400000D03*
X81175100Y7300000D03*
%TD*%
%TO.C,U2*%
X33624900Y87040000D03*
X33624900Y86090000D03*
X33624900Y85140000D03*
X36225100Y85140000D03*
X36225100Y87040000D03*
%TD*%
%TO.C,U2*%
X33624900Y47170000D03*
X33624900Y46220000D03*
X33624900Y45270000D03*
X36225100Y45270000D03*
X36225100Y47170000D03*
%TD*%
D38*
%TO.C,C22*%
X129905000Y89745000D03*
X129905000Y88785000D03*
%TD*%
%TO.C,C22*%
X129905000Y49875000D03*
X129905000Y48915000D03*
%TD*%
%TO.C,C22*%
X129905000Y10005000D03*
X129905000Y9045000D03*
%TD*%
%TO.C,C22*%
X84955000Y89745000D03*
X84955000Y88785000D03*
%TD*%
%TO.C,C22*%
X84955000Y49875000D03*
X84955000Y48915000D03*
%TD*%
%TO.C,C22*%
X84955000Y10005000D03*
X84955000Y9045000D03*
%TD*%
%TO.C,C22*%
X40005000Y89745000D03*
X40005000Y88785000D03*
%TD*%
%TO.C,C22*%
X40005000Y49875000D03*
X40005000Y48915000D03*
%TD*%
D44*
%TO.C,J6*%
X114665000Y116570000D03*
X112125000Y116570000D03*
X109585000Y116570000D03*
X107045000Y116570000D03*
X104505000Y116570000D03*
X101965000Y116570000D03*
X99425000Y116570000D03*
X96885000Y116570000D03*
%TD*%
%TO.C,J6*%
X114665000Y76700000D03*
X112125000Y76700000D03*
X109585000Y76700000D03*
X107045000Y76700000D03*
X104505000Y76700000D03*
X101965000Y76700000D03*
X99425000Y76700000D03*
X96885000Y76700000D03*
%TD*%
%TO.C,J6*%
X114665000Y36830000D03*
X112125000Y36830000D03*
X109585000Y36830000D03*
X107045000Y36830000D03*
X104505000Y36830000D03*
X101965000Y36830000D03*
X99425000Y36830000D03*
X96885000Y36830000D03*
%TD*%
%TO.C,J6*%
X69715000Y116570000D03*
X67175000Y116570000D03*
X64635000Y116570000D03*
X62095000Y116570000D03*
X59555000Y116570000D03*
X57015000Y116570000D03*
X54475000Y116570000D03*
X51935000Y116570000D03*
%TD*%
%TO.C,J6*%
X69715000Y76700000D03*
X67175000Y76700000D03*
X64635000Y76700000D03*
X62095000Y76700000D03*
X59555000Y76700000D03*
X57015000Y76700000D03*
X54475000Y76700000D03*
X51935000Y76700000D03*
%TD*%
%TO.C,J6*%
X69715000Y36830000D03*
X67175000Y36830000D03*
X64635000Y36830000D03*
X62095000Y36830000D03*
X59555000Y36830000D03*
X57015000Y36830000D03*
X54475000Y36830000D03*
X51935000Y36830000D03*
%TD*%
%TO.C,J6*%
X24765000Y116570000D03*
X22225000Y116570000D03*
X19685000Y116570000D03*
X17145000Y116570000D03*
X14605000Y116570000D03*
X12065000Y116570000D03*
X9525000Y116570000D03*
X6985000Y116570000D03*
%TD*%
%TO.C,J6*%
X24765000Y76700000D03*
X22225000Y76700000D03*
X19685000Y76700000D03*
X17145000Y76700000D03*
X14605000Y76700000D03*
X12065000Y76700000D03*
X9525000Y76700000D03*
X6985000Y76700000D03*
%TD*%
%TO.C,J9*%
X114665000Y114030000D03*
X112125000Y114030000D03*
X109585000Y114030000D03*
X107045000Y114030000D03*
%TD*%
%TO.C,J9*%
X114665000Y74160000D03*
X112125000Y74160000D03*
X109585000Y74160000D03*
X107045000Y74160000D03*
%TD*%
%TO.C,J9*%
X114665000Y34290000D03*
X112125000Y34290000D03*
X109585000Y34290000D03*
X107045000Y34290000D03*
%TD*%
%TO.C,J9*%
X69715000Y114030000D03*
X67175000Y114030000D03*
X64635000Y114030000D03*
X62095000Y114030000D03*
%TD*%
%TO.C,J9*%
X69715000Y74160000D03*
X67175000Y74160000D03*
X64635000Y74160000D03*
X62095000Y74160000D03*
%TD*%
%TO.C,J9*%
X69715000Y34290000D03*
X67175000Y34290000D03*
X64635000Y34290000D03*
X62095000Y34290000D03*
%TD*%
%TO.C,J9*%
X24765000Y114030000D03*
X22225000Y114030000D03*
X19685000Y114030000D03*
X17145000Y114030000D03*
%TD*%
%TO.C,J9*%
X24765000Y74160000D03*
X22225000Y74160000D03*
X19685000Y74160000D03*
X17145000Y74160000D03*
%TD*%
D27*
%TO.C,ST3*%
X131810000Y115300000D03*
%TD*%
%TO.C,ST3*%
X131810000Y75430000D03*
%TD*%
%TO.C,ST3*%
X131810000Y35560000D03*
%TD*%
%TO.C,ST3*%
X86860000Y115300000D03*
%TD*%
%TO.C,ST3*%
X86860000Y75430000D03*
%TD*%
%TO.C,ST3*%
X86860000Y35560000D03*
%TD*%
%TO.C,ST3*%
X41910000Y115300000D03*
%TD*%
%TO.C,ST3*%
X41910000Y75430000D03*
%TD*%
D46*
%TO.C,D4*%
X100695000Y108162500D03*
X100695000Y109737500D03*
%TD*%
%TO.C,D4*%
X100695000Y68292500D03*
X100695000Y69867500D03*
%TD*%
%TO.C,D4*%
X100695000Y28422500D03*
X100695000Y29997500D03*
%TD*%
%TO.C,D4*%
X55745000Y108162500D03*
X55745000Y109737500D03*
%TD*%
%TO.C,D4*%
X55745000Y68292500D03*
X55745000Y69867500D03*
%TD*%
%TO.C,D4*%
X55745000Y28422500D03*
X55745000Y29997500D03*
%TD*%
%TO.C,D4*%
X10795000Y108162500D03*
X10795000Y109737500D03*
%TD*%
%TO.C,D4*%
X10795000Y68292500D03*
X10795000Y69867500D03*
%TD*%
D38*
%TO.C,C2*%
X128000000Y86570000D03*
X128000000Y85610000D03*
%TD*%
%TO.C,C2*%
X128000000Y46700000D03*
X128000000Y45740000D03*
%TD*%
%TO.C,C2*%
X128000000Y6830000D03*
X128000000Y5870000D03*
%TD*%
%TO.C,C2*%
X83050000Y86570000D03*
X83050000Y85610000D03*
%TD*%
%TO.C,C2*%
X83050000Y46700000D03*
X83050000Y45740000D03*
%TD*%
%TO.C,C2*%
X83050000Y6830000D03*
X83050000Y5870000D03*
%TD*%
%TO.C,C2*%
X38100000Y86570000D03*
X38100000Y85610000D03*
%TD*%
%TO.C,C2*%
X38100000Y46700000D03*
X38100000Y45740000D03*
%TD*%
D19*
%TO.C,R4*%
X119110000Y83675000D03*
X119110000Y84695000D03*
%TD*%
%TO.C,R4*%
X119110000Y43805000D03*
X119110000Y44825000D03*
%TD*%
%TO.C,R4*%
X119110000Y3935000D03*
X119110000Y4955000D03*
%TD*%
%TO.C,R4*%
X74160000Y83675000D03*
X74160000Y84695000D03*
%TD*%
%TO.C,R4*%
X74160000Y43805000D03*
X74160000Y44825000D03*
%TD*%
%TO.C,R4*%
X74160000Y3935000D03*
X74160000Y4955000D03*
%TD*%
%TO.C,R4*%
X29210000Y83675000D03*
X29210000Y84695000D03*
%TD*%
%TO.C,R4*%
X29210000Y43805000D03*
X29210000Y44825000D03*
%TD*%
%TO.C,R3*%
X115300000Y83675000D03*
X115300000Y84695000D03*
%TD*%
%TO.C,R3*%
X115300000Y43805000D03*
X115300000Y44825000D03*
%TD*%
%TO.C,R3*%
X115300000Y3935000D03*
X115300000Y4955000D03*
%TD*%
%TO.C,R3*%
X70350000Y83675000D03*
X70350000Y84695000D03*
%TD*%
%TO.C,R3*%
X70350000Y43805000D03*
X70350000Y44825000D03*
%TD*%
%TO.C,R3*%
X70350000Y3935000D03*
X70350000Y4955000D03*
%TD*%
%TO.C,R3*%
X25400000Y83675000D03*
X25400000Y84695000D03*
%TD*%
%TO.C,R3*%
X25400000Y43805000D03*
X25400000Y44825000D03*
%TD*%
D38*
%TO.C,C13*%
X100060000Y92666000D03*
X100060000Y91706000D03*
%TD*%
%TO.C,C13*%
X100060000Y52796000D03*
X100060000Y51836000D03*
%TD*%
%TO.C,C13*%
X100060000Y12926000D03*
X100060000Y11966000D03*
%TD*%
%TO.C,C13*%
X55110000Y92666000D03*
X55110000Y91706000D03*
%TD*%
%TO.C,C13*%
X55110000Y52796000D03*
X55110000Y51836000D03*
%TD*%
%TO.C,C13*%
X55110000Y12926000D03*
X55110000Y11966000D03*
%TD*%
%TO.C,C13*%
X10160000Y92666000D03*
X10160000Y91706000D03*
%TD*%
%TO.C,C13*%
X10160000Y52796000D03*
X10160000Y51836000D03*
%TD*%
D37*
%TO.C,C15*%
X126575000Y103235000D03*
X125615000Y103235000D03*
%TD*%
%TO.C,C15*%
X126575000Y63365000D03*
X125615000Y63365000D03*
%TD*%
%TO.C,C15*%
X126575000Y23495000D03*
X125615000Y23495000D03*
%TD*%
%TO.C,C15*%
X81625000Y103235000D03*
X80665000Y103235000D03*
%TD*%
%TO.C,C15*%
X81625000Y63365000D03*
X80665000Y63365000D03*
%TD*%
%TO.C,C15*%
X81625000Y23495000D03*
X80665000Y23495000D03*
%TD*%
%TO.C,C15*%
X36675000Y103235000D03*
X35715000Y103235000D03*
%TD*%
%TO.C,C15*%
X36675000Y63365000D03*
X35715000Y63365000D03*
%TD*%
D43*
%TO.C,R8*%
X115374200Y89265000D03*
X116394200Y89265000D03*
%TD*%
%TO.C,R8*%
X115374200Y49395000D03*
X116394200Y49395000D03*
%TD*%
%TO.C,R8*%
X115374200Y9525000D03*
X116394200Y9525000D03*
%TD*%
%TO.C,R8*%
X70424200Y89265000D03*
X71444200Y89265000D03*
%TD*%
%TO.C,R8*%
X70424200Y49395000D03*
X71444200Y49395000D03*
%TD*%
%TO.C,R8*%
X70424200Y9525000D03*
X71444200Y9525000D03*
%TD*%
%TO.C,R8*%
X25474200Y89265000D03*
X26494200Y89265000D03*
%TD*%
%TO.C,R8*%
X25474200Y49395000D03*
X26494200Y49395000D03*
%TD*%
D38*
%TO.C,C1*%
X121650000Y86570000D03*
X121650000Y85610000D03*
%TD*%
%TO.C,C1*%
X121650000Y46700000D03*
X121650000Y45740000D03*
%TD*%
%TO.C,C1*%
X121650000Y6830000D03*
X121650000Y5870000D03*
%TD*%
%TO.C,C1*%
X76700000Y86570000D03*
X76700000Y85610000D03*
%TD*%
%TO.C,C1*%
X76700000Y46700000D03*
X76700000Y45740000D03*
%TD*%
%TO.C,C1*%
X76700000Y6830000D03*
X76700000Y5870000D03*
%TD*%
%TO.C,C1*%
X31750000Y86570000D03*
X31750000Y85610000D03*
%TD*%
%TO.C,C1*%
X31750000Y46700000D03*
X31750000Y45740000D03*
%TD*%
D47*
%TO.C,J7*%
X121005000Y110210000D03*
D48*
X119735000Y110210000D03*
X121005000Y111480000D03*
X119735000Y111480000D03*
X121005000Y112750000D03*
X119735000Y112750000D03*
X121005000Y114020000D03*
X119735000Y114020000D03*
X121005000Y115290000D03*
X119735000Y115290000D03*
%TD*%
D47*
%TO.C,J7*%
X121005000Y70340000D03*
D48*
X119735000Y70340000D03*
X121005000Y71610000D03*
X119735000Y71610000D03*
X121005000Y72880000D03*
X119735000Y72880000D03*
X121005000Y74150000D03*
X119735000Y74150000D03*
X121005000Y75420000D03*
X119735000Y75420000D03*
%TD*%
D47*
%TO.C,J7*%
X121005000Y30470000D03*
D48*
X119735000Y30470000D03*
X121005000Y31740000D03*
X119735000Y31740000D03*
X121005000Y33010000D03*
X119735000Y33010000D03*
X121005000Y34280000D03*
X119735000Y34280000D03*
X121005000Y35550000D03*
X119735000Y35550000D03*
%TD*%
D47*
%TO.C,J7*%
X76055000Y110210000D03*
D48*
X74785000Y110210000D03*
X76055000Y111480000D03*
X74785000Y111480000D03*
X76055000Y112750000D03*
X74785000Y112750000D03*
X76055000Y114020000D03*
X74785000Y114020000D03*
X76055000Y115290000D03*
X74785000Y115290000D03*
%TD*%
D47*
%TO.C,J7*%
X76055000Y70340000D03*
D48*
X74785000Y70340000D03*
X76055000Y71610000D03*
X74785000Y71610000D03*
X76055000Y72880000D03*
X74785000Y72880000D03*
X76055000Y74150000D03*
X74785000Y74150000D03*
X76055000Y75420000D03*
X74785000Y75420000D03*
%TD*%
D47*
%TO.C,J7*%
X76055000Y30470000D03*
D48*
X74785000Y30470000D03*
X76055000Y31740000D03*
X74785000Y31740000D03*
X76055000Y33010000D03*
X74785000Y33010000D03*
X76055000Y34280000D03*
X74785000Y34280000D03*
X76055000Y35550000D03*
X74785000Y35550000D03*
%TD*%
D47*
%TO.C,J7*%
X31105000Y110210000D03*
D48*
X29835000Y110210000D03*
X31105000Y111480000D03*
X29835000Y111480000D03*
X31105000Y112750000D03*
X29835000Y112750000D03*
X31105000Y114020000D03*
X29835000Y114020000D03*
X31105000Y115290000D03*
X29835000Y115290000D03*
%TD*%
D47*
%TO.C,J7*%
X31105000Y70340000D03*
D48*
X29835000Y70340000D03*
X31105000Y71610000D03*
X29835000Y71610000D03*
X31105000Y72880000D03*
X29835000Y72880000D03*
X31105000Y74150000D03*
X29835000Y74150000D03*
X31105000Y75420000D03*
X29835000Y75420000D03*
%TD*%
D13*
%TO.C,C5*%
X115935000Y108470000D03*
X115935000Y109430000D03*
%TD*%
%TO.C,C5*%
X115935000Y68600000D03*
X115935000Y69560000D03*
%TD*%
%TO.C,C5*%
X115935000Y28730000D03*
X115935000Y29690000D03*
%TD*%
%TO.C,C5*%
X70985000Y108470000D03*
X70985000Y109430000D03*
%TD*%
%TO.C,C5*%
X70985000Y68600000D03*
X70985000Y69560000D03*
%TD*%
%TO.C,C5*%
X70985000Y28730000D03*
X70985000Y29690000D03*
%TD*%
%TO.C,C5*%
X26035000Y108470000D03*
X26035000Y109430000D03*
%TD*%
%TO.C,C5*%
X26035000Y68600000D03*
X26035000Y69560000D03*
%TD*%
D44*
%TO.C,J8*%
X133080000Y104505000D03*
X133080000Y107045000D03*
X133080000Y109585000D03*
%TD*%
%TO.C,J8*%
X133080000Y64635000D03*
X133080000Y67175000D03*
X133080000Y69715000D03*
%TD*%
%TO.C,J8*%
X133080000Y24765000D03*
X133080000Y27305000D03*
X133080000Y29845000D03*
%TD*%
%TO.C,J8*%
X88130000Y104505000D03*
X88130000Y107045000D03*
X88130000Y109585000D03*
%TD*%
%TO.C,J8*%
X88130000Y64635000D03*
X88130000Y67175000D03*
X88130000Y69715000D03*
%TD*%
%TO.C,J8*%
X88130000Y24765000D03*
X88130000Y27305000D03*
X88130000Y29845000D03*
%TD*%
%TO.C,J8*%
X43180000Y104505000D03*
X43180000Y107045000D03*
X43180000Y109585000D03*
%TD*%
%TO.C,J8*%
X43180000Y64635000D03*
X43180000Y67175000D03*
X43180000Y69715000D03*
%TD*%
D46*
%TO.C,D3*%
X98790000Y108162500D03*
X98790000Y109737500D03*
%TD*%
%TO.C,D3*%
X98790000Y68292500D03*
X98790000Y69867500D03*
%TD*%
%TO.C,D3*%
X98790000Y28422500D03*
X98790000Y29997500D03*
%TD*%
%TO.C,D3*%
X53840000Y108162500D03*
X53840000Y109737500D03*
%TD*%
%TO.C,D3*%
X53840000Y68292500D03*
X53840000Y69867500D03*
%TD*%
%TO.C,D3*%
X53840000Y28422500D03*
X53840000Y29997500D03*
%TD*%
%TO.C,D3*%
X8890000Y108162500D03*
X8890000Y109737500D03*
%TD*%
%TO.C,D3*%
X8890000Y68292500D03*
X8890000Y69867500D03*
%TD*%
D16*
%TO.C,R6*%
X98790000Y112000000D03*
X98790000Y110980000D03*
%TD*%
%TO.C,R6*%
X98790000Y72130000D03*
X98790000Y71110000D03*
%TD*%
%TO.C,R6*%
X98790000Y32260000D03*
X98790000Y31240000D03*
%TD*%
%TO.C,R6*%
X53840000Y112000000D03*
X53840000Y110980000D03*
%TD*%
%TO.C,R6*%
X53840000Y72130000D03*
X53840000Y71110000D03*
%TD*%
%TO.C,R6*%
X53840000Y32260000D03*
X53840000Y31240000D03*
%TD*%
%TO.C,R6*%
X8890000Y112000000D03*
X8890000Y110980000D03*
%TD*%
%TO.C,R6*%
X8890000Y72130000D03*
X8890000Y71110000D03*
%TD*%
%TO.C,R6*%
X8890000Y32260000D03*
X8890000Y31240000D03*
%TD*%
D46*
%TO.C,D3*%
X8890000Y28422500D03*
X8890000Y29997500D03*
%TD*%
D44*
%TO.C,J8*%
X43180000Y24765000D03*
X43180000Y27305000D03*
X43180000Y29845000D03*
%TD*%
D13*
%TO.C,C5*%
X26035000Y28730000D03*
X26035000Y29690000D03*
%TD*%
D47*
%TO.C,J7*%
X31105000Y30470000D03*
D48*
X29835000Y30470000D03*
X31105000Y31740000D03*
X29835000Y31740000D03*
X31105000Y33010000D03*
X29835000Y33010000D03*
X31105000Y34280000D03*
X29835000Y34280000D03*
X31105000Y35550000D03*
X29835000Y35550000D03*
%TD*%
D38*
%TO.C,C1*%
X31750000Y6830000D03*
X31750000Y5870000D03*
%TD*%
D43*
%TO.C,R8*%
X25474200Y9525000D03*
X26494200Y9525000D03*
%TD*%
D37*
%TO.C,C15*%
X36675000Y23495000D03*
X35715000Y23495000D03*
%TD*%
D38*
%TO.C,C13*%
X10160000Y12926000D03*
X10160000Y11966000D03*
%TD*%
D19*
%TO.C,R3*%
X25400000Y3935000D03*
X25400000Y4955000D03*
%TD*%
%TO.C,R4*%
X29210000Y3935000D03*
X29210000Y4955000D03*
%TD*%
D38*
%TO.C,C2*%
X38100000Y6830000D03*
X38100000Y5870000D03*
%TD*%
D46*
%TO.C,D4*%
X10795000Y28422500D03*
X10795000Y29997500D03*
%TD*%
D27*
%TO.C,ST3*%
X41910000Y35560000D03*
%TD*%
D44*
%TO.C,J9*%
X24765000Y34290000D03*
X22225000Y34290000D03*
X19685000Y34290000D03*
X17145000Y34290000D03*
%TD*%
%TO.C,J6*%
X24765000Y36830000D03*
X22225000Y36830000D03*
X19685000Y36830000D03*
X17145000Y36830000D03*
X14605000Y36830000D03*
X12065000Y36830000D03*
X9525000Y36830000D03*
X6985000Y36830000D03*
%TD*%
D38*
%TO.C,C22*%
X40005000Y10005000D03*
X40005000Y9045000D03*
%TD*%
D45*
%TO.C,U2*%
X33624900Y7300000D03*
X33624900Y6350000D03*
X33624900Y5400000D03*
X36225100Y5400000D03*
X36225100Y7300000D03*
%TD*%
D19*
%TO.C,R2*%
X27940000Y3935000D03*
X27940000Y4955000D03*
%TD*%
D37*
%TO.C,C21*%
X41120000Y20320000D03*
X40160000Y20320000D03*
%TD*%
D44*
%TO.C,J1*%
X33655000Y1270000D03*
X36195000Y1270000D03*
%TD*%
D13*
%TO.C,C9*%
X24765000Y28730000D03*
X24765000Y29690000D03*
%TD*%
D27*
%TO.C,ST2*%
X41910000Y2540000D03*
%TD*%
D37*
%TO.C,C12*%
X32865000Y22225000D03*
X31905000Y22225000D03*
%TD*%
D27*
%TO.C,ST1*%
X2540000Y2540000D03*
%TD*%
D12*
%TO.C,R24*%
X7495000Y24130000D03*
X6475000Y24130000D03*
%TD*%
D13*
%TO.C,C8*%
X15240000Y29365000D03*
X15240000Y30325000D03*
%TD*%
D16*
%TO.C,R21*%
X38100000Y25910000D03*
X38100000Y24890000D03*
%TD*%
D38*
%TO.C,C24*%
X39370000Y29690000D03*
X39370000Y28730000D03*
%TD*%
D11*
%TO.C,FID1*%
X38100000Y36830000D03*
%TD*%
D15*
%TO.C,C26*%
X2060000Y22860000D03*
X3020000Y22860000D03*
%TD*%
D43*
%TO.C,R25*%
X2030000Y15875000D03*
X3050000Y15875000D03*
%TD*%
D19*
%TO.C,R17*%
X12700000Y29335000D03*
X12700000Y30355000D03*
%TD*%
D38*
%TO.C,C16*%
X41275000Y10005000D03*
X41275000Y9045000D03*
%TD*%
D19*
%TO.C,R1*%
X6985000Y4570000D03*
X6985000Y5590000D03*
%TD*%
D41*
%TO.C,U3*%
X28630000Y13050000D03*
X28630000Y13550000D03*
X28630000Y14050000D03*
X28630000Y14550000D03*
X28630000Y15050000D03*
X28630000Y15550000D03*
X28630000Y16050000D03*
X28630000Y16550000D03*
X28630000Y17050000D03*
X28630000Y17550000D03*
X28630000Y18050000D03*
X28630000Y18550000D03*
X28630000Y19050000D03*
X28630000Y19550000D03*
X28630000Y20050000D03*
X28630000Y20550000D03*
X28630000Y21050000D03*
X28630000Y21550000D03*
X28630000Y22050000D03*
X28630000Y22550000D03*
X28630000Y23050000D03*
X28630000Y23550000D03*
X28630000Y24050000D03*
X28630000Y24550000D03*
X28630000Y25050000D03*
D42*
X26955000Y26725000D03*
X26455000Y26725000D03*
X25955000Y26725000D03*
X25455000Y26725000D03*
X24955000Y26725000D03*
X24455000Y26725000D03*
X23955000Y26725000D03*
X23455000Y26725000D03*
X22955000Y26725000D03*
X22455000Y26725000D03*
X21955000Y26725000D03*
X21455000Y26725000D03*
X20955000Y26725000D03*
X20455000Y26725000D03*
X19955000Y26725000D03*
X19455000Y26725000D03*
X18955000Y26725000D03*
X18455000Y26725000D03*
X17955000Y26725000D03*
X17455000Y26725000D03*
X16955000Y26725000D03*
X16455000Y26725000D03*
X15955000Y26725000D03*
X15455000Y26725000D03*
X14955000Y26725000D03*
D41*
X13280000Y25050000D03*
X13280000Y24550000D03*
X13280000Y24050000D03*
X13280000Y23550000D03*
X13280000Y23050000D03*
X13280000Y22550000D03*
X13280000Y22050000D03*
X13280000Y21550000D03*
X13280000Y21050000D03*
X13280000Y20550000D03*
X13280000Y20050000D03*
X13280000Y19550000D03*
X13280000Y19050000D03*
X13280000Y18550000D03*
X13280000Y18050000D03*
X13280000Y17550000D03*
X13280000Y17050000D03*
X13280000Y16550000D03*
X13280000Y16050000D03*
X13280000Y15550000D03*
X13280000Y15050000D03*
X13280000Y14550000D03*
X13280000Y14050000D03*
X13280000Y13550000D03*
X13280000Y13050000D03*
D42*
X14955000Y11375000D03*
X15455000Y11375000D03*
X15955000Y11375000D03*
X16455000Y11375000D03*
X16955000Y11375000D03*
X17455000Y11375000D03*
X17955000Y11375000D03*
X18455000Y11375000D03*
X18955000Y11375000D03*
X19455000Y11375000D03*
X19955000Y11375000D03*
X20455000Y11375000D03*
X20955000Y11375000D03*
X21455000Y11375000D03*
X21955000Y11375000D03*
X22455000Y11375000D03*
X22955000Y11375000D03*
X23455000Y11375000D03*
X23955000Y11375000D03*
X24455000Y11375000D03*
X24955000Y11375000D03*
X25455000Y11375000D03*
X25955000Y11375000D03*
X26455000Y11375000D03*
X26955000Y11375000D03*
%TD*%
D12*
%TO.C,R23*%
X7495000Y22860000D03*
X6475000Y22860000D03*
%TD*%
D40*
%TO.C,U5*%
X41660000Y18102500D03*
X41010000Y18102500D03*
X40360000Y18102500D03*
X39710000Y18102500D03*
X39060000Y18102500D03*
X38410000Y18102500D03*
X37760000Y18102500D03*
X37110000Y18102500D03*
X36460000Y18102500D03*
X35810000Y18102500D03*
X35810000Y12377500D03*
X36460000Y12377500D03*
X37110000Y12377500D03*
X37760000Y12377500D03*
X38410000Y12377500D03*
X39060000Y12377500D03*
X39710000Y12377500D03*
X40360000Y12377500D03*
X41010000Y12377500D03*
X41660000Y12377500D03*
%TD*%
D16*
%TO.C,R22*%
X38100000Y29720000D03*
X38100000Y28700000D03*
%TD*%
D39*
%TO.C,U1*%
X8575000Y5049900D03*
X9525000Y5049900D03*
X10475000Y5049900D03*
X10475000Y7650100D03*
X9575000Y7650100D03*
X8575000Y7650100D03*
%TD*%
D37*
%TO.C,C19*%
X36675000Y20955000D03*
X35715000Y20955000D03*
%TD*%
%TO.C,C18*%
X41120000Y21590000D03*
X40160000Y21590000D03*
%TD*%
D14*
%TO.C,D1*%
X26155000Y6731000D03*
X28455000Y6731000D03*
%TD*%
D38*
%TO.C,C27*%
X8890000Y20800000D03*
X8890000Y19840000D03*
%TD*%
%TO.C,C7*%
X11430000Y12926000D03*
X11430000Y11966000D03*
%TD*%
D15*
%TO.C,C3*%
X31905000Y23495000D03*
X32865000Y23495000D03*
%TD*%
D37*
%TO.C,C17*%
X36675000Y22225000D03*
X35715000Y22225000D03*
%TD*%
D36*
%TO.C,U6*%
X3840100Y19370000D03*
X3840100Y20320000D03*
X3840100Y21270000D03*
X1239900Y21270000D03*
X1239900Y19370000D03*
%TD*%
D32*
%TO.C,J3*%
X5080000Y30075000D03*
X5080000Y29075000D03*
X5080000Y28075000D03*
X5080000Y27075000D03*
D33*
X1405000Y25775000D03*
X1405000Y31375000D03*
%TD*%
D16*
%TO.C,R7*%
X29845000Y28450000D03*
X29845000Y27430000D03*
%TD*%
D15*
%TO.C,C20*%
X40160000Y22860000D03*
X41120000Y22860000D03*
%TD*%
D35*
%TO.C,U4*%
X36510000Y27970100D03*
X35560000Y27970100D03*
X34610000Y27970100D03*
X34610000Y25369900D03*
X36510000Y25369900D03*
%TD*%
D34*
%TO.C,D5*%
X6985000Y21470000D03*
X6985000Y19170000D03*
%TD*%
D11*
%TO.C,FID2*%
X6350000Y1270000D03*
%TD*%
D15*
%TO.C,C4*%
X28730000Y10795000D03*
X29690000Y10795000D03*
%TD*%
%TO.C,C11*%
X31905000Y18415000D03*
X32865000Y18415000D03*
%TD*%
D32*
%TO.C,J4*%
X5080000Y11025000D03*
X5080000Y10025000D03*
X5080000Y9025000D03*
X5080000Y8025000D03*
D33*
X1405000Y6725000D03*
X1405000Y12325000D03*
%TD*%
D30*
%TO.C,Y1*%
X31885000Y20995000D03*
D31*
X32885000Y19645000D03*
D30*
X32885000Y20995000D03*
D31*
X31885000Y19645000D03*
%TD*%
D12*
%TO.C,R15*%
X7495000Y32385000D03*
X6475000Y32385000D03*
%TD*%
D29*
%TO.C,D2*%
X31115000Y1390000D03*
X31115000Y3690000D03*
%TD*%
D15*
%TO.C,C10*%
X31905000Y15240000D03*
X32865000Y15240000D03*
%TD*%
D19*
%TO.C,R20*%
X27305000Y28700000D03*
X27305000Y29720000D03*
%TD*%
D28*
%TO.C,L1*%
X1590000Y17780000D03*
X3490000Y17780000D03*
%TD*%
D19*
%TO.C,R5*%
X26670000Y3935000D03*
X26670000Y4955000D03*
%TD*%
D27*
%TO.C,ST4*%
X2540000Y35560000D03*
%TD*%
D20*
%TO.C,J2*%
X15525000Y5540000D03*
X21305000Y5540000D03*
D21*
X17165000Y6645000D03*
X18165000Y6645000D03*
D22*
X18665000Y6645000D03*
X19665000Y6645000D03*
X20165000Y6645000D03*
X19165000Y6645000D03*
D21*
X17665000Y6645000D03*
X16665000Y6645000D03*
D23*
X15190000Y6645000D03*
D24*
X21640000Y6645000D03*
D25*
X14097000Y1890000D03*
D26*
X14097000Y6070000D03*
X22733000Y6070000D03*
D25*
X22733000Y1890000D03*
D23*
X15965000Y6645000D03*
D24*
X20865000Y6645000D03*
%TD*%
D19*
%TO.C,R18*%
X23495000Y28700000D03*
X23495000Y29720000D03*
%TD*%
D18*
%TO.C,L2*%
X6985000Y16650000D03*
X6985000Y15100000D03*
%TD*%
D17*
%TO.C,SW1*%
X34760000Y32240000D03*
X34760000Y36340000D03*
X36360000Y32240000D03*
X36360000Y36340000D03*
%TD*%
D16*
%TO.C,R19*%
X10795000Y32260000D03*
X10795000Y31240000D03*
%TD*%
D13*
%TO.C,C6*%
X13970000Y29365000D03*
X13970000Y30325000D03*
%TD*%
D15*
%TO.C,C14*%
X35080000Y29845000D03*
X36040000Y29845000D03*
%TD*%
D14*
%TO.C,D6*%
X8375000Y10160000D03*
X10675000Y10160000D03*
%TD*%
D13*
%TO.C,C23*%
X39370000Y24920000D03*
X39370000Y25880000D03*
%TD*%
D12*
%TO.C,R11*%
X7495000Y25400000D03*
X6475000Y25400000D03*
%TD*%
D11*
%TO.C,J5*%
X4445000Y15370000D03*
X4445000Y23370000D03*
%TD*%
M02*
