M48
; DRILL file {KiCad 8.0.1} date 2024-09-05T10:17:41-0600
; FORMAT={-:-/ absolute / metric / decimal}
; #@! TF.CreationDate,2024-09-05T10:17:41-06:00
; #@! TF.GenerationSoftware,Kicad,Pcbnew,8.0.1
; #@! TF.FileFunction,MixedPlating,1,2
FMAT,2
METRIC
; #@! TA.AperFunction,Plated,PTH,ViaDrill
T1C0.300
; #@! TA.AperFunction,Plated,PTH,ViaDrill
T2C0.305
; #@! TA.AperFunction,Plated,PTH,ComponentDrill
T3C0.600
; #@! TA.AperFunction,Plated,PTH,ComponentDrill
T4C0.650
; #@! TA.AperFunction,Plated,PTH,ComponentDrill
T5C1.016
; #@! TA.AperFunction,NonPlated,NPTH,ComponentDrill
T6C0.650
; #@! TA.AperFunction,NonPlated,NPTH,ComponentDrill
T7C1.000
; #@! TA.AperFunction,NonPlated,NPTH,ComponentDrill
T8C3.100
%
G90
G05
T1
X1.27Y95.615
X1.27Y55.745
X1.27Y15.875
X3.683Y101.965
X3.683Y62.095
X3.683Y22.225
X3.81Y110.22
X3.81Y96.25
X3.81Y91.17
X3.81Y70.35
X3.81Y56.38
X3.81Y51.3
X3.81Y30.48
X3.81Y16.51
X3.81Y11.43
X5.08Y100.06
X5.08Y60.19
X5.08Y20.32
X5.715Y103.87
X5.715Y96.25
X5.715Y64.0
X5.715Y56.38
X5.715Y24.13
X5.715Y16.51
X6.985Y86.725
X6.985Y46.855
X6.985Y6.985
X7.772Y91.272
X7.772Y51.402
X7.772Y11.532
X9.525Y82.28
X9.525Y42.41
X9.525Y2.54
X10.16Y105.394
X10.16Y103.743
X10.16Y65.524
X10.16Y63.873
X10.16Y25.654
X10.16Y24.003
X11.684Y99.298
X11.684Y59.428
X11.684Y19.558
X13.97Y110.855
X13.97Y70.985
X13.97Y31.115
X15.24Y110.855
X15.24Y105.14
X15.24Y70.985
X15.24Y65.27
X15.24Y31.115
X15.24Y25.4
X18.415Y98.155
X18.415Y58.285
X18.415Y18.415
X21.984Y104.886
X21.984Y65.016
X21.984Y25.146
X22.225Y87.36
X22.225Y47.49
X22.225Y7.62
X22.758Y104.276
X22.758Y64.406
X22.758Y24.536
X23.368Y93.456
X23.368Y53.586
X23.368Y13.716
X23.571Y104.581
X23.571Y64.711
X23.571Y24.841
X24.32Y86.915
X24.32Y47.045
X24.32Y7.175
X24.333Y104.835
X24.333Y64.965
X24.333Y25.095
X24.384Y96.631
X24.384Y56.761
X24.384Y16.891
X24.943Y100.67
X24.943Y60.8
X24.943Y20.93
X26.289Y82.788
X26.289Y42.918
X26.289Y3.048
X26.822Y110.626
X26.822Y70.756
X26.822Y30.886
X26.873Y102.143
X26.873Y62.273
X26.873Y22.403
X27.51Y90.035
X27.51Y50.165
X27.51Y10.295
X29.845Y109.204
X29.845Y106.156
X29.845Y87.995
X29.845Y69.334
X29.845Y66.286
X29.845Y48.125
X29.845Y29.464
X29.845Y26.416
X29.845Y8.255
X30.226Y102.143
X30.226Y97.012
X30.226Y62.273
X30.226Y57.142
X30.226Y22.403
X30.226Y17.272
X30.937Y101.432
X30.937Y61.562
X30.937Y21.692
X30.986Y107.17
X30.986Y67.3
X30.986Y27.43
X31.242Y109.458
X31.242Y69.588
X31.242Y29.718
X32.131Y104.505
X32.131Y64.635
X32.131Y24.765
X34.036Y114.284
X34.036Y74.414
X34.036Y34.544
X34.925Y86.09
X34.925Y46.22
X34.925Y6.35
X35.56Y106.41
X35.56Y99.425
X35.56Y66.54
X35.56Y59.555
X35.56Y26.67
X35.56Y19.685
X36.83Y109.585
X36.83Y69.715
X36.83Y29.845
X37.084Y114.69
X37.084Y74.82
X37.084Y34.95
X38.1Y87.919
X38.1Y48.049
X38.1Y8.179
X39.37Y103.87
X39.37Y64.0
X39.37Y24.13
X40.005Y106.41
X40.005Y66.54
X40.005Y26.67
X40.64Y87.995
X40.64Y48.125
X40.64Y8.255
X46.22Y95.615
X46.22Y55.745
X46.22Y15.875
X48.633Y101.965
X48.633Y62.095
X48.633Y22.225
X48.76Y110.22
X48.76Y96.25
X48.76Y91.17
X48.76Y70.35
X48.76Y56.38
X48.76Y51.3
X48.76Y30.48
X48.76Y16.51
X48.76Y11.43
X50.03Y100.06
X50.03Y60.19
X50.03Y20.32
X50.665Y103.87
X50.665Y96.25
X50.665Y64.0
X50.665Y56.38
X50.665Y24.13
X50.665Y16.51
X51.935Y86.725
X51.935Y46.855
X51.935Y6.985
X52.722Y91.272
X52.722Y51.402
X52.722Y11.532
X54.475Y82.28
X54.475Y42.41
X54.475Y2.54
X55.11Y105.394
X55.11Y103.743
X55.11Y65.524
X55.11Y63.873
X55.11Y25.654
X55.11Y24.003
X56.634Y99.298
X56.634Y59.428
X56.634Y19.558
X58.92Y110.855
X58.92Y70.985
X58.92Y31.115
X60.19Y110.855
X60.19Y105.14
X60.19Y70.985
X60.19Y65.27
X60.19Y31.115
X60.19Y25.4
X63.365Y98.155
X63.365Y58.285
X63.365Y18.415
X66.934Y104.886
X66.934Y65.016
X66.934Y25.146
X67.175Y87.36
X67.175Y47.49
X67.175Y7.62
X67.708Y104.276
X67.708Y64.406
X67.708Y24.536
X68.318Y93.456
X68.318Y53.586
X68.318Y13.716
X68.521Y104.581
X68.521Y64.711
X68.521Y24.841
X69.27Y86.915
X69.27Y47.045
X69.27Y7.175
X69.283Y104.835
X69.283Y64.965
X69.283Y25.095
X69.334Y96.631
X69.334Y56.761
X69.334Y16.891
X69.893Y100.67
X69.893Y60.8
X69.893Y20.93
X71.239Y82.788
X71.239Y42.918
X71.239Y3.048
X71.772Y110.626
X71.772Y70.756
X71.772Y30.886
X71.823Y102.143
X71.823Y62.273
X71.823Y22.403
X72.46Y90.035
X72.46Y50.165
X72.46Y10.295
X74.795Y109.204
X74.795Y106.156
X74.795Y87.995
X74.795Y69.334
X74.795Y66.286
X74.795Y48.125
X74.795Y29.464
X74.795Y26.416
X74.795Y8.255
X75.176Y102.143
X75.176Y97.012
X75.176Y62.273
X75.176Y57.142
X75.176Y22.403
X75.176Y17.272
X75.887Y101.432
X75.887Y61.562
X75.887Y21.692
X75.936Y107.17
X75.936Y67.3
X75.936Y27.43
X76.192Y109.458
X76.192Y69.588
X76.192Y29.718
X77.081Y104.505
X77.081Y64.635
X77.081Y24.765
X78.986Y114.284
X78.986Y74.414
X78.986Y34.544
X79.875Y86.09
X79.875Y46.22
X79.875Y6.35
X80.51Y106.41
X80.51Y99.425
X80.51Y66.54
X80.51Y59.555
X80.51Y26.67
X80.51Y19.685
X81.78Y109.585
X81.78Y69.715
X81.78Y29.845
X82.034Y114.69
X82.034Y74.82
X82.034Y34.95
X83.05Y87.919
X83.05Y48.049
X83.05Y8.179
X84.32Y103.87
X84.32Y64.0
X84.32Y24.13
X84.955Y106.41
X84.955Y66.54
X84.955Y26.67
X85.59Y87.995
X85.59Y48.125
X85.59Y8.255
X91.17Y95.615
X91.17Y55.745
X91.17Y15.875
X93.583Y101.965
X93.583Y62.095
X93.583Y22.225
X93.71Y110.22
X93.71Y96.25
X93.71Y91.17
X93.71Y70.35
X93.71Y56.38
X93.71Y51.3
X93.71Y30.48
X93.71Y16.51
X93.71Y11.43
X94.98Y100.06
X94.98Y60.19
X94.98Y20.32
X95.615Y103.87
X95.615Y96.25
X95.615Y64.0
X95.615Y56.38
X95.615Y24.13
X95.615Y16.51
X96.885Y86.725
X96.885Y46.855
X96.885Y6.985
X97.672Y91.272
X97.672Y51.402
X97.672Y11.532
X99.425Y82.28
X99.425Y42.41
X99.425Y2.54
X100.06Y105.394
X100.06Y103.743
X100.06Y65.524
X100.06Y63.873
X100.06Y25.654
X100.06Y24.003
X101.584Y99.298
X101.584Y59.428
X101.584Y19.558
X103.87Y110.855
X103.87Y70.985
X103.87Y31.115
X105.14Y110.855
X105.14Y105.14
X105.14Y70.985
X105.14Y65.27
X105.14Y31.115
X105.14Y25.4
X108.315Y98.155
X108.315Y58.285
X108.315Y18.415
X111.884Y104.886
X111.884Y65.016
X111.884Y25.146
X112.125Y87.36
X112.125Y47.49
X112.125Y7.62
X112.658Y104.276
X112.658Y64.406
X112.658Y24.536
X113.268Y93.456
X113.268Y53.586
X113.268Y13.716
X113.471Y104.581
X113.471Y64.711
X113.471Y24.841
X114.221Y86.915
X114.221Y47.045
X114.221Y7.175
X114.233Y104.835
X114.233Y64.965
X114.233Y25.095
X114.284Y96.631
X114.284Y56.761
X114.284Y16.891
X114.843Y100.67
X114.843Y60.8
X114.843Y20.93
X116.189Y82.788
X116.189Y42.918
X116.189Y3.048
X116.722Y110.626
X116.722Y70.756
X116.722Y30.886
X116.773Y102.143
X116.773Y62.273
X116.773Y22.403
X117.41Y90.035
X117.41Y50.165
X117.41Y10.295
X119.745Y109.204
X119.745Y106.156
X119.745Y87.995
X119.745Y69.334
X119.745Y66.286
X119.745Y48.125
X119.745Y29.464
X119.745Y26.416
X119.745Y8.255
X120.126Y102.143
X120.126Y97.012
X120.126Y62.273
X120.126Y57.142
X120.126Y22.403
X120.126Y17.272
X120.837Y101.432
X120.837Y61.562
X120.837Y21.692
X120.886Y107.17
X120.886Y67.3
X120.886Y27.43
X121.142Y109.458
X121.142Y69.588
X121.142Y29.718
X122.031Y104.505
X122.031Y64.635
X122.031Y24.765
X123.936Y114.284
X123.936Y74.414
X123.936Y34.544
X124.825Y86.09
X124.825Y46.22
X124.825Y6.35
X125.46Y106.41
X125.46Y99.425
X125.46Y66.54
X125.46Y59.555
X125.46Y26.67
X125.46Y19.685
X126.73Y109.585
X126.73Y69.715
X126.73Y29.845
X126.984Y114.69
X126.984Y74.82
X126.984Y34.95
X128.0Y87.919
X128.0Y48.049
X128.0Y8.179
X129.27Y103.87
X129.27Y64.0
X129.27Y24.13
X129.905Y106.41
X129.905Y66.54
X129.905Y26.67
X130.54Y87.995
X130.54Y48.125
X130.54Y8.255
T2
X1.27Y108.823
X1.27Y89.773
X1.27Y68.953
X1.27Y49.903
X1.27Y29.083
X1.27Y10.033
X2.159Y107.807
X2.159Y88.757
X2.159Y67.937
X2.159Y48.887
X2.159Y28.067
X2.159Y9.017
X2.921Y106.791
X2.921Y87.741
X2.921Y66.921
X2.921Y47.871
X2.921Y27.051
X2.921Y8.001
X6.35Y113.395
X6.35Y73.525
X6.35Y33.655
X8.255Y83.169
X8.255Y43.299
X8.255Y3.429
X9.093Y93.507
X9.093Y53.637
X9.093Y13.767
X9.144Y105.14
X9.144Y65.27
X9.144Y25.4
X10.16Y113.014
X10.16Y73.144
X10.16Y33.274
X11.024Y94.116
X11.024Y54.246
X11.024Y14.376
X11.57Y95.488
X11.57Y55.618
X11.57Y15.748
X11.684Y106.791
X11.684Y96.758
X11.684Y66.921
X11.684Y56.888
X11.684Y27.051
X11.684Y17.018
X11.735Y88.935
X11.735Y49.065
X11.735Y9.195
X11.795Y97.79
X11.795Y57.92
X11.795Y18.05
X11.976Y90.751
X11.976Y50.881
X11.976Y11.011
X12.141Y88.071
X12.141Y48.201
X12.141Y8.331
X13.208Y90.814
X13.208Y50.944
X13.208Y11.074
X14.097Y90.027
X14.097Y50.157
X14.097Y10.287
X15.951Y88.274
X15.951Y48.404
X15.951Y8.534
X16.891Y102.6
X16.891Y101.203
X16.891Y62.73
X16.891Y61.333
X16.891Y22.86
X16.891Y21.463
X17.018Y97.901
X17.018Y58.031
X17.018Y18.161
X17.145Y87.487
X17.145Y47.617
X17.145Y7.747
X17.272Y100.06
X17.272Y60.19
X17.272Y20.32
X18.161Y87.487
X18.161Y84.667
X18.161Y47.617
X18.161Y44.797
X18.161Y7.747
X18.161Y4.927
X19.05Y99.044
X19.05Y59.174
X19.05Y19.304
X19.685Y93.075
X19.685Y53.205
X19.685Y13.335
X20.193Y84.693
X20.193Y44.823
X20.193Y4.953
X21.463Y93.075
X21.463Y53.205
X21.463Y13.335
X22.098Y109.458
X22.098Y69.588
X22.098Y29.718
X22.86Y110.474
X22.86Y70.604
X22.86Y30.734
X23.876Y86.217
X23.876Y46.347
X23.876Y6.477
X24.384Y85.328
X24.384Y45.458
X24.384Y5.588
X25.146Y82.661
X25.146Y42.791
X25.146Y2.921
X25.4Y110.347
X25.4Y70.477
X25.4Y30.607
X26.162Y102.803
X26.162Y97.774
X26.162Y95.285
X26.162Y62.933
X26.162Y57.904
X26.162Y55.415
X26.162Y23.063
X26.162Y18.034
X26.162Y15.545
X27.94Y82.788
X27.94Y42.918
X27.94Y3.048
X28.194Y91.551
X28.194Y51.681
X28.194Y11.811
X28.73Y89.265
X28.73Y49.395
X28.73Y9.525
X29.21Y82.788
X29.21Y42.918
X29.21Y3.048
X30.099Y82.026
X30.099Y42.156
X30.099Y2.286
X30.734Y90.154
X30.734Y50.284
X30.734Y10.414
X30.861Y93.329
X30.861Y53.459
X30.861Y13.589
X30.95Y98.447
X30.95Y58.577
X30.95Y18.707
X33.655Y94.98
X33.655Y55.11
X33.655Y15.24
X37.592Y107.68
X37.592Y67.81
X37.592Y27.94
X38.1Y90.357
X38.1Y50.487
X38.1Y10.617
X38.354Y93.583
X38.354Y53.713
X38.354Y13.843
X40.36Y96.377
X40.36Y56.507
X40.36Y16.637
X41.275Y93.71
X41.275Y53.84
X41.275Y13.97
X43.18Y102.092
X43.18Y62.222
X43.18Y22.352
X46.22Y108.823
X46.22Y89.773
X46.22Y68.953
X46.22Y49.903
X46.22Y29.083
X46.22Y10.033
X47.109Y107.807
X47.109Y88.757
X47.109Y67.937
X47.109Y48.887
X47.109Y28.067
X47.109Y9.017
X47.871Y106.791
X47.871Y87.741
X47.871Y66.921
X47.871Y47.871
X47.871Y27.051
X47.871Y8.001
X51.3Y113.395
X51.3Y73.525
X51.3Y33.655
X53.205Y83.169
X53.205Y43.299
X53.205Y3.429
X54.043Y93.507
X54.043Y53.637
X54.043Y13.767
X54.094Y105.14
X54.094Y65.27
X54.094Y25.4
X55.11Y113.014
X55.11Y73.144
X55.11Y33.274
X55.974Y94.116
X55.974Y54.246
X55.974Y14.376
X56.52Y95.488
X56.52Y55.618
X56.52Y15.748
X56.634Y106.791
X56.634Y96.758
X56.634Y66.921
X56.634Y56.888
X56.634Y27.051
X56.634Y17.018
X56.685Y88.935
X56.685Y49.065
X56.685Y9.195
X56.745Y97.79
X56.745Y57.92
X56.745Y18.05
X56.926Y90.751
X56.926Y50.881
X56.926Y11.011
X57.091Y88.071
X57.091Y48.201
X57.091Y8.331
X58.158Y90.814
X58.158Y50.944
X58.158Y11.074
X59.047Y90.027
X59.047Y50.157
X59.047Y10.287
X60.901Y88.274
X60.901Y48.404
X60.901Y8.534
X61.841Y102.6
X61.841Y101.203
X61.841Y62.73
X61.841Y61.333
X61.841Y22.86
X61.841Y21.463
X61.968Y97.901
X61.968Y58.031
X61.968Y18.161
X62.095Y87.487
X62.095Y47.617
X62.095Y7.747
X62.222Y100.06
X62.222Y60.19
X62.222Y20.32
X63.111Y87.487
X63.111Y84.667
X63.111Y47.617
X63.111Y44.797
X63.111Y7.747
X63.111Y4.927
X64.0Y99.044
X64.0Y59.174
X64.0Y19.304
X64.635Y93.075
X64.635Y53.205
X64.635Y13.335
X65.143Y84.693
X65.143Y44.823
X65.143Y4.953
X66.413Y93.075
X66.413Y53.205
X66.413Y13.335
X67.048Y109.458
X67.048Y69.588
X67.048Y29.718
X67.81Y110.474
X67.81Y70.604
X67.81Y30.734
X68.826Y86.217
X68.826Y46.347
X68.826Y6.477
X69.334Y85.328
X69.334Y45.458
X69.334Y5.588
X70.096Y82.661
X70.096Y42.791
X70.096Y2.921
X70.35Y110.347
X70.35Y70.477
X70.35Y30.607
X71.112Y102.803
X71.112Y97.774
X71.112Y95.285
X71.112Y62.933
X71.112Y57.904
X71.112Y55.415
X71.112Y23.063
X71.112Y18.034
X71.112Y15.545
X72.89Y82.788
X72.89Y42.918
X72.89Y3.048
X73.144Y91.551
X73.144Y51.681
X73.144Y11.811
X73.68Y89.265
X73.68Y49.395
X73.68Y9.525
X74.16Y82.788
X74.16Y42.918
X74.16Y3.048
X75.049Y82.026
X75.049Y42.156
X75.049Y2.286
X75.684Y90.154
X75.684Y50.284
X75.684Y10.414
X75.811Y93.329
X75.811Y53.459
X75.811Y13.589
X75.9Y98.447
X75.9Y58.577
X75.9Y18.707
X78.605Y94.98
X78.605Y55.11
X78.605Y15.24
X82.542Y107.68
X82.542Y67.81
X82.542Y27.94
X83.05Y90.357
X83.05Y50.487
X83.05Y10.617
X83.304Y93.583
X83.304Y53.713
X83.304Y13.843
X85.31Y96.377
X85.31Y56.507
X85.31Y16.637
X86.225Y93.71
X86.225Y53.84
X86.225Y13.97
X88.13Y102.092
X88.13Y62.222
X88.13Y22.352
X91.17Y108.823
X91.17Y89.773
X91.17Y68.953
X91.17Y49.903
X91.17Y29.083
X91.17Y10.033
X92.059Y107.807
X92.059Y88.757
X92.059Y67.937
X92.059Y48.887
X92.059Y28.067
X92.059Y9.017
X92.821Y106.791
X92.821Y87.741
X92.821Y66.921
X92.821Y47.871
X92.821Y27.051
X92.821Y8.001
X96.25Y113.395
X96.25Y73.525
X96.25Y33.655
X98.155Y83.169
X98.155Y43.299
X98.155Y3.429
X98.993Y93.507
X98.993Y53.637
X98.993Y13.767
X99.044Y105.14
X99.044Y65.27
X99.044Y25.4
X100.06Y113.014
X100.06Y73.144
X100.06Y33.274
X100.924Y94.116
X100.924Y54.246
X100.924Y14.376
X101.47Y95.488
X101.47Y55.618
X101.47Y15.748
X101.584Y106.791
X101.584Y96.758
X101.584Y66.921
X101.584Y56.888
X101.584Y27.051
X101.584Y17.018
X101.635Y88.935
X101.635Y49.065
X101.635Y9.195
X101.695Y97.79
X101.695Y57.92
X101.695Y18.05
X101.876Y90.751
X101.876Y50.881
X101.876Y11.011
X102.041Y88.071
X102.041Y48.201
X102.041Y8.331
X103.108Y90.814
X103.108Y50.944
X103.108Y11.074
X103.997Y90.027
X103.997Y50.157
X103.997Y10.287
X105.851Y88.274
X105.851Y48.404
X105.851Y8.534
X106.791Y102.6
X106.791Y101.203
X106.791Y62.73
X106.791Y61.333
X106.791Y22.86
X106.791Y21.463
X106.918Y97.901
X106.918Y58.031
X106.918Y18.161
X107.045Y87.487
X107.045Y47.617
X107.045Y7.747
X107.172Y100.06
X107.172Y60.19
X107.172Y20.32
X108.061Y87.487
X108.061Y84.667
X108.061Y47.617
X108.061Y44.797
X108.061Y7.747
X108.061Y4.927
X108.95Y99.044
X108.95Y59.174
X108.95Y19.304
X109.585Y93.075
X109.585Y53.205
X109.585Y13.335
X110.093Y84.693
X110.093Y44.823
X110.093Y4.953
X111.363Y93.075
X111.363Y53.205
X111.363Y13.335
X111.998Y109.458
X111.998Y69.588
X111.998Y29.718
X112.76Y110.474
X112.76Y70.604
X112.76Y30.734
X113.776Y86.217
X113.776Y46.347
X113.776Y6.477
X114.284Y85.328
X114.284Y45.458
X114.284Y5.588
X115.046Y82.661
X115.046Y42.791
X115.046Y2.921
X115.3Y110.347
X115.3Y70.477
X115.3Y30.607
X116.062Y102.803
X116.062Y97.774
X116.062Y95.285
X116.062Y62.933
X116.062Y57.904
X116.062Y55.415
X116.062Y23.063
X116.062Y18.034
X116.062Y15.545
X117.84Y82.788
X117.84Y42.918
X117.84Y3.048
X118.094Y91.551
X118.094Y51.681
X118.094Y11.811
X118.63Y89.265
X118.63Y49.395
X118.63Y9.525
X119.11Y82.788
X119.11Y42.918
X119.11Y3.048
X119.999Y82.026
X119.999Y42.156
X119.999Y2.286
X120.634Y90.154
X120.634Y50.284
X120.634Y10.414
X120.761Y93.329
X120.761Y53.459
X120.761Y13.589
X120.85Y98.447
X120.85Y58.577
X120.85Y18.707
X123.555Y94.98
X123.555Y55.11
X123.555Y15.24
X127.492Y107.68
X127.492Y67.81
X127.492Y27.94
X128.0Y90.357
X128.0Y50.487
X128.0Y10.617
X128.254Y93.583
X128.254Y53.713
X128.254Y13.843
X130.26Y96.377
X130.26Y56.507
X130.26Y16.637
X131.175Y93.71
X131.175Y53.84
X131.175Y13.97
X133.08Y102.092
X133.08Y62.222
X133.08Y22.352
T4
X31.105Y115.925
X31.105Y114.655
X31.105Y113.385
X31.105Y112.115
X31.105Y110.845
X31.105Y76.055
X31.105Y74.785
X31.105Y73.515
X31.105Y72.245
X31.105Y70.975
X31.105Y36.185
X31.105Y34.915
X31.105Y33.645
X31.105Y32.375
X31.105Y31.105
X32.375Y115.925
X32.375Y114.655
X32.375Y113.385
X32.375Y112.115
X32.375Y110.845
X32.375Y76.055
X32.375Y74.785
X32.375Y73.515
X32.375Y72.245
X32.375Y70.975
X32.375Y36.185
X32.375Y34.915
X32.375Y33.645
X32.375Y32.375
X32.375Y31.105
X76.055Y115.925
X76.055Y114.655
X76.055Y113.385
X76.055Y112.115
X76.055Y110.845
X76.055Y76.055
X76.055Y74.785
X76.055Y73.515
X76.055Y72.245
X76.055Y70.975
X76.055Y36.185
X76.055Y34.915
X76.055Y33.645
X76.055Y32.375
X76.055Y31.105
X77.325Y115.925
X77.325Y114.655
X77.325Y113.385
X77.325Y112.115
X77.325Y110.845
X77.325Y76.055
X77.325Y74.785
X77.325Y73.515
X77.325Y72.245
X77.325Y70.975
X77.325Y36.185
X77.325Y34.915
X77.325Y33.645
X77.325Y32.375
X77.325Y31.105
X121.005Y115.925
X121.005Y114.655
X121.005Y113.385
X121.005Y112.115
X121.005Y110.845
X121.005Y76.055
X121.005Y74.785
X121.005Y73.515
X121.005Y72.245
X121.005Y70.975
X121.005Y36.185
X121.005Y34.915
X121.005Y33.645
X121.005Y32.375
X121.005Y31.105
X122.275Y115.925
X122.275Y114.655
X122.275Y113.385
X122.275Y112.115
X122.275Y110.845
X122.275Y76.055
X122.275Y74.785
X122.275Y73.515
X122.275Y72.245
X122.275Y70.975
X122.275Y36.185
X122.275Y34.915
X122.275Y33.645
X122.275Y32.375
X122.275Y31.105
T5
X6.985Y116.57
X6.985Y76.7
X6.985Y36.83
X9.525Y116.57
X9.525Y76.7
X9.525Y36.83
X12.065Y116.57
X12.065Y76.7
X12.065Y36.83
X14.605Y116.57
X14.605Y76.7
X14.605Y36.83
X17.145Y116.57
X17.145Y114.03
X17.145Y76.7
X17.145Y74.16
X17.145Y36.83
X17.145Y34.29
X19.685Y116.57
X19.685Y114.03
X19.685Y76.7
X19.685Y74.16
X19.685Y36.83
X19.685Y34.29
X22.225Y116.57
X22.225Y114.03
X22.225Y76.7
X22.225Y74.16
X22.225Y36.83
X22.225Y34.29
X24.765Y116.57
X24.765Y114.03
X24.765Y76.7
X24.765Y74.16
X24.765Y36.83
X24.765Y34.29
X27.305Y116.57
X27.305Y114.03
X27.305Y76.7
X27.305Y74.16
X27.305Y36.83
X27.305Y34.29
X33.655Y81.01
X33.655Y41.14
X33.655Y1.27
X36.195Y81.01
X36.195Y41.14
X36.195Y1.27
X43.18Y109.585
X43.18Y107.045
X43.18Y104.505
X43.18Y69.715
X43.18Y67.175
X43.18Y64.635
X43.18Y29.845
X43.18Y27.305
X43.18Y24.765
X51.935Y116.57
X51.935Y76.7
X51.935Y36.83
X54.475Y116.57
X54.475Y76.7
X54.475Y36.83
X57.015Y116.57
X57.015Y76.7
X57.015Y36.83
X59.555Y116.57
X59.555Y76.7
X59.555Y36.83
X62.095Y116.57
X62.095Y114.03
X62.095Y76.7
X62.095Y74.16
X62.095Y36.83
X62.095Y34.29
X64.635Y116.57
X64.635Y114.03
X64.635Y76.7
X64.635Y74.16
X64.635Y36.83
X64.635Y34.29
X67.175Y116.57
X67.175Y114.03
X67.175Y76.7
X67.175Y74.16
X67.175Y36.83
X67.175Y34.29
X69.715Y116.57
X69.715Y114.03
X69.715Y76.7
X69.715Y74.16
X69.715Y36.83
X69.715Y34.29
X72.255Y116.57
X72.255Y114.03
X72.255Y76.7
X72.255Y74.16
X72.255Y36.83
X72.255Y34.29
X78.605Y81.01
X78.605Y41.14
X78.605Y1.27
X81.145Y81.01
X81.145Y41.14
X81.145Y1.27
X88.13Y109.585
X88.13Y107.045
X88.13Y104.505
X88.13Y69.715
X88.13Y67.175
X88.13Y64.635
X88.13Y29.845
X88.13Y27.305
X88.13Y24.765
X96.885Y116.57
X96.885Y76.7
X96.885Y36.83
X99.425Y116.57
X99.425Y76.7
X99.425Y36.83
X101.965Y116.57
X101.965Y76.7
X101.965Y36.83
X104.505Y116.57
X104.505Y76.7
X104.505Y36.83
X107.045Y116.57
X107.045Y114.03
X107.045Y76.7
X107.045Y74.16
X107.045Y36.83
X107.045Y34.29
X109.585Y116.57
X109.585Y114.03
X109.585Y76.7
X109.585Y74.16
X109.585Y36.83
X109.585Y34.29
X112.125Y116.57
X112.125Y114.03
X112.125Y76.7
X112.125Y74.16
X112.125Y36.83
X112.125Y34.29
X114.665Y116.57
X114.665Y114.03
X114.665Y76.7
X114.665Y74.16
X114.665Y36.83
X114.665Y34.29
X117.205Y116.57
X117.205Y114.03
X117.205Y76.7
X117.205Y74.16
X117.205Y36.83
X117.205Y34.29
X123.555Y81.01
X123.555Y41.14
X123.555Y1.27
X126.095Y81.01
X126.095Y41.14
X126.095Y1.27
X133.08Y109.585
X133.08Y107.045
X133.08Y104.505
X133.08Y69.715
X133.08Y67.175
X133.08Y64.635
X133.08Y29.845
X133.08Y27.305
X133.08Y24.765
T6
X15.525Y85.28
X15.525Y45.41
X15.525Y5.54
X21.305Y85.28
X21.305Y45.41
X21.305Y5.54
X60.475Y85.28
X60.475Y45.41
X60.475Y5.54
X66.255Y85.28
X66.255Y45.41
X66.255Y5.54
X105.425Y85.28
X105.425Y45.41
X105.425Y5.54
X111.205Y85.28
X111.205Y45.41
X111.205Y5.54
T7
X4.445Y103.11
X4.445Y95.11
X4.445Y63.24
X4.445Y55.24
X4.445Y23.37
X4.445Y15.37
X49.395Y103.11
X49.395Y95.11
X49.395Y63.24
X49.395Y55.24
X49.395Y23.37
X49.395Y15.37
X94.345Y103.11
X94.345Y95.11
X94.345Y63.24
X94.345Y55.24
X94.345Y23.37
X94.345Y15.37
T8
X2.54Y115.3
X2.54Y82.28
X2.54Y75.43
X2.54Y42.41
X2.54Y35.56
X2.54Y2.54
X41.91Y115.3
X41.91Y82.28
X41.91Y75.43
X41.91Y42.41
X41.91Y35.56
X41.91Y2.54
X47.49Y115.3
X47.49Y82.28
X47.49Y75.43
X47.49Y42.41
X47.49Y35.56
X47.49Y2.54
X86.86Y115.3
X86.86Y82.28
X86.86Y75.43
X86.86Y42.41
X86.86Y35.56
X86.86Y2.54
X92.44Y115.3
X92.44Y82.28
X92.44Y75.43
X92.44Y42.41
X92.44Y35.56
X92.44Y2.54
X131.81Y115.3
X131.81Y82.28
X131.81Y75.43
X131.81Y42.41
X131.81Y35.56
X131.81Y2.54
T3
G00X14.097Y86.36
M15
G01X14.097Y85.26
M16
G05
G00X14.097Y81.93
M15
G01X14.097Y81.33
M16
G05
G00X14.097Y46.49
M15
G01X14.097Y45.39
M16
G05
G00X14.097Y42.06
M15
G01X14.097Y41.46
M16
G05
G00X14.097Y6.62
M15
G01X14.097Y5.52
M16
G05
G00X14.097Y2.19
M15
G01X14.097Y1.59
M16
G05
G00X22.733Y86.36
M15
G01X22.733Y85.26
M16
G05
G00X22.733Y81.93
M15
G01X22.733Y81.33
M16
G05
G00X22.733Y46.49
M15
G01X22.733Y45.39
M16
G05
G00X22.733Y42.06
M15
G01X22.733Y41.46
M16
G05
G00X22.733Y6.62
M15
G01X22.733Y5.52
M16
G05
G00X22.733Y2.19
M15
G01X22.733Y1.59
M16
G05
G00X59.047Y86.36
M15
G01X59.047Y85.26
M16
G05
G00X59.047Y81.93
M15
G01X59.047Y81.33
M16
G05
G00X59.047Y46.49
M15
G01X59.047Y45.39
M16
G05
G00X59.047Y42.06
M15
G01X59.047Y41.46
M16
G05
G00X59.047Y6.62
M15
G01X59.047Y5.52
M16
G05
G00X59.047Y2.19
M15
G01X59.047Y1.59
M16
G05
G00X67.683Y86.36
M15
G01X67.683Y85.26
M16
G05
G00X67.683Y81.93
M15
G01X67.683Y81.33
M16
G05
G00X67.683Y46.49
M15
G01X67.683Y45.39
M16
G05
G00X67.683Y42.06
M15
G01X67.683Y41.46
M16
G05
G00X67.683Y6.62
M15
G01X67.683Y5.52
M16
G05
G00X67.683Y2.19
M15
G01X67.683Y1.59
M16
G05
G00X103.997Y86.36
M15
G01X103.997Y85.26
M16
G05
G00X103.997Y81.93
M15
G01X103.997Y81.33
M16
G05
G00X103.997Y46.49
M15
G01X103.997Y45.39
M16
G05
G00X103.997Y42.06
M15
G01X103.997Y41.46
M16
G05
G00X103.997Y6.62
M15
G01X103.997Y5.52
M16
G05
G00X103.997Y2.19
M15
G01X103.997Y1.59
M16
G05
G00X112.633Y86.36
M15
G01X112.633Y85.26
M16
G05
G00X112.633Y81.93
M15
G01X112.633Y81.33
M16
G05
G00X112.633Y46.49
M15
G01X112.633Y45.39
M16
G05
G00X112.633Y42.06
M15
G01X112.633Y41.46
M16
G05
G00X112.633Y6.62
M15
G01X112.633Y5.52
M16
G05
G00X112.633Y2.19
M15
G01X112.633Y1.59
M16
G05
M30
