%TF.GenerationSoftware,KiCad,Pcbnew,8.0.1*%
%TF.CreationDate,2024-09-05T10:17:41-06:00*%
%TF.ProjectId,SparkFun_Qwiic_WAV_Trigger_Pro_panelized,53706172-6b46-4756-9e5f-51776969635f,rev?*%
%TF.SameCoordinates,Original*%
%TF.FileFunction,Soldermask,Bot*%
%TF.FilePolarity,Negative*%
%FSLAX46Y46*%
G04 Gerber Fmt 4.6, Leading zero omitted, Abs format (unit mm)*
G04 Created by KiCad (PCBNEW 8.0.1) date 2024-09-05 10:17:41*
%MOMM*%
%LPD*%
G01*
G04 APERTURE LIST*
G04 Aperture macros list*
%AMRoundRect*
0 Rectangle with rounded corners*
0 $1 Rounding radius*
0 $2 $3 $4 $5 $6 $7 $8 $9 X,Y pos of 4 corners*
0 Add a 4 corners polygon primitive as box body*
4,1,4,$2,$3,$4,$5,$6,$7,$8,$9,$2,$3,0*
0 Add four circle primitives for the rounded corners*
1,1,$1+$1,$2,$3*
1,1,$1+$1,$4,$5*
1,1,$1+$1,$6,$7*
1,1,$1+$1,$8,$9*
0 Add four rect primitives between the rounded corners*
20,1,$1+$1,$2,$3,$4,$5,0*
20,1,$1+$1,$4,$5,$6,$7,0*
20,1,$1+$1,$6,$7,$8,$9,0*
20,1,$1+$1,$8,$9,$2,$3,0*%
G04 Aperture macros list end*
%ADD10C,0.000000*%
%ADD11C,3.000000*%
%ADD12C,1.000000*%
%ADD13RoundRect,0.476600X0.000010X0.000010X-0.000010X0.000010X-0.000010X-0.000010X0.000010X-0.000010X0*%
%ADD14RoundRect,0.101600X-0.330200X-0.635000X0.330200X-0.635000X0.330200X0.635000X-0.330200X0.635000X0*%
%ADD15RoundRect,0.101600X0.330200X0.635000X-0.330200X0.635000X-0.330200X-0.635000X0.330200X-0.635000X0*%
%ADD16RoundRect,0.101600X0.600000X-0.300000X0.600000X0.300000X-0.600000X0.300000X-0.600000X-0.300000X0*%
%ADD17RoundRect,0.085000X-0.317500X-0.635000X0.317500X-0.635000X0.317500X0.635000X-0.317500X0.635000X0*%
%ADD18RoundRect,0.135000X0.135000X0.185000X-0.135000X0.185000X-0.135000X-0.185000X0.135000X-0.185000X0*%
%ADD19RoundRect,0.101600X-0.635000X0.330200X-0.635000X-0.330200X0.635000X-0.330200X0.635000X0.330200X0*%
%ADD20RoundRect,0.101600X-0.800000X-0.350000X0.800000X-0.350000X0.800000X0.350000X-0.800000X0.350000X0*%
%ADD21RoundRect,0.101600X0.800000X-0.600000X0.800000X0.600000X-0.800000X0.600000X-0.800000X-0.600000X0*%
%ADD22RoundRect,0.101600X1.100000X-0.600000X1.100000X0.600000X-1.100000X0.600000X-1.100000X-0.600000X0*%
%ADD23RoundRect,0.101600X0.700000X-0.800000X0.700000X0.800000X-0.700000X0.800000X-0.700000X-0.800000X0*%
%ADD24RoundRect,0.140000X0.140000X0.170000X-0.140000X0.170000X-0.140000X-0.170000X0.140000X-0.170000X0*%
%ADD25RoundRect,0.140000X-0.170000X0.140000X-0.170000X-0.140000X0.170000X-0.140000X0.170000X0.140000X0*%
%ADD26C,0.650000*%
%ADD27O,1.000000X1.600000*%
%ADD28O,1.000000X2.100000*%
%ADD29C,3.100000*%
%ADD30C,2.082800*%
%ADD31R,1.000000X1.000000*%
%ADD32O,1.000000X1.000000*%
G04 APERTURE END LIST*
D10*
%TO.C,JP1*%
G36*
X116938300Y85849500D02*
G01*
X116430300Y85849500D01*
X116430300Y86330500D01*
X116938300Y86330500D01*
X116938300Y85849500D01*
G37*
G36*
X116938300Y45979500D02*
G01*
X116430300Y45979500D01*
X116430300Y46460500D01*
X116938300Y46460500D01*
X116938300Y45979500D01*
G37*
G36*
X116938300Y6109500D02*
G01*
X116430300Y6109500D01*
X116430300Y6590500D01*
X116938300Y6590500D01*
X116938300Y6109500D01*
G37*
G36*
X71988300Y85849500D02*
G01*
X71480300Y85849500D01*
X71480300Y86330500D01*
X71988300Y86330500D01*
X71988300Y85849500D01*
G37*
G36*
X71988300Y45979500D02*
G01*
X71480300Y45979500D01*
X71480300Y46460500D01*
X71988300Y46460500D01*
X71988300Y45979500D01*
G37*
G36*
X71988300Y6109500D02*
G01*
X71480300Y6109500D01*
X71480300Y6590500D01*
X71988300Y6590500D01*
X71988300Y6109500D01*
G37*
G36*
X27038300Y85849500D02*
G01*
X26530300Y85849500D01*
X26530300Y86330500D01*
X27038300Y86330500D01*
X27038300Y85849500D01*
G37*
G36*
X27038300Y45979500D02*
G01*
X26530300Y45979500D01*
X26530300Y46460500D01*
X27038300Y46460500D01*
X27038300Y45979500D01*
G37*
%TO.C,JP2*%
G36*
X116938300Y81023500D02*
G01*
X116430300Y81023500D01*
X116430300Y81504500D01*
X116938300Y81504500D01*
X116938300Y81023500D01*
G37*
G36*
X116938300Y41153500D02*
G01*
X116430300Y41153500D01*
X116430300Y41634500D01*
X116938300Y41634500D01*
X116938300Y41153500D01*
G37*
G36*
X116938300Y1283500D02*
G01*
X116430300Y1283500D01*
X116430300Y1764500D01*
X116938300Y1764500D01*
X116938300Y1283500D01*
G37*
G36*
X71988300Y81023500D02*
G01*
X71480300Y81023500D01*
X71480300Y81504500D01*
X71988300Y81504500D01*
X71988300Y81023500D01*
G37*
G36*
X71988300Y41153500D02*
G01*
X71480300Y41153500D01*
X71480300Y41634500D01*
X71988300Y41634500D01*
X71988300Y41153500D01*
G37*
G36*
X71988300Y1283500D02*
G01*
X71480300Y1283500D01*
X71480300Y1764500D01*
X71988300Y1764500D01*
X71988300Y1283500D01*
G37*
G36*
X27038300Y81023500D02*
G01*
X26530300Y81023500D01*
X26530300Y81504500D01*
X27038300Y81504500D01*
X27038300Y81023500D01*
G37*
G36*
X27038300Y41153500D02*
G01*
X26530300Y41153500D01*
X26530300Y41634500D01*
X27038300Y41634500D01*
X27038300Y41153500D01*
G37*
%TO.C,JP4*%
G36*
X97139000Y111884500D02*
G01*
X96631000Y111884500D01*
X96631000Y112365500D01*
X97139000Y112365500D01*
X97139000Y111884500D01*
G37*
G36*
X97139000Y72014500D02*
G01*
X96631000Y72014500D01*
X96631000Y72495500D01*
X97139000Y72495500D01*
X97139000Y72014500D01*
G37*
G36*
X97139000Y32144500D02*
G01*
X96631000Y32144500D01*
X96631000Y32625500D01*
X97139000Y32625500D01*
X97139000Y32144500D01*
G37*
G36*
X52189000Y111884500D02*
G01*
X51681000Y111884500D01*
X51681000Y112365500D01*
X52189000Y112365500D01*
X52189000Y111884500D01*
G37*
G36*
X52189000Y72014500D02*
G01*
X51681000Y72014500D01*
X51681000Y72495500D01*
X52189000Y72495500D01*
X52189000Y72014500D01*
G37*
G36*
X52189000Y32144500D02*
G01*
X51681000Y32144500D01*
X51681000Y32625500D01*
X52189000Y32625500D01*
X52189000Y32144500D01*
G37*
G36*
X7239000Y111884500D02*
G01*
X6731000Y111884500D01*
X6731000Y112365500D01*
X7239000Y112365500D01*
X7239000Y111884500D01*
G37*
G36*
X7239000Y72014500D02*
G01*
X6731000Y72014500D01*
X6731000Y72495500D01*
X7239000Y72495500D01*
X7239000Y72014500D01*
G37*
%TO.C,JP6*%
G36*
X133320500Y94726000D02*
G01*
X132839500Y94726000D01*
X132839500Y95234000D01*
X133320500Y95234000D01*
X133320500Y94726000D01*
G37*
G36*
X133320500Y54856000D02*
G01*
X132839500Y54856000D01*
X132839500Y55364000D01*
X133320500Y55364000D01*
X133320500Y54856000D01*
G37*
G36*
X133320500Y14986000D02*
G01*
X132839500Y14986000D01*
X132839500Y15494000D01*
X133320500Y15494000D01*
X133320500Y14986000D01*
G37*
G36*
X88370500Y94726000D02*
G01*
X87889500Y94726000D01*
X87889500Y95234000D01*
X88370500Y95234000D01*
X88370500Y94726000D01*
G37*
G36*
X88370500Y54856000D02*
G01*
X87889500Y54856000D01*
X87889500Y55364000D01*
X88370500Y55364000D01*
X88370500Y54856000D01*
G37*
G36*
X88370500Y14986000D02*
G01*
X87889500Y14986000D01*
X87889500Y15494000D01*
X88370500Y15494000D01*
X88370500Y14986000D01*
G37*
G36*
X43420500Y94726000D02*
G01*
X42939500Y94726000D01*
X42939500Y95234000D01*
X43420500Y95234000D01*
X43420500Y94726000D01*
G37*
G36*
X43420500Y54856000D02*
G01*
X42939500Y54856000D01*
X42939500Y55364000D01*
X43420500Y55364000D01*
X43420500Y54856000D01*
G37*
%TO.C,JP5*%
G36*
X101707000Y109367500D02*
G01*
X101199000Y109367500D01*
X101199000Y109848500D01*
X101707000Y109848500D01*
X101707000Y109367500D01*
G37*
G36*
X102739700Y109344500D02*
G01*
X102231700Y109344500D01*
X102231700Y109825500D01*
X102739700Y109825500D01*
X102739700Y109344500D01*
G37*
G36*
X101707000Y69497500D02*
G01*
X101199000Y69497500D01*
X101199000Y69978500D01*
X101707000Y69978500D01*
X101707000Y69497500D01*
G37*
G36*
X102739700Y69474500D02*
G01*
X102231700Y69474500D01*
X102231700Y69955500D01*
X102739700Y69955500D01*
X102739700Y69474500D01*
G37*
G36*
X101707000Y29627500D02*
G01*
X101199000Y29627500D01*
X101199000Y30108500D01*
X101707000Y30108500D01*
X101707000Y29627500D01*
G37*
G36*
X102739700Y29604500D02*
G01*
X102231700Y29604500D01*
X102231700Y30085500D01*
X102739700Y30085500D01*
X102739700Y29604500D01*
G37*
G36*
X56757000Y109367500D02*
G01*
X56249000Y109367500D01*
X56249000Y109848500D01*
X56757000Y109848500D01*
X56757000Y109367500D01*
G37*
G36*
X57789700Y109344500D02*
G01*
X57281700Y109344500D01*
X57281700Y109825500D01*
X57789700Y109825500D01*
X57789700Y109344500D01*
G37*
G36*
X56757000Y69497500D02*
G01*
X56249000Y69497500D01*
X56249000Y69978500D01*
X56757000Y69978500D01*
X56757000Y69497500D01*
G37*
G36*
X57789700Y69474500D02*
G01*
X57281700Y69474500D01*
X57281700Y69955500D01*
X57789700Y69955500D01*
X57789700Y69474500D01*
G37*
G36*
X56757000Y29627500D02*
G01*
X56249000Y29627500D01*
X56249000Y30108500D01*
X56757000Y30108500D01*
X56757000Y29627500D01*
G37*
G36*
X57789700Y29604500D02*
G01*
X57281700Y29604500D01*
X57281700Y30085500D01*
X57789700Y30085500D01*
X57789700Y29604500D01*
G37*
G36*
X11807000Y109367500D02*
G01*
X11299000Y109367500D01*
X11299000Y109848500D01*
X11807000Y109848500D01*
X11807000Y109367500D01*
G37*
G36*
X12839700Y109344500D02*
G01*
X12331700Y109344500D01*
X12331700Y109825500D01*
X12839700Y109825500D01*
X12839700Y109344500D01*
G37*
G36*
X11807000Y69497500D02*
G01*
X11299000Y69497500D01*
X11299000Y69978500D01*
X11807000Y69978500D01*
X11807000Y69497500D01*
G37*
G36*
X12839700Y69474500D02*
G01*
X12331700Y69474500D01*
X12331700Y69955500D01*
X12839700Y69955500D01*
X12839700Y69474500D01*
G37*
G36*
X11807000Y29627500D02*
G01*
X11299000Y29627500D01*
X11299000Y30108500D01*
X11807000Y30108500D01*
X11807000Y29627500D01*
G37*
G36*
X12839700Y29604500D02*
G01*
X12331700Y29604500D01*
X12331700Y30085500D01*
X12839700Y30085500D01*
X12839700Y29604500D01*
G37*
%TO.C,JP6*%
G36*
X43420500Y14986000D02*
G01*
X42939500Y14986000D01*
X42939500Y15494000D01*
X43420500Y15494000D01*
X43420500Y14986000D01*
G37*
%TO.C,JP4*%
G36*
X7239000Y32144500D02*
G01*
X6731000Y32144500D01*
X6731000Y32625500D01*
X7239000Y32625500D01*
X7239000Y32144500D01*
G37*
%TO.C,JP2*%
G36*
X27038300Y1283500D02*
G01*
X26530300Y1283500D01*
X26530300Y1764500D01*
X27038300Y1764500D01*
X27038300Y1283500D01*
G37*
%TO.C,JP1*%
G36*
X27038300Y6109500D02*
G01*
X26530300Y6109500D01*
X26530300Y6590500D01*
X27038300Y6590500D01*
X27038300Y6109500D01*
G37*
%TD*%
D11*
%TO.C,*%
X138050000Y117135000D03*
%TD*%
%TO.C,*%
X-3700000Y117135000D03*
%TD*%
%TO.C,*%
X-3700000Y705000D03*
%TD*%
D12*
%TO.C,FID3*%
X133080000Y86090000D03*
%TD*%
%TO.C,FID3*%
X133080000Y46220000D03*
%TD*%
%TO.C,FID3*%
X133080000Y6350000D03*
%TD*%
%TO.C,FID3*%
X88130000Y86090000D03*
%TD*%
%TO.C,FID3*%
X88130000Y46220000D03*
%TD*%
%TO.C,FID3*%
X88130000Y6350000D03*
%TD*%
%TO.C,FID3*%
X43180000Y86090000D03*
%TD*%
%TO.C,FID3*%
X43180000Y46220000D03*
%TD*%
D13*
%TO.C,TP5*%
X91932000Y109966000D03*
%TD*%
%TO.C,TP5*%
X91932000Y70096000D03*
%TD*%
%TO.C,TP5*%
X91932000Y30226000D03*
%TD*%
%TO.C,TP5*%
X46982000Y109966000D03*
%TD*%
%TO.C,TP5*%
X46982000Y70096000D03*
%TD*%
%TO.C,TP5*%
X46982000Y30226000D03*
%TD*%
%TO.C,TP5*%
X2032000Y109966000D03*
%TD*%
%TO.C,TP5*%
X2032000Y70096000D03*
%TD*%
D14*
%TO.C,JP1*%
X116163600Y86090000D03*
X117205000Y86090000D03*
D15*
X118246400Y86090000D03*
%TD*%
D14*
%TO.C,JP1*%
X116163600Y46220000D03*
X117205000Y46220000D03*
D15*
X118246400Y46220000D03*
%TD*%
D14*
%TO.C,JP1*%
X116163600Y6350000D03*
X117205000Y6350000D03*
D15*
X118246400Y6350000D03*
%TD*%
D14*
%TO.C,JP1*%
X71213600Y86090000D03*
X72255000Y86090000D03*
D15*
X73296400Y86090000D03*
%TD*%
D14*
%TO.C,JP1*%
X71213600Y46220000D03*
X72255000Y46220000D03*
D15*
X73296400Y46220000D03*
%TD*%
D14*
%TO.C,JP1*%
X71213600Y6350000D03*
X72255000Y6350000D03*
D15*
X73296400Y6350000D03*
%TD*%
D14*
%TO.C,JP1*%
X26263600Y86090000D03*
X27305000Y86090000D03*
D15*
X28346400Y86090000D03*
%TD*%
D14*
%TO.C,JP1*%
X26263600Y46220000D03*
X27305000Y46220000D03*
D15*
X28346400Y46220000D03*
%TD*%
D14*
%TO.C,JP2*%
X116163600Y81264000D03*
X117205000Y81264000D03*
D15*
X118246400Y81264000D03*
%TD*%
D14*
%TO.C,JP2*%
X116163600Y41394000D03*
X117205000Y41394000D03*
D15*
X118246400Y41394000D03*
%TD*%
D14*
%TO.C,JP2*%
X116163600Y1524000D03*
X117205000Y1524000D03*
D15*
X118246400Y1524000D03*
%TD*%
D14*
%TO.C,JP2*%
X71213600Y81264000D03*
X72255000Y81264000D03*
D15*
X73296400Y81264000D03*
%TD*%
D14*
%TO.C,JP2*%
X71213600Y41394000D03*
X72255000Y41394000D03*
D15*
X73296400Y41394000D03*
%TD*%
D14*
%TO.C,JP2*%
X71213600Y1524000D03*
X72255000Y1524000D03*
D15*
X73296400Y1524000D03*
%TD*%
D14*
%TO.C,JP2*%
X26263600Y81264000D03*
X27305000Y81264000D03*
D15*
X28346400Y81264000D03*
%TD*%
D14*
%TO.C,JP2*%
X26263600Y41394000D03*
X27305000Y41394000D03*
D15*
X28346400Y41394000D03*
%TD*%
D12*
%TO.C,FID4*%
X91170000Y111490000D03*
%TD*%
%TO.C,FID4*%
X91170000Y71620000D03*
%TD*%
%TO.C,FID4*%
X91170000Y31750000D03*
%TD*%
%TO.C,FID4*%
X46220000Y111490000D03*
%TD*%
%TO.C,FID4*%
X46220000Y71620000D03*
%TD*%
%TO.C,FID4*%
X46220000Y31750000D03*
%TD*%
%TO.C,FID4*%
X1270000Y111490000D03*
%TD*%
%TO.C,FID4*%
X1270000Y71620000D03*
%TD*%
D14*
%TO.C,JP4*%
X96364300Y112125000D03*
X97405700Y112125000D03*
%TD*%
%TO.C,JP4*%
X96364300Y72255000D03*
X97405700Y72255000D03*
%TD*%
%TO.C,JP4*%
X96364300Y32385000D03*
X97405700Y32385000D03*
%TD*%
%TO.C,JP4*%
X51414300Y112125000D03*
X52455700Y112125000D03*
%TD*%
%TO.C,JP4*%
X51414300Y72255000D03*
X52455700Y72255000D03*
%TD*%
%TO.C,JP4*%
X51414300Y32385000D03*
X52455700Y32385000D03*
%TD*%
%TO.C,JP4*%
X6464300Y112125000D03*
X7505700Y112125000D03*
%TD*%
%TO.C,JP4*%
X6464300Y72255000D03*
X7505700Y72255000D03*
%TD*%
D16*
%TO.C,U7*%
X113135000Y99425000D03*
X113135000Y100695000D03*
X113135000Y101965000D03*
X113135000Y103235000D03*
X118735000Y103235000D03*
X118735000Y101965000D03*
X118735000Y100695000D03*
X118735000Y99425000D03*
%TD*%
%TO.C,U7*%
X113135000Y59555000D03*
X113135000Y60825000D03*
X113135000Y62095000D03*
X113135000Y63365000D03*
X118735000Y63365000D03*
X118735000Y62095000D03*
X118735000Y60825000D03*
X118735000Y59555000D03*
%TD*%
%TO.C,U7*%
X113135000Y19685000D03*
X113135000Y20955000D03*
X113135000Y22225000D03*
X113135000Y23495000D03*
X118735000Y23495000D03*
X118735000Y22225000D03*
X118735000Y20955000D03*
X118735000Y19685000D03*
%TD*%
%TO.C,U7*%
X68185000Y99425000D03*
X68185000Y100695000D03*
X68185000Y101965000D03*
X68185000Y103235000D03*
X73785000Y103235000D03*
X73785000Y101965000D03*
X73785000Y100695000D03*
X73785000Y99425000D03*
%TD*%
%TO.C,U7*%
X68185000Y59555000D03*
X68185000Y60825000D03*
X68185000Y62095000D03*
X68185000Y63365000D03*
X73785000Y63365000D03*
X73785000Y62095000D03*
X73785000Y60825000D03*
X73785000Y59555000D03*
%TD*%
%TO.C,U7*%
X68185000Y19685000D03*
X68185000Y20955000D03*
X68185000Y22225000D03*
X68185000Y23495000D03*
X73785000Y23495000D03*
X73785000Y22225000D03*
X73785000Y20955000D03*
X73785000Y19685000D03*
%TD*%
%TO.C,U7*%
X23235000Y99425000D03*
X23235000Y100695000D03*
X23235000Y101965000D03*
X23235000Y103235000D03*
X28835000Y103235000D03*
X28835000Y101965000D03*
X28835000Y100695000D03*
X28835000Y99425000D03*
%TD*%
%TO.C,U7*%
X23235000Y59555000D03*
X23235000Y60825000D03*
X23235000Y62095000D03*
X23235000Y63365000D03*
X28835000Y63365000D03*
X28835000Y62095000D03*
X28835000Y60825000D03*
X28835000Y59555000D03*
%TD*%
D17*
%TO.C,JP3*%
X103108000Y88071200D03*
X103920800Y88071200D03*
%TD*%
%TO.C,JP3*%
X103108000Y48201200D03*
X103920800Y48201200D03*
%TD*%
%TO.C,JP3*%
X103108000Y8331200D03*
X103920800Y8331200D03*
%TD*%
%TO.C,JP3*%
X58158000Y88071200D03*
X58970800Y88071200D03*
%TD*%
%TO.C,JP3*%
X58158000Y48201200D03*
X58970800Y48201200D03*
%TD*%
%TO.C,JP3*%
X58158000Y8331200D03*
X58970800Y8331200D03*
%TD*%
%TO.C,JP3*%
X13208000Y88071200D03*
X14020800Y88071200D03*
%TD*%
%TO.C,JP3*%
X13208000Y48201200D03*
X14020800Y48201200D03*
%TD*%
D18*
%TO.C,R9*%
X108825000Y100060000D03*
X107805000Y100060000D03*
%TD*%
%TO.C,R9*%
X108825000Y60190000D03*
X107805000Y60190000D03*
%TD*%
%TO.C,R9*%
X108825000Y20320000D03*
X107805000Y20320000D03*
%TD*%
%TO.C,R9*%
X63875000Y100060000D03*
X62855000Y100060000D03*
%TD*%
%TO.C,R9*%
X63875000Y60190000D03*
X62855000Y60190000D03*
%TD*%
%TO.C,R9*%
X63875000Y20320000D03*
X62855000Y20320000D03*
%TD*%
%TO.C,R9*%
X18925000Y100060000D03*
X17905000Y100060000D03*
%TD*%
%TO.C,R9*%
X18925000Y60190000D03*
X17905000Y60190000D03*
%TD*%
D13*
%TO.C,TP2*%
X128000000Y89138000D03*
%TD*%
%TO.C,TP2*%
X128000000Y49268000D03*
%TD*%
%TO.C,TP2*%
X128000000Y9398000D03*
%TD*%
%TO.C,TP2*%
X83050000Y89138000D03*
%TD*%
%TO.C,TP2*%
X83050000Y49268000D03*
%TD*%
%TO.C,TP2*%
X83050000Y9398000D03*
%TD*%
%TO.C,TP2*%
X38100000Y89138000D03*
%TD*%
%TO.C,TP2*%
X38100000Y49268000D03*
%TD*%
D18*
%TO.C,R12*%
X108825000Y94980000D03*
X107805000Y94980000D03*
%TD*%
%TO.C,R12*%
X108825000Y55110000D03*
X107805000Y55110000D03*
%TD*%
%TO.C,R12*%
X108825000Y15240000D03*
X107805000Y15240000D03*
%TD*%
%TO.C,R12*%
X63875000Y94980000D03*
X62855000Y94980000D03*
%TD*%
%TO.C,R12*%
X63875000Y55110000D03*
X62855000Y55110000D03*
%TD*%
%TO.C,R12*%
X63875000Y15240000D03*
X62855000Y15240000D03*
%TD*%
%TO.C,R12*%
X18925000Y94980000D03*
X17905000Y94980000D03*
%TD*%
%TO.C,R12*%
X18925000Y55110000D03*
X17905000Y55110000D03*
%TD*%
D13*
%TO.C,TP1*%
X96250000Y90535000D03*
%TD*%
%TO.C,TP1*%
X96250000Y50665000D03*
%TD*%
%TO.C,TP1*%
X96250000Y10795000D03*
%TD*%
%TO.C,TP1*%
X51300000Y90535000D03*
%TD*%
%TO.C,TP1*%
X51300000Y50665000D03*
%TD*%
%TO.C,TP1*%
X51300000Y10795000D03*
%TD*%
%TO.C,TP1*%
X6350000Y90535000D03*
%TD*%
%TO.C,TP1*%
X6350000Y50665000D03*
%TD*%
D18*
%TO.C,R10*%
X108825000Y96250000D03*
X107805000Y96250000D03*
%TD*%
%TO.C,R10*%
X108825000Y56380000D03*
X107805000Y56380000D03*
%TD*%
%TO.C,R10*%
X108825000Y16510000D03*
X107805000Y16510000D03*
%TD*%
%TO.C,R10*%
X63875000Y96250000D03*
X62855000Y96250000D03*
%TD*%
%TO.C,R10*%
X63875000Y56380000D03*
X62855000Y56380000D03*
%TD*%
%TO.C,R10*%
X63875000Y16510000D03*
X62855000Y16510000D03*
%TD*%
%TO.C,R10*%
X18925000Y96250000D03*
X17905000Y96250000D03*
%TD*%
%TO.C,R10*%
X18925000Y56380000D03*
X17905000Y56380000D03*
%TD*%
D19*
%TO.C,JP6*%
X133080000Y95500700D03*
X133080000Y94459300D03*
%TD*%
%TO.C,JP6*%
X133080000Y55630700D03*
X133080000Y54589300D03*
%TD*%
%TO.C,JP6*%
X133080000Y15760700D03*
X133080000Y14719300D03*
%TD*%
%TO.C,JP6*%
X88130000Y95500700D03*
X88130000Y94459300D03*
%TD*%
%TO.C,JP6*%
X88130000Y55630700D03*
X88130000Y54589300D03*
%TD*%
%TO.C,JP6*%
X88130000Y15760700D03*
X88130000Y14719300D03*
%TD*%
%TO.C,JP6*%
X43180000Y95500700D03*
X43180000Y94459300D03*
%TD*%
%TO.C,JP6*%
X43180000Y55630700D03*
X43180000Y54589300D03*
%TD*%
D12*
%TO.C,J5*%
X94345000Y95110000D03*
X94345000Y103110000D03*
D20*
X104845000Y102310000D03*
X104845000Y101210000D03*
X104845000Y100110000D03*
X104845000Y99010000D03*
X104845000Y97910000D03*
X104845000Y96810000D03*
X104845000Y95710000D03*
X104845000Y94610000D03*
X104845000Y93510000D03*
D21*
X104245000Y92310000D03*
D22*
X94745000Y92310000D03*
X94745000Y107810000D03*
D23*
X104345000Y106910000D03*
%TD*%
D12*
%TO.C,J5*%
X94345000Y55240000D03*
X94345000Y63240000D03*
D20*
X104845000Y62440000D03*
X104845000Y61340000D03*
X104845000Y60240000D03*
X104845000Y59140000D03*
X104845000Y58040000D03*
X104845000Y56940000D03*
X104845000Y55840000D03*
X104845000Y54740000D03*
X104845000Y53640000D03*
D21*
X104245000Y52440000D03*
D22*
X94745000Y52440000D03*
X94745000Y67940000D03*
D23*
X104345000Y67040000D03*
%TD*%
D12*
%TO.C,J5*%
X94345000Y15370000D03*
X94345000Y23370000D03*
D20*
X104845000Y22570000D03*
X104845000Y21470000D03*
X104845000Y20370000D03*
X104845000Y19270000D03*
X104845000Y18170000D03*
X104845000Y17070000D03*
X104845000Y15970000D03*
X104845000Y14870000D03*
X104845000Y13770000D03*
D21*
X104245000Y12570000D03*
D22*
X94745000Y12570000D03*
X94745000Y28070000D03*
D23*
X104345000Y27170000D03*
%TD*%
D12*
%TO.C,J5*%
X49395000Y95110000D03*
X49395000Y103110000D03*
D20*
X59895000Y102310000D03*
X59895000Y101210000D03*
X59895000Y100110000D03*
X59895000Y99010000D03*
X59895000Y97910000D03*
X59895000Y96810000D03*
X59895000Y95710000D03*
X59895000Y94610000D03*
X59895000Y93510000D03*
D21*
X59295000Y92310000D03*
D22*
X49795000Y92310000D03*
X49795000Y107810000D03*
D23*
X59395000Y106910000D03*
%TD*%
D12*
%TO.C,J5*%
X49395000Y55240000D03*
X49395000Y63240000D03*
D20*
X59895000Y62440000D03*
X59895000Y61340000D03*
X59895000Y60240000D03*
X59895000Y59140000D03*
X59895000Y58040000D03*
X59895000Y56940000D03*
X59895000Y55840000D03*
X59895000Y54740000D03*
X59895000Y53640000D03*
D21*
X59295000Y52440000D03*
D22*
X49795000Y52440000D03*
X49795000Y67940000D03*
D23*
X59395000Y67040000D03*
%TD*%
D12*
%TO.C,J5*%
X49395000Y15370000D03*
X49395000Y23370000D03*
D20*
X59895000Y22570000D03*
X59895000Y21470000D03*
X59895000Y20370000D03*
X59895000Y19270000D03*
X59895000Y18170000D03*
X59895000Y17070000D03*
X59895000Y15970000D03*
X59895000Y14870000D03*
X59895000Y13770000D03*
D21*
X59295000Y12570000D03*
D22*
X49795000Y12570000D03*
X49795000Y28070000D03*
D23*
X59395000Y27170000D03*
%TD*%
D12*
%TO.C,J5*%
X4445000Y95110000D03*
X4445000Y103110000D03*
D20*
X14945000Y102310000D03*
X14945000Y101210000D03*
X14945000Y100110000D03*
X14945000Y99010000D03*
X14945000Y97910000D03*
X14945000Y96810000D03*
X14945000Y95710000D03*
X14945000Y94610000D03*
X14945000Y93510000D03*
D21*
X14345000Y92310000D03*
D22*
X4845000Y92310000D03*
X4845000Y107810000D03*
D23*
X14445000Y106910000D03*
%TD*%
D12*
%TO.C,J5*%
X4445000Y55240000D03*
X4445000Y63240000D03*
D20*
X14945000Y62440000D03*
X14945000Y61340000D03*
X14945000Y60240000D03*
X14945000Y59140000D03*
X14945000Y58040000D03*
X14945000Y56940000D03*
X14945000Y55840000D03*
X14945000Y54740000D03*
X14945000Y53640000D03*
D21*
X14345000Y52440000D03*
D22*
X4845000Y52440000D03*
X4845000Y67940000D03*
D23*
X14445000Y67040000D03*
%TD*%
D18*
%TO.C,R13*%
X108825000Y102600000D03*
X107805000Y102600000D03*
%TD*%
%TO.C,R13*%
X108825000Y62730000D03*
X107805000Y62730000D03*
%TD*%
%TO.C,R13*%
X108825000Y22860000D03*
X107805000Y22860000D03*
%TD*%
%TO.C,R13*%
X63875000Y102600000D03*
X62855000Y102600000D03*
%TD*%
%TO.C,R13*%
X63875000Y62730000D03*
X62855000Y62730000D03*
%TD*%
%TO.C,R13*%
X63875000Y22860000D03*
X62855000Y22860000D03*
%TD*%
%TO.C,R13*%
X18925000Y102600000D03*
X17905000Y102600000D03*
%TD*%
%TO.C,R13*%
X18925000Y62730000D03*
X17905000Y62730000D03*
%TD*%
D13*
%TO.C,TP4*%
X94980000Y109966000D03*
%TD*%
%TO.C,TP4*%
X94980000Y70096000D03*
%TD*%
%TO.C,TP4*%
X94980000Y30226000D03*
%TD*%
%TO.C,TP4*%
X50030000Y109966000D03*
%TD*%
%TO.C,TP4*%
X50030000Y70096000D03*
%TD*%
%TO.C,TP4*%
X50030000Y30226000D03*
%TD*%
%TO.C,TP4*%
X5080000Y109966000D03*
%TD*%
%TO.C,TP4*%
X5080000Y70096000D03*
%TD*%
D24*
%TO.C,C25*%
X108795000Y97520000D03*
X107835000Y97520000D03*
%TD*%
%TO.C,C25*%
X108795000Y57650000D03*
X107835000Y57650000D03*
%TD*%
%TO.C,C25*%
X108795000Y17780000D03*
X107835000Y17780000D03*
%TD*%
%TO.C,C25*%
X63845000Y97520000D03*
X62885000Y97520000D03*
%TD*%
%TO.C,C25*%
X63845000Y57650000D03*
X62885000Y57650000D03*
%TD*%
%TO.C,C25*%
X63845000Y17780000D03*
X62885000Y17780000D03*
%TD*%
%TO.C,C25*%
X18895000Y97520000D03*
X17935000Y97520000D03*
%TD*%
%TO.C,C25*%
X18895000Y57650000D03*
X17935000Y57650000D03*
%TD*%
D15*
%TO.C,JP5*%
X103006400Y109585000D03*
X101965000Y109585000D03*
D14*
X100923600Y109585000D03*
%TD*%
D15*
%TO.C,JP5*%
X103006400Y69715000D03*
X101965000Y69715000D03*
D14*
X100923600Y69715000D03*
%TD*%
D15*
%TO.C,JP5*%
X103006400Y29845000D03*
X101965000Y29845000D03*
D14*
X100923600Y29845000D03*
%TD*%
D15*
%TO.C,JP5*%
X58056400Y109585000D03*
X57015000Y109585000D03*
D14*
X55973600Y109585000D03*
%TD*%
D15*
%TO.C,JP5*%
X58056400Y69715000D03*
X57015000Y69715000D03*
D14*
X55973600Y69715000D03*
%TD*%
D15*
%TO.C,JP5*%
X58056400Y29845000D03*
X57015000Y29845000D03*
D14*
X55973600Y29845000D03*
%TD*%
D15*
%TO.C,JP5*%
X13106400Y109585000D03*
X12065000Y109585000D03*
D14*
X11023600Y109585000D03*
%TD*%
D15*
%TO.C,JP5*%
X13106400Y69715000D03*
X12065000Y69715000D03*
D14*
X11023600Y69715000D03*
%TD*%
D25*
%TO.C,C28*%
X118475000Y97365000D03*
X118475000Y96405000D03*
%TD*%
%TO.C,C28*%
X118475000Y57495000D03*
X118475000Y56535000D03*
%TD*%
%TO.C,C28*%
X118475000Y17625000D03*
X118475000Y16665000D03*
%TD*%
%TO.C,C28*%
X73525000Y97365000D03*
X73525000Y96405000D03*
%TD*%
%TO.C,C28*%
X73525000Y57495000D03*
X73525000Y56535000D03*
%TD*%
%TO.C,C28*%
X73525000Y17625000D03*
X73525000Y16665000D03*
%TD*%
%TO.C,C28*%
X28575000Y97365000D03*
X28575000Y96405000D03*
%TD*%
%TO.C,C28*%
X28575000Y57495000D03*
X28575000Y56535000D03*
%TD*%
D13*
%TO.C,TP3*%
X114792000Y87487000D03*
%TD*%
%TO.C,TP3*%
X114792000Y47617000D03*
%TD*%
%TO.C,TP3*%
X114792000Y7747000D03*
%TD*%
%TO.C,TP3*%
X69842000Y87487000D03*
%TD*%
%TO.C,TP3*%
X69842000Y47617000D03*
%TD*%
%TO.C,TP3*%
X69842000Y7747000D03*
%TD*%
%TO.C,TP3*%
X24892000Y87487000D03*
%TD*%
%TO.C,TP3*%
X24892000Y47617000D03*
%TD*%
D18*
%TO.C,R16*%
X108825000Y93710000D03*
X107805000Y93710000D03*
%TD*%
%TO.C,R16*%
X108825000Y53840000D03*
X107805000Y53840000D03*
%TD*%
%TO.C,R16*%
X108825000Y13970000D03*
X107805000Y13970000D03*
%TD*%
%TO.C,R16*%
X63875000Y93710000D03*
X62855000Y93710000D03*
%TD*%
%TO.C,R16*%
X63875000Y53840000D03*
X62855000Y53840000D03*
%TD*%
%TO.C,R16*%
X63875000Y13970000D03*
X62855000Y13970000D03*
%TD*%
%TO.C,R16*%
X18925000Y93710000D03*
X17905000Y93710000D03*
%TD*%
%TO.C,R16*%
X18925000Y53840000D03*
X17905000Y53840000D03*
%TD*%
%TO.C,R14*%
X108825000Y101330000D03*
X107805000Y101330000D03*
%TD*%
%TO.C,R14*%
X108825000Y61460000D03*
X107805000Y61460000D03*
%TD*%
%TO.C,R14*%
X108825000Y21590000D03*
X107805000Y21590000D03*
%TD*%
%TO.C,R14*%
X63875000Y101330000D03*
X62855000Y101330000D03*
%TD*%
%TO.C,R14*%
X63875000Y61460000D03*
X62855000Y61460000D03*
%TD*%
%TO.C,R14*%
X63875000Y21590000D03*
X62855000Y21590000D03*
%TD*%
%TO.C,R14*%
X18925000Y101330000D03*
X17905000Y101330000D03*
%TD*%
%TO.C,R14*%
X18925000Y61460000D03*
X17905000Y61460000D03*
%TD*%
D26*
%TO.C,J2*%
X105425000Y85280000D03*
X111205000Y85280000D03*
D27*
X103997000Y81630000D03*
D28*
X103997000Y85810000D03*
X112633000Y85810000D03*
D27*
X112633000Y81630000D03*
%TD*%
D26*
%TO.C,J2*%
X105425000Y45410000D03*
X111205000Y45410000D03*
D27*
X103997000Y41760000D03*
D28*
X103997000Y45940000D03*
X112633000Y45940000D03*
D27*
X112633000Y41760000D03*
%TD*%
D26*
%TO.C,J2*%
X105425000Y5540000D03*
X111205000Y5540000D03*
D27*
X103997000Y1890000D03*
D28*
X103997000Y6070000D03*
X112633000Y6070000D03*
D27*
X112633000Y1890000D03*
%TD*%
D26*
%TO.C,J2*%
X60475000Y85280000D03*
X66255000Y85280000D03*
D27*
X59047000Y81630000D03*
D28*
X59047000Y85810000D03*
X67683000Y85810000D03*
D27*
X67683000Y81630000D03*
%TD*%
D26*
%TO.C,J2*%
X60475000Y45410000D03*
X66255000Y45410000D03*
D27*
X59047000Y41760000D03*
D28*
X59047000Y45940000D03*
X67683000Y45940000D03*
D27*
X67683000Y41760000D03*
%TD*%
D26*
%TO.C,J2*%
X60475000Y5540000D03*
X66255000Y5540000D03*
D27*
X59047000Y1890000D03*
D28*
X59047000Y6070000D03*
X67683000Y6070000D03*
D27*
X67683000Y1890000D03*
%TD*%
D26*
%TO.C,J2*%
X15525000Y85280000D03*
X21305000Y85280000D03*
D27*
X14097000Y81630000D03*
D28*
X14097000Y85810000D03*
X22733000Y85810000D03*
D27*
X22733000Y81630000D03*
%TD*%
D26*
%TO.C,J2*%
X15525000Y45410000D03*
X21305000Y45410000D03*
D27*
X14097000Y41760000D03*
D28*
X14097000Y45940000D03*
X22733000Y45940000D03*
D27*
X22733000Y41760000D03*
%TD*%
D29*
%TO.C,ST4*%
X92440000Y115300000D03*
%TD*%
%TO.C,ST4*%
X92440000Y75430000D03*
%TD*%
%TO.C,ST4*%
X92440000Y35560000D03*
%TD*%
%TO.C,ST4*%
X47490000Y115300000D03*
%TD*%
%TO.C,ST4*%
X47490000Y75430000D03*
%TD*%
%TO.C,ST4*%
X47490000Y35560000D03*
%TD*%
%TO.C,ST4*%
X2540000Y115300000D03*
%TD*%
%TO.C,ST4*%
X2540000Y75430000D03*
%TD*%
D30*
%TO.C,J10*%
X117205000Y114030000D03*
X117205000Y116570000D03*
%TD*%
%TO.C,J10*%
X117205000Y74160000D03*
X117205000Y76700000D03*
%TD*%
%TO.C,J10*%
X117205000Y34290000D03*
X117205000Y36830000D03*
%TD*%
%TO.C,J10*%
X72255000Y114030000D03*
X72255000Y116570000D03*
%TD*%
%TO.C,J10*%
X72255000Y74160000D03*
X72255000Y76700000D03*
%TD*%
%TO.C,J10*%
X72255000Y34290000D03*
X72255000Y36830000D03*
%TD*%
%TO.C,J10*%
X27305000Y114030000D03*
X27305000Y116570000D03*
%TD*%
%TO.C,J10*%
X27305000Y74160000D03*
X27305000Y76700000D03*
%TD*%
D29*
%TO.C,ST1*%
X92440000Y82280000D03*
%TD*%
%TO.C,ST1*%
X92440000Y42410000D03*
%TD*%
%TO.C,ST1*%
X92440000Y2540000D03*
%TD*%
%TO.C,ST1*%
X47490000Y82280000D03*
%TD*%
%TO.C,ST1*%
X47490000Y42410000D03*
%TD*%
%TO.C,ST1*%
X47490000Y2540000D03*
%TD*%
%TO.C,ST1*%
X2540000Y82280000D03*
%TD*%
%TO.C,ST1*%
X2540000Y42410000D03*
%TD*%
%TO.C,ST2*%
X131810000Y82280000D03*
%TD*%
%TO.C,ST2*%
X131810000Y42410000D03*
%TD*%
%TO.C,ST2*%
X131810000Y2540000D03*
%TD*%
%TO.C,ST2*%
X86860000Y82280000D03*
%TD*%
%TO.C,ST2*%
X86860000Y42410000D03*
%TD*%
%TO.C,ST2*%
X86860000Y2540000D03*
%TD*%
%TO.C,ST2*%
X41910000Y82280000D03*
%TD*%
%TO.C,ST2*%
X41910000Y42410000D03*
%TD*%
D30*
%TO.C,J1*%
X123555000Y81010000D03*
X126095000Y81010000D03*
%TD*%
%TO.C,J1*%
X123555000Y41140000D03*
X126095000Y41140000D03*
%TD*%
%TO.C,J1*%
X123555000Y1270000D03*
X126095000Y1270000D03*
%TD*%
%TO.C,J1*%
X78605000Y81010000D03*
X81145000Y81010000D03*
%TD*%
%TO.C,J1*%
X78605000Y41140000D03*
X81145000Y41140000D03*
%TD*%
%TO.C,J1*%
X78605000Y1270000D03*
X81145000Y1270000D03*
%TD*%
%TO.C,J1*%
X33655000Y81010000D03*
X36195000Y81010000D03*
%TD*%
%TO.C,J1*%
X33655000Y41140000D03*
X36195000Y41140000D03*
%TD*%
%TO.C,J6*%
X114665000Y116570000D03*
X112125000Y116570000D03*
X109585000Y116570000D03*
X107045000Y116570000D03*
X104505000Y116570000D03*
X101965000Y116570000D03*
X99425000Y116570000D03*
X96885000Y116570000D03*
%TD*%
%TO.C,J6*%
X114665000Y76700000D03*
X112125000Y76700000D03*
X109585000Y76700000D03*
X107045000Y76700000D03*
X104505000Y76700000D03*
X101965000Y76700000D03*
X99425000Y76700000D03*
X96885000Y76700000D03*
%TD*%
%TO.C,J6*%
X114665000Y36830000D03*
X112125000Y36830000D03*
X109585000Y36830000D03*
X107045000Y36830000D03*
X104505000Y36830000D03*
X101965000Y36830000D03*
X99425000Y36830000D03*
X96885000Y36830000D03*
%TD*%
%TO.C,J6*%
X69715000Y116570000D03*
X67175000Y116570000D03*
X64635000Y116570000D03*
X62095000Y116570000D03*
X59555000Y116570000D03*
X57015000Y116570000D03*
X54475000Y116570000D03*
X51935000Y116570000D03*
%TD*%
%TO.C,J6*%
X69715000Y76700000D03*
X67175000Y76700000D03*
X64635000Y76700000D03*
X62095000Y76700000D03*
X59555000Y76700000D03*
X57015000Y76700000D03*
X54475000Y76700000D03*
X51935000Y76700000D03*
%TD*%
%TO.C,J6*%
X69715000Y36830000D03*
X67175000Y36830000D03*
X64635000Y36830000D03*
X62095000Y36830000D03*
X59555000Y36830000D03*
X57015000Y36830000D03*
X54475000Y36830000D03*
X51935000Y36830000D03*
%TD*%
%TO.C,J6*%
X24765000Y116570000D03*
X22225000Y116570000D03*
X19685000Y116570000D03*
X17145000Y116570000D03*
X14605000Y116570000D03*
X12065000Y116570000D03*
X9525000Y116570000D03*
X6985000Y116570000D03*
%TD*%
%TO.C,J6*%
X24765000Y76700000D03*
X22225000Y76700000D03*
X19685000Y76700000D03*
X17145000Y76700000D03*
X14605000Y76700000D03*
X12065000Y76700000D03*
X9525000Y76700000D03*
X6985000Y76700000D03*
%TD*%
%TO.C,J9*%
X114665000Y114030000D03*
X112125000Y114030000D03*
X109585000Y114030000D03*
X107045000Y114030000D03*
%TD*%
%TO.C,J9*%
X114665000Y74160000D03*
X112125000Y74160000D03*
X109585000Y74160000D03*
X107045000Y74160000D03*
%TD*%
%TO.C,J9*%
X114665000Y34290000D03*
X112125000Y34290000D03*
X109585000Y34290000D03*
X107045000Y34290000D03*
%TD*%
%TO.C,J9*%
X69715000Y114030000D03*
X67175000Y114030000D03*
X64635000Y114030000D03*
X62095000Y114030000D03*
%TD*%
%TO.C,J9*%
X69715000Y74160000D03*
X67175000Y74160000D03*
X64635000Y74160000D03*
X62095000Y74160000D03*
%TD*%
%TO.C,J9*%
X69715000Y34290000D03*
X67175000Y34290000D03*
X64635000Y34290000D03*
X62095000Y34290000D03*
%TD*%
%TO.C,J9*%
X24765000Y114030000D03*
X22225000Y114030000D03*
X19685000Y114030000D03*
X17145000Y114030000D03*
%TD*%
%TO.C,J9*%
X24765000Y74160000D03*
X22225000Y74160000D03*
X19685000Y74160000D03*
X17145000Y74160000D03*
%TD*%
D29*
%TO.C,ST3*%
X131810000Y115300000D03*
%TD*%
%TO.C,ST3*%
X131810000Y75430000D03*
%TD*%
%TO.C,ST3*%
X131810000Y35560000D03*
%TD*%
%TO.C,ST3*%
X86860000Y115300000D03*
%TD*%
%TO.C,ST3*%
X86860000Y75430000D03*
%TD*%
%TO.C,ST3*%
X86860000Y35560000D03*
%TD*%
%TO.C,ST3*%
X41910000Y115300000D03*
%TD*%
%TO.C,ST3*%
X41910000Y75430000D03*
%TD*%
D31*
%TO.C,J7*%
X122275000Y110845000D03*
D32*
X121005000Y110845000D03*
X122275000Y112115000D03*
X121005000Y112115000D03*
X122275000Y113385000D03*
X121005000Y113385000D03*
X122275000Y114655000D03*
X121005000Y114655000D03*
X122275000Y115925000D03*
X121005000Y115925000D03*
%TD*%
D31*
%TO.C,J7*%
X122275000Y70975000D03*
D32*
X121005000Y70975000D03*
X122275000Y72245000D03*
X121005000Y72245000D03*
X122275000Y73515000D03*
X121005000Y73515000D03*
X122275000Y74785000D03*
X121005000Y74785000D03*
X122275000Y76055000D03*
X121005000Y76055000D03*
%TD*%
D31*
%TO.C,J7*%
X122275000Y31105000D03*
D32*
X121005000Y31105000D03*
X122275000Y32375000D03*
X121005000Y32375000D03*
X122275000Y33645000D03*
X121005000Y33645000D03*
X122275000Y34915000D03*
X121005000Y34915000D03*
X122275000Y36185000D03*
X121005000Y36185000D03*
%TD*%
D31*
%TO.C,J7*%
X77325000Y110845000D03*
D32*
X76055000Y110845000D03*
X77325000Y112115000D03*
X76055000Y112115000D03*
X77325000Y113385000D03*
X76055000Y113385000D03*
X77325000Y114655000D03*
X76055000Y114655000D03*
X77325000Y115925000D03*
X76055000Y115925000D03*
%TD*%
D31*
%TO.C,J7*%
X77325000Y70975000D03*
D32*
X76055000Y70975000D03*
X77325000Y72245000D03*
X76055000Y72245000D03*
X77325000Y73515000D03*
X76055000Y73515000D03*
X77325000Y74785000D03*
X76055000Y74785000D03*
X77325000Y76055000D03*
X76055000Y76055000D03*
%TD*%
D31*
%TO.C,J7*%
X77325000Y31105000D03*
D32*
X76055000Y31105000D03*
X77325000Y32375000D03*
X76055000Y32375000D03*
X77325000Y33645000D03*
X76055000Y33645000D03*
X77325000Y34915000D03*
X76055000Y34915000D03*
X77325000Y36185000D03*
X76055000Y36185000D03*
%TD*%
D31*
%TO.C,J7*%
X32375000Y110845000D03*
D32*
X31105000Y110845000D03*
X32375000Y112115000D03*
X31105000Y112115000D03*
X32375000Y113385000D03*
X31105000Y113385000D03*
X32375000Y114655000D03*
X31105000Y114655000D03*
X32375000Y115925000D03*
X31105000Y115925000D03*
%TD*%
D31*
%TO.C,J7*%
X32375000Y70975000D03*
D32*
X31105000Y70975000D03*
X32375000Y72245000D03*
X31105000Y72245000D03*
X32375000Y73515000D03*
X31105000Y73515000D03*
X32375000Y74785000D03*
X31105000Y74785000D03*
X32375000Y76055000D03*
X31105000Y76055000D03*
%TD*%
D30*
%TO.C,J8*%
X133080000Y104505000D03*
X133080000Y107045000D03*
X133080000Y109585000D03*
%TD*%
%TO.C,J8*%
X133080000Y64635000D03*
X133080000Y67175000D03*
X133080000Y69715000D03*
%TD*%
%TO.C,J8*%
X133080000Y24765000D03*
X133080000Y27305000D03*
X133080000Y29845000D03*
%TD*%
%TO.C,J8*%
X88130000Y104505000D03*
X88130000Y107045000D03*
X88130000Y109585000D03*
%TD*%
%TO.C,J8*%
X88130000Y64635000D03*
X88130000Y67175000D03*
X88130000Y69715000D03*
%TD*%
%TO.C,J8*%
X88130000Y24765000D03*
X88130000Y27305000D03*
X88130000Y29845000D03*
%TD*%
%TO.C,J8*%
X43180000Y104505000D03*
X43180000Y107045000D03*
X43180000Y109585000D03*
%TD*%
%TO.C,J8*%
X43180000Y64635000D03*
X43180000Y67175000D03*
X43180000Y69715000D03*
%TD*%
%TO.C,J8*%
X43180000Y24765000D03*
X43180000Y27305000D03*
X43180000Y29845000D03*
%TD*%
D31*
%TO.C,J7*%
X32375000Y31105000D03*
D32*
X31105000Y31105000D03*
X32375000Y32375000D03*
X31105000Y32375000D03*
X32375000Y33645000D03*
X31105000Y33645000D03*
X32375000Y34915000D03*
X31105000Y34915000D03*
X32375000Y36185000D03*
X31105000Y36185000D03*
%TD*%
D29*
%TO.C,ST3*%
X41910000Y35560000D03*
%TD*%
D30*
%TO.C,J9*%
X24765000Y34290000D03*
X22225000Y34290000D03*
X19685000Y34290000D03*
X17145000Y34290000D03*
%TD*%
%TO.C,J6*%
X24765000Y36830000D03*
X22225000Y36830000D03*
X19685000Y36830000D03*
X17145000Y36830000D03*
X14605000Y36830000D03*
X12065000Y36830000D03*
X9525000Y36830000D03*
X6985000Y36830000D03*
%TD*%
%TO.C,J1*%
X33655000Y1270000D03*
X36195000Y1270000D03*
%TD*%
D29*
%TO.C,ST2*%
X41910000Y2540000D03*
%TD*%
%TO.C,ST1*%
X2540000Y2540000D03*
%TD*%
D30*
%TO.C,J10*%
X27305000Y34290000D03*
X27305000Y36830000D03*
%TD*%
D29*
%TO.C,ST4*%
X2540000Y35560000D03*
%TD*%
D26*
%TO.C,J2*%
X15525000Y5540000D03*
X21305000Y5540000D03*
D27*
X14097000Y1890000D03*
D28*
X14097000Y6070000D03*
X22733000Y6070000D03*
D27*
X22733000Y1890000D03*
%TD*%
D18*
%TO.C,R14*%
X18925000Y21590000D03*
X17905000Y21590000D03*
%TD*%
%TO.C,R16*%
X18925000Y13970000D03*
X17905000Y13970000D03*
%TD*%
D13*
%TO.C,TP3*%
X24892000Y7747000D03*
%TD*%
D25*
%TO.C,C28*%
X28575000Y17625000D03*
X28575000Y16665000D03*
%TD*%
D15*
%TO.C,JP5*%
X13106400Y29845000D03*
X12065000Y29845000D03*
D14*
X11023600Y29845000D03*
%TD*%
D24*
%TO.C,C25*%
X18895000Y17780000D03*
X17935000Y17780000D03*
%TD*%
D13*
%TO.C,TP4*%
X5080000Y30226000D03*
%TD*%
D18*
%TO.C,R13*%
X18925000Y22860000D03*
X17905000Y22860000D03*
%TD*%
D12*
%TO.C,J5*%
X4445000Y15370000D03*
X4445000Y23370000D03*
D20*
X14945000Y22570000D03*
X14945000Y21470000D03*
X14945000Y20370000D03*
X14945000Y19270000D03*
X14945000Y18170000D03*
X14945000Y17070000D03*
X14945000Y15970000D03*
X14945000Y14870000D03*
X14945000Y13770000D03*
D21*
X14345000Y12570000D03*
D22*
X4845000Y12570000D03*
X4845000Y28070000D03*
D23*
X14445000Y27170000D03*
%TD*%
D19*
%TO.C,JP6*%
X43180000Y15760700D03*
X43180000Y14719300D03*
%TD*%
D18*
%TO.C,R10*%
X18925000Y16510000D03*
X17905000Y16510000D03*
%TD*%
D13*
%TO.C,TP1*%
X6350000Y10795000D03*
%TD*%
D18*
%TO.C,R12*%
X18925000Y15240000D03*
X17905000Y15240000D03*
%TD*%
D13*
%TO.C,TP2*%
X38100000Y9398000D03*
%TD*%
D18*
%TO.C,R9*%
X18925000Y20320000D03*
X17905000Y20320000D03*
%TD*%
D17*
%TO.C,JP3*%
X13208000Y8331200D03*
X14020800Y8331200D03*
%TD*%
D16*
%TO.C,U7*%
X23235000Y19685000D03*
X23235000Y20955000D03*
X23235000Y22225000D03*
X23235000Y23495000D03*
X28835000Y23495000D03*
X28835000Y22225000D03*
X28835000Y20955000D03*
X28835000Y19685000D03*
%TD*%
D14*
%TO.C,JP4*%
X6464300Y32385000D03*
X7505700Y32385000D03*
%TD*%
D12*
%TO.C,FID4*%
X1270000Y31750000D03*
%TD*%
D14*
%TO.C,JP2*%
X26263600Y1524000D03*
X27305000Y1524000D03*
D15*
X28346400Y1524000D03*
%TD*%
D14*
%TO.C,JP1*%
X26263600Y6350000D03*
X27305000Y6350000D03*
D15*
X28346400Y6350000D03*
%TD*%
D13*
%TO.C,TP5*%
X2032000Y30226000D03*
%TD*%
D12*
%TO.C,FID3*%
X43180000Y6350000D03*
%TD*%
M02*
