%TF.GenerationSoftware,KiCad,Pcbnew,8.0.1*%
%TF.CreationDate,2024-05-21T10:24:44-06:00*%
%TF.ProjectId,SparkFun_Qwiic_WAV_Trigger_Pro_panelized,53706172-6b46-4756-9e5f-51776969635f,rev?*%
%TF.SameCoordinates,Original*%
%TF.FileFunction,Soldermask,Bot*%
%TF.FilePolarity,Negative*%
%FSLAX46Y46*%
G04 Gerber Fmt 4.6, Leading zero omitted, Abs format (unit mm)*
G04 Created by KiCad (PCBNEW 8.0.1) date 2024-05-21 10:24:44*
%MOMM*%
%LPD*%
G01*
G04 APERTURE LIST*
%TA.AperFunction,Profile*%
%ADD10C,0.100000*%
%TD*%
%TA.AperFunction,Profile*%
%ADD11C,0.050000*%
%TD*%
%ADD12C,0.250000*%
%ADD13C,0.500000*%
G04 APERTURE END LIST*
D10*
X-500000Y-1770000D02*
X-500000Y119610000D01*
X134850000Y-1770000D02*
X-500000Y-1770000D01*
X134850000Y119610000D02*
X134850000Y-1770000D01*
X-500000Y119610000D02*
X134850000Y119610000D01*
X-6850000Y-8120000D02*
X-6850000Y125960000D01*
X141200000Y-8120000D02*
X-6850000Y-8120000D01*
X141200000Y125960000D02*
X141200000Y-8120000D01*
X-6850000Y125960000D02*
X141200000Y125960000D01*
D11*
X134350000Y79740000D02*
X89900000Y79740000D01*
X134350000Y39870000D02*
X89900000Y39870000D01*
X134350000Y0D02*
X89900000Y0D01*
X89400000Y79740000D02*
X44950000Y79740000D01*
X89400000Y39870000D02*
X44950000Y39870000D01*
X89400000Y0D02*
X44950000Y0D01*
X44450000Y79740000D02*
X0Y79740000D01*
X44450000Y39870000D02*
X0Y39870000D01*
X89900000Y117840000D02*
X134350000Y117840000D01*
X89900000Y77970000D02*
X134350000Y77970000D01*
X89900000Y38100000D02*
X134350000Y38100000D01*
X44950000Y117840000D02*
X89400000Y117840000D01*
X44950000Y77970000D02*
X89400000Y77970000D01*
X44950000Y38100000D02*
X89400000Y38100000D01*
X0Y117840000D02*
X44450000Y117840000D01*
X0Y77970000D02*
X44450000Y77970000D01*
X89900000Y79740000D02*
X89900000Y117840000D01*
X89900000Y39870000D02*
X89900000Y77970000D01*
X89900000Y0D02*
X89900000Y38100000D01*
X44950000Y79740000D02*
X44950000Y117840000D01*
X44950000Y39870000D02*
X44950000Y77970000D01*
X44950000Y0D02*
X44950000Y38100000D01*
X0Y79740000D02*
X0Y117840000D01*
X0Y39870000D02*
X0Y77970000D01*
X134350000Y117840000D02*
X134350000Y79740000D01*
X134350000Y77970000D02*
X134350000Y39870000D01*
X134350000Y38100000D02*
X134350000Y0D01*
X89400000Y117840000D02*
X89400000Y79740000D01*
X89400000Y77970000D02*
X89400000Y39870000D01*
X89400000Y38100000D02*
X89400000Y0D01*
X44450000Y117840000D02*
X44450000Y79740000D01*
X44450000Y77970000D02*
X44450000Y39870000D01*
X44450000Y38100000D02*
X44450000Y0D01*
X0Y0D02*
X0Y38100000D01*
X0Y38100000D02*
X44450000Y38100000D01*
X44450000Y0D02*
X0Y0D01*
D12*
X60413094Y-1797238D02*
X59746427Y-844857D01*
X59270237Y-1797238D02*
X59270237Y202762D01*
X59270237Y202762D02*
X60032142Y202762D01*
X60032142Y202762D02*
X60222618Y107524D01*
X60222618Y107524D02*
X60317856Y12286D01*
X60317856Y12286D02*
X60413094Y-178190D01*
X60413094Y-178190D02*
X60413094Y-463904D01*
X60413094Y-463904D02*
X60317856Y-654380D01*
X60317856Y-654380D02*
X60222618Y-749619D01*
X60222618Y-749619D02*
X60032142Y-844857D01*
X60032142Y-844857D02*
X59270237Y-844857D01*
X61651189Y202762D02*
X62032142Y202762D01*
X62032142Y202762D02*
X62222618Y107524D01*
X62222618Y107524D02*
X62413094Y-82952D01*
X62413094Y-82952D02*
X62508332Y-463904D01*
X62508332Y-463904D02*
X62508332Y-1130571D01*
X62508332Y-1130571D02*
X62413094Y-1511523D01*
X62413094Y-1511523D02*
X62222618Y-1702000D01*
X62222618Y-1702000D02*
X62032142Y-1797238D01*
X62032142Y-1797238D02*
X61651189Y-1797238D01*
X61651189Y-1797238D02*
X61460713Y-1702000D01*
X61460713Y-1702000D02*
X61270237Y-1511523D01*
X61270237Y-1511523D02*
X61174999Y-1130571D01*
X61174999Y-1130571D02*
X61174999Y-463904D01*
X61174999Y-463904D02*
X61270237Y-82952D01*
X61270237Y-82952D02*
X61460713Y107524D01*
X61460713Y107524D02*
X61651189Y202762D01*
X63365475Y202762D02*
X63365475Y-1416285D01*
X63365475Y-1416285D02*
X63460713Y-1606761D01*
X63460713Y-1606761D02*
X63555951Y-1702000D01*
X63555951Y-1702000D02*
X63746427Y-1797238D01*
X63746427Y-1797238D02*
X64127380Y-1797238D01*
X64127380Y-1797238D02*
X64317856Y-1702000D01*
X64317856Y-1702000D02*
X64413094Y-1606761D01*
X64413094Y-1606761D02*
X64508332Y-1416285D01*
X64508332Y-1416285D02*
X64508332Y202762D01*
X65174999Y202762D02*
X66317856Y202762D01*
X65746427Y-1797238D02*
X65746427Y202762D01*
X66984523Y-749619D02*
X67651190Y-749619D01*
X67936904Y-1797238D02*
X66984523Y-1797238D01*
X66984523Y-1797238D02*
X66984523Y202762D01*
X66984523Y202762D02*
X67936904Y202762D01*
X70698809Y202762D02*
X71079762Y202762D01*
X71079762Y202762D02*
X71270238Y107524D01*
X71270238Y107524D02*
X71460714Y-82952D01*
X71460714Y-82952D02*
X71555952Y-463904D01*
X71555952Y-463904D02*
X71555952Y-1130571D01*
X71555952Y-1130571D02*
X71460714Y-1511523D01*
X71460714Y-1511523D02*
X71270238Y-1702000D01*
X71270238Y-1702000D02*
X71079762Y-1797238D01*
X71079762Y-1797238D02*
X70698809Y-1797238D01*
X70698809Y-1797238D02*
X70508333Y-1702000D01*
X70508333Y-1702000D02*
X70317857Y-1511523D01*
X70317857Y-1511523D02*
X70222619Y-1130571D01*
X70222619Y-1130571D02*
X70222619Y-463904D01*
X70222619Y-463904D02*
X70317857Y-82952D01*
X70317857Y-82952D02*
X70508333Y107524D01*
X70508333Y107524D02*
X70698809Y202762D01*
X72413095Y202762D02*
X72413095Y-1416285D01*
X72413095Y-1416285D02*
X72508333Y-1606761D01*
X72508333Y-1606761D02*
X72603571Y-1702000D01*
X72603571Y-1702000D02*
X72794047Y-1797238D01*
X72794047Y-1797238D02*
X73175000Y-1797238D01*
X73175000Y-1797238D02*
X73365476Y-1702000D01*
X73365476Y-1702000D02*
X73460714Y-1606761D01*
X73460714Y-1606761D02*
X73555952Y-1416285D01*
X73555952Y-1416285D02*
X73555952Y202762D01*
X74222619Y202762D02*
X75365476Y202762D01*
X74794047Y-1797238D02*
X74794047Y202762D01*
X60413094Y38072762D02*
X59746427Y39025143D01*
X59270237Y38072762D02*
X59270237Y40072762D01*
X59270237Y40072762D02*
X60032142Y40072762D01*
X60032142Y40072762D02*
X60222618Y39977524D01*
X60222618Y39977524D02*
X60317856Y39882286D01*
X60317856Y39882286D02*
X60413094Y39691810D01*
X60413094Y39691810D02*
X60413094Y39406096D01*
X60413094Y39406096D02*
X60317856Y39215620D01*
X60317856Y39215620D02*
X60222618Y39120381D01*
X60222618Y39120381D02*
X60032142Y39025143D01*
X60032142Y39025143D02*
X59270237Y39025143D01*
X61651189Y40072762D02*
X62032142Y40072762D01*
X62032142Y40072762D02*
X62222618Y39977524D01*
X62222618Y39977524D02*
X62413094Y39787048D01*
X62413094Y39787048D02*
X62508332Y39406096D01*
X62508332Y39406096D02*
X62508332Y38739429D01*
X62508332Y38739429D02*
X62413094Y38358477D01*
X62413094Y38358477D02*
X62222618Y38168000D01*
X62222618Y38168000D02*
X62032142Y38072762D01*
X62032142Y38072762D02*
X61651189Y38072762D01*
X61651189Y38072762D02*
X61460713Y38168000D01*
X61460713Y38168000D02*
X61270237Y38358477D01*
X61270237Y38358477D02*
X61174999Y38739429D01*
X61174999Y38739429D02*
X61174999Y39406096D01*
X61174999Y39406096D02*
X61270237Y39787048D01*
X61270237Y39787048D02*
X61460713Y39977524D01*
X61460713Y39977524D02*
X61651189Y40072762D01*
X63365475Y40072762D02*
X63365475Y38453715D01*
X63365475Y38453715D02*
X63460713Y38263239D01*
X63460713Y38263239D02*
X63555951Y38168000D01*
X63555951Y38168000D02*
X63746427Y38072762D01*
X63746427Y38072762D02*
X64127380Y38072762D01*
X64127380Y38072762D02*
X64317856Y38168000D01*
X64317856Y38168000D02*
X64413094Y38263239D01*
X64413094Y38263239D02*
X64508332Y38453715D01*
X64508332Y38453715D02*
X64508332Y40072762D01*
X65174999Y40072762D02*
X66317856Y40072762D01*
X65746427Y38072762D02*
X65746427Y40072762D01*
X66984523Y39120381D02*
X67651190Y39120381D01*
X67936904Y38072762D02*
X66984523Y38072762D01*
X66984523Y38072762D02*
X66984523Y40072762D01*
X66984523Y40072762D02*
X67936904Y40072762D01*
X70698809Y40072762D02*
X71079762Y40072762D01*
X71079762Y40072762D02*
X71270238Y39977524D01*
X71270238Y39977524D02*
X71460714Y39787048D01*
X71460714Y39787048D02*
X71555952Y39406096D01*
X71555952Y39406096D02*
X71555952Y38739429D01*
X71555952Y38739429D02*
X71460714Y38358477D01*
X71460714Y38358477D02*
X71270238Y38168000D01*
X71270238Y38168000D02*
X71079762Y38072762D01*
X71079762Y38072762D02*
X70698809Y38072762D01*
X70698809Y38072762D02*
X70508333Y38168000D01*
X70508333Y38168000D02*
X70317857Y38358477D01*
X70317857Y38358477D02*
X70222619Y38739429D01*
X70222619Y38739429D02*
X70222619Y39406096D01*
X70222619Y39406096D02*
X70317857Y39787048D01*
X70317857Y39787048D02*
X70508333Y39977524D01*
X70508333Y39977524D02*
X70698809Y40072762D01*
X72413095Y40072762D02*
X72413095Y38453715D01*
X72413095Y38453715D02*
X72508333Y38263239D01*
X72508333Y38263239D02*
X72603571Y38168000D01*
X72603571Y38168000D02*
X72794047Y38072762D01*
X72794047Y38072762D02*
X73175000Y38072762D01*
X73175000Y38072762D02*
X73365476Y38168000D01*
X73365476Y38168000D02*
X73460714Y38263239D01*
X73460714Y38263239D02*
X73555952Y38453715D01*
X73555952Y38453715D02*
X73555952Y40072762D01*
X74222619Y40072762D02*
X75365476Y40072762D01*
X74794047Y38072762D02*
X74794047Y40072762D01*
X60413094Y77942762D02*
X59746427Y78895143D01*
X59270237Y77942762D02*
X59270237Y79942762D01*
X59270237Y79942762D02*
X60032142Y79942762D01*
X60032142Y79942762D02*
X60222618Y79847524D01*
X60222618Y79847524D02*
X60317856Y79752286D01*
X60317856Y79752286D02*
X60413094Y79561810D01*
X60413094Y79561810D02*
X60413094Y79276096D01*
X60413094Y79276096D02*
X60317856Y79085620D01*
X60317856Y79085620D02*
X60222618Y78990381D01*
X60222618Y78990381D02*
X60032142Y78895143D01*
X60032142Y78895143D02*
X59270237Y78895143D01*
X61651189Y79942762D02*
X62032142Y79942762D01*
X62032142Y79942762D02*
X62222618Y79847524D01*
X62222618Y79847524D02*
X62413094Y79657048D01*
X62413094Y79657048D02*
X62508332Y79276096D01*
X62508332Y79276096D02*
X62508332Y78609429D01*
X62508332Y78609429D02*
X62413094Y78228477D01*
X62413094Y78228477D02*
X62222618Y78038000D01*
X62222618Y78038000D02*
X62032142Y77942762D01*
X62032142Y77942762D02*
X61651189Y77942762D01*
X61651189Y77942762D02*
X61460713Y78038000D01*
X61460713Y78038000D02*
X61270237Y78228477D01*
X61270237Y78228477D02*
X61174999Y78609429D01*
X61174999Y78609429D02*
X61174999Y79276096D01*
X61174999Y79276096D02*
X61270237Y79657048D01*
X61270237Y79657048D02*
X61460713Y79847524D01*
X61460713Y79847524D02*
X61651189Y79942762D01*
X63365475Y79942762D02*
X63365475Y78323715D01*
X63365475Y78323715D02*
X63460713Y78133239D01*
X63460713Y78133239D02*
X63555951Y78038000D01*
X63555951Y78038000D02*
X63746427Y77942762D01*
X63746427Y77942762D02*
X64127380Y77942762D01*
X64127380Y77942762D02*
X64317856Y78038000D01*
X64317856Y78038000D02*
X64413094Y78133239D01*
X64413094Y78133239D02*
X64508332Y78323715D01*
X64508332Y78323715D02*
X64508332Y79942762D01*
X65174999Y79942762D02*
X66317856Y79942762D01*
X65746427Y77942762D02*
X65746427Y79942762D01*
X66984523Y78990381D02*
X67651190Y78990381D01*
X67936904Y77942762D02*
X66984523Y77942762D01*
X66984523Y77942762D02*
X66984523Y79942762D01*
X66984523Y79942762D02*
X67936904Y79942762D01*
X70698809Y79942762D02*
X71079762Y79942762D01*
X71079762Y79942762D02*
X71270238Y79847524D01*
X71270238Y79847524D02*
X71460714Y79657048D01*
X71460714Y79657048D02*
X71555952Y79276096D01*
X71555952Y79276096D02*
X71555952Y78609429D01*
X71555952Y78609429D02*
X71460714Y78228477D01*
X71460714Y78228477D02*
X71270238Y78038000D01*
X71270238Y78038000D02*
X71079762Y77942762D01*
X71079762Y77942762D02*
X70698809Y77942762D01*
X70698809Y77942762D02*
X70508333Y78038000D01*
X70508333Y78038000D02*
X70317857Y78228477D01*
X70317857Y78228477D02*
X70222619Y78609429D01*
X70222619Y78609429D02*
X70222619Y79276096D01*
X70222619Y79276096D02*
X70317857Y79657048D01*
X70317857Y79657048D02*
X70508333Y79847524D01*
X70508333Y79847524D02*
X70698809Y79942762D01*
X72413095Y79942762D02*
X72413095Y78323715D01*
X72413095Y78323715D02*
X72508333Y78133239D01*
X72508333Y78133239D02*
X72603571Y78038000D01*
X72603571Y78038000D02*
X72794047Y77942762D01*
X72794047Y77942762D02*
X73175000Y77942762D01*
X73175000Y77942762D02*
X73365476Y78038000D01*
X73365476Y78038000D02*
X73460714Y78133239D01*
X73460714Y78133239D02*
X73555952Y78323715D01*
X73555952Y78323715D02*
X73555952Y79942762D01*
X74222619Y79942762D02*
X75365476Y79942762D01*
X74794047Y77942762D02*
X74794047Y79942762D01*
X60413094Y117812762D02*
X59746427Y118765143D01*
X59270237Y117812762D02*
X59270237Y119812762D01*
X59270237Y119812762D02*
X60032142Y119812762D01*
X60032142Y119812762D02*
X60222618Y119717524D01*
X60222618Y119717524D02*
X60317856Y119622286D01*
X60317856Y119622286D02*
X60413094Y119431810D01*
X60413094Y119431810D02*
X60413094Y119146096D01*
X60413094Y119146096D02*
X60317856Y118955620D01*
X60317856Y118955620D02*
X60222618Y118860381D01*
X60222618Y118860381D02*
X60032142Y118765143D01*
X60032142Y118765143D02*
X59270237Y118765143D01*
X61651189Y119812762D02*
X62032142Y119812762D01*
X62032142Y119812762D02*
X62222618Y119717524D01*
X62222618Y119717524D02*
X62413094Y119527048D01*
X62413094Y119527048D02*
X62508332Y119146096D01*
X62508332Y119146096D02*
X62508332Y118479429D01*
X62508332Y118479429D02*
X62413094Y118098477D01*
X62413094Y118098477D02*
X62222618Y117908000D01*
X62222618Y117908000D02*
X62032142Y117812762D01*
X62032142Y117812762D02*
X61651189Y117812762D01*
X61651189Y117812762D02*
X61460713Y117908000D01*
X61460713Y117908000D02*
X61270237Y118098477D01*
X61270237Y118098477D02*
X61174999Y118479429D01*
X61174999Y118479429D02*
X61174999Y119146096D01*
X61174999Y119146096D02*
X61270237Y119527048D01*
X61270237Y119527048D02*
X61460713Y119717524D01*
X61460713Y119717524D02*
X61651189Y119812762D01*
X63365475Y119812762D02*
X63365475Y118193715D01*
X63365475Y118193715D02*
X63460713Y118003239D01*
X63460713Y118003239D02*
X63555951Y117908000D01*
X63555951Y117908000D02*
X63746427Y117812762D01*
X63746427Y117812762D02*
X64127380Y117812762D01*
X64127380Y117812762D02*
X64317856Y117908000D01*
X64317856Y117908000D02*
X64413094Y118003239D01*
X64413094Y118003239D02*
X64508332Y118193715D01*
X64508332Y118193715D02*
X64508332Y119812762D01*
X65174999Y119812762D02*
X66317856Y119812762D01*
X65746427Y117812762D02*
X65746427Y119812762D01*
X66984523Y118860381D02*
X67651190Y118860381D01*
X67936904Y117812762D02*
X66984523Y117812762D01*
X66984523Y117812762D02*
X66984523Y119812762D01*
X66984523Y119812762D02*
X67936904Y119812762D01*
X70698809Y119812762D02*
X71079762Y119812762D01*
X71079762Y119812762D02*
X71270238Y119717524D01*
X71270238Y119717524D02*
X71460714Y119527048D01*
X71460714Y119527048D02*
X71555952Y119146096D01*
X71555952Y119146096D02*
X71555952Y118479429D01*
X71555952Y118479429D02*
X71460714Y118098477D01*
X71460714Y118098477D02*
X71270238Y117908000D01*
X71270238Y117908000D02*
X71079762Y117812762D01*
X71079762Y117812762D02*
X70698809Y117812762D01*
X70698809Y117812762D02*
X70508333Y117908000D01*
X70508333Y117908000D02*
X70317857Y118098477D01*
X70317857Y118098477D02*
X70222619Y118479429D01*
X70222619Y118479429D02*
X70222619Y119146096D01*
X70222619Y119146096D02*
X70317857Y119527048D01*
X70317857Y119527048D02*
X70508333Y119717524D01*
X70508333Y119717524D02*
X70698809Y119812762D01*
X72413095Y119812762D02*
X72413095Y118193715D01*
X72413095Y118193715D02*
X72508333Y118003239D01*
X72508333Y118003239D02*
X72603571Y117908000D01*
X72603571Y117908000D02*
X72794047Y117812762D01*
X72794047Y117812762D02*
X73175000Y117812762D01*
X73175000Y117812762D02*
X73365476Y117908000D01*
X73365476Y117908000D02*
X73460714Y118003239D01*
X73460714Y118003239D02*
X73555952Y118193715D01*
X73555952Y118193715D02*
X73555952Y119812762D01*
X74222619Y119812762D02*
X75365476Y119812762D01*
X74794047Y117812762D02*
X74794047Y119812762D01*
X133512238Y128589949D02*
X135512238Y129256615D01*
X135512238Y129256615D02*
X133512238Y129923282D01*
X134750333Y130589949D02*
X134750333Y132113759D01*
X135417000Y132970901D02*
X135512238Y133256615D01*
X135512238Y133256615D02*
X135512238Y133732806D01*
X135512238Y133732806D02*
X135417000Y133923282D01*
X135417000Y133923282D02*
X135321761Y134018520D01*
X135321761Y134018520D02*
X135131285Y134113758D01*
X135131285Y134113758D02*
X134940809Y134113758D01*
X134940809Y134113758D02*
X134750333Y134018520D01*
X134750333Y134018520D02*
X134655095Y133923282D01*
X134655095Y133923282D02*
X134559857Y133732806D01*
X134559857Y133732806D02*
X134464619Y133351853D01*
X134464619Y133351853D02*
X134369380Y133161377D01*
X134369380Y133161377D02*
X134274142Y133066139D01*
X134274142Y133066139D02*
X134083666Y132970901D01*
X134083666Y132970901D02*
X133893190Y132970901D01*
X133893190Y132970901D02*
X133702714Y133066139D01*
X133702714Y133066139D02*
X133607476Y133161377D01*
X133607476Y133161377D02*
X133512238Y133351853D01*
X133512238Y133351853D02*
X133512238Y133828044D01*
X133512238Y133828044D02*
X133607476Y134113758D01*
X135321761Y136113758D02*
X135417000Y136018520D01*
X135417000Y136018520D02*
X135512238Y135732806D01*
X135512238Y135732806D02*
X135512238Y135542330D01*
X135512238Y135542330D02*
X135417000Y135256615D01*
X135417000Y135256615D02*
X135226523Y135066139D01*
X135226523Y135066139D02*
X135036047Y134970901D01*
X135036047Y134970901D02*
X134655095Y134875663D01*
X134655095Y134875663D02*
X134369380Y134875663D01*
X134369380Y134875663D02*
X133988428Y134970901D01*
X133988428Y134970901D02*
X133797952Y135066139D01*
X133797952Y135066139D02*
X133607476Y135256615D01*
X133607476Y135256615D02*
X133512238Y135542330D01*
X133512238Y135542330D02*
X133512238Y135732806D01*
X133512238Y135732806D02*
X133607476Y136018520D01*
X133607476Y136018520D02*
X133702714Y136113758D01*
X133512238Y137351853D02*
X133512238Y137732806D01*
X133512238Y137732806D02*
X133607476Y137923282D01*
X133607476Y137923282D02*
X133797952Y138113758D01*
X133797952Y138113758D02*
X134178904Y138208996D01*
X134178904Y138208996D02*
X134845571Y138208996D01*
X134845571Y138208996D02*
X135226523Y138113758D01*
X135226523Y138113758D02*
X135417000Y137923282D01*
X135417000Y137923282D02*
X135512238Y137732806D01*
X135512238Y137732806D02*
X135512238Y137351853D01*
X135512238Y137351853D02*
X135417000Y137161377D01*
X135417000Y137161377D02*
X135226523Y136970901D01*
X135226523Y136970901D02*
X134845571Y136875663D01*
X134845571Y136875663D02*
X134178904Y136875663D01*
X134178904Y136875663D02*
X133797952Y136970901D01*
X133797952Y136970901D02*
X133607476Y137161377D01*
X133607476Y137161377D02*
X133512238Y137351853D01*
X135512238Y140208996D02*
X134559857Y139542329D01*
X135512238Y139066139D02*
X133512238Y139066139D01*
X133512238Y139066139D02*
X133512238Y139828044D01*
X133512238Y139828044D02*
X133607476Y140018520D01*
X133607476Y140018520D02*
X133702714Y140113758D01*
X133702714Y140113758D02*
X133893190Y140208996D01*
X133893190Y140208996D02*
X134178904Y140208996D01*
X134178904Y140208996D02*
X134369380Y140113758D01*
X134369380Y140113758D02*
X134464619Y140018520D01*
X134464619Y140018520D02*
X134559857Y139828044D01*
X134559857Y139828044D02*
X134559857Y139066139D01*
X134464619Y141066139D02*
X134464619Y141732806D01*
X135512238Y142018520D02*
X135512238Y141066139D01*
X135512238Y141066139D02*
X133512238Y141066139D01*
X133512238Y141066139D02*
X133512238Y142018520D01*
D13*
X134600000Y126235000D02*
X134600000Y-8395000D01*
D12*
X88562238Y128589949D02*
X90562238Y129256615D01*
X90562238Y129256615D02*
X88562238Y129923282D01*
X89800333Y130589949D02*
X89800333Y132113759D01*
X90467000Y132970901D02*
X90562238Y133256615D01*
X90562238Y133256615D02*
X90562238Y133732806D01*
X90562238Y133732806D02*
X90467000Y133923282D01*
X90467000Y133923282D02*
X90371761Y134018520D01*
X90371761Y134018520D02*
X90181285Y134113758D01*
X90181285Y134113758D02*
X89990809Y134113758D01*
X89990809Y134113758D02*
X89800333Y134018520D01*
X89800333Y134018520D02*
X89705095Y133923282D01*
X89705095Y133923282D02*
X89609857Y133732806D01*
X89609857Y133732806D02*
X89514619Y133351853D01*
X89514619Y133351853D02*
X89419380Y133161377D01*
X89419380Y133161377D02*
X89324142Y133066139D01*
X89324142Y133066139D02*
X89133666Y132970901D01*
X89133666Y132970901D02*
X88943190Y132970901D01*
X88943190Y132970901D02*
X88752714Y133066139D01*
X88752714Y133066139D02*
X88657476Y133161377D01*
X88657476Y133161377D02*
X88562238Y133351853D01*
X88562238Y133351853D02*
X88562238Y133828044D01*
X88562238Y133828044D02*
X88657476Y134113758D01*
X90371761Y136113758D02*
X90467000Y136018520D01*
X90467000Y136018520D02*
X90562238Y135732806D01*
X90562238Y135732806D02*
X90562238Y135542330D01*
X90562238Y135542330D02*
X90467000Y135256615D01*
X90467000Y135256615D02*
X90276523Y135066139D01*
X90276523Y135066139D02*
X90086047Y134970901D01*
X90086047Y134970901D02*
X89705095Y134875663D01*
X89705095Y134875663D02*
X89419380Y134875663D01*
X89419380Y134875663D02*
X89038428Y134970901D01*
X89038428Y134970901D02*
X88847952Y135066139D01*
X88847952Y135066139D02*
X88657476Y135256615D01*
X88657476Y135256615D02*
X88562238Y135542330D01*
X88562238Y135542330D02*
X88562238Y135732806D01*
X88562238Y135732806D02*
X88657476Y136018520D01*
X88657476Y136018520D02*
X88752714Y136113758D01*
X88562238Y137351853D02*
X88562238Y137732806D01*
X88562238Y137732806D02*
X88657476Y137923282D01*
X88657476Y137923282D02*
X88847952Y138113758D01*
X88847952Y138113758D02*
X89228904Y138208996D01*
X89228904Y138208996D02*
X89895571Y138208996D01*
X89895571Y138208996D02*
X90276523Y138113758D01*
X90276523Y138113758D02*
X90467000Y137923282D01*
X90467000Y137923282D02*
X90562238Y137732806D01*
X90562238Y137732806D02*
X90562238Y137351853D01*
X90562238Y137351853D02*
X90467000Y137161377D01*
X90467000Y137161377D02*
X90276523Y136970901D01*
X90276523Y136970901D02*
X89895571Y136875663D01*
X89895571Y136875663D02*
X89228904Y136875663D01*
X89228904Y136875663D02*
X88847952Y136970901D01*
X88847952Y136970901D02*
X88657476Y137161377D01*
X88657476Y137161377D02*
X88562238Y137351853D01*
X90562238Y140208996D02*
X89609857Y139542329D01*
X90562238Y139066139D02*
X88562238Y139066139D01*
X88562238Y139066139D02*
X88562238Y139828044D01*
X88562238Y139828044D02*
X88657476Y140018520D01*
X88657476Y140018520D02*
X88752714Y140113758D01*
X88752714Y140113758D02*
X88943190Y140208996D01*
X88943190Y140208996D02*
X89228904Y140208996D01*
X89228904Y140208996D02*
X89419380Y140113758D01*
X89419380Y140113758D02*
X89514619Y140018520D01*
X89514619Y140018520D02*
X89609857Y139828044D01*
X89609857Y139828044D02*
X89609857Y139066139D01*
X89514619Y141066139D02*
X89514619Y141732806D01*
X90562238Y142018520D02*
X90562238Y141066139D01*
X90562238Y141066139D02*
X88562238Y141066139D01*
X88562238Y141066139D02*
X88562238Y142018520D01*
D13*
X89650000Y126235000D02*
X89650000Y-8395000D01*
D12*
X43612238Y128589949D02*
X45612238Y129256615D01*
X45612238Y129256615D02*
X43612238Y129923282D01*
X44850333Y130589949D02*
X44850333Y132113759D01*
X45517000Y132970901D02*
X45612238Y133256615D01*
X45612238Y133256615D02*
X45612238Y133732806D01*
X45612238Y133732806D02*
X45517000Y133923282D01*
X45517000Y133923282D02*
X45421761Y134018520D01*
X45421761Y134018520D02*
X45231285Y134113758D01*
X45231285Y134113758D02*
X45040809Y134113758D01*
X45040809Y134113758D02*
X44850333Y134018520D01*
X44850333Y134018520D02*
X44755095Y133923282D01*
X44755095Y133923282D02*
X44659857Y133732806D01*
X44659857Y133732806D02*
X44564619Y133351853D01*
X44564619Y133351853D02*
X44469380Y133161377D01*
X44469380Y133161377D02*
X44374142Y133066139D01*
X44374142Y133066139D02*
X44183666Y132970901D01*
X44183666Y132970901D02*
X43993190Y132970901D01*
X43993190Y132970901D02*
X43802714Y133066139D01*
X43802714Y133066139D02*
X43707476Y133161377D01*
X43707476Y133161377D02*
X43612238Y133351853D01*
X43612238Y133351853D02*
X43612238Y133828044D01*
X43612238Y133828044D02*
X43707476Y134113758D01*
X45421761Y136113758D02*
X45517000Y136018520D01*
X45517000Y136018520D02*
X45612238Y135732806D01*
X45612238Y135732806D02*
X45612238Y135542330D01*
X45612238Y135542330D02*
X45517000Y135256615D01*
X45517000Y135256615D02*
X45326523Y135066139D01*
X45326523Y135066139D02*
X45136047Y134970901D01*
X45136047Y134970901D02*
X44755095Y134875663D01*
X44755095Y134875663D02*
X44469380Y134875663D01*
X44469380Y134875663D02*
X44088428Y134970901D01*
X44088428Y134970901D02*
X43897952Y135066139D01*
X43897952Y135066139D02*
X43707476Y135256615D01*
X43707476Y135256615D02*
X43612238Y135542330D01*
X43612238Y135542330D02*
X43612238Y135732806D01*
X43612238Y135732806D02*
X43707476Y136018520D01*
X43707476Y136018520D02*
X43802714Y136113758D01*
X43612238Y137351853D02*
X43612238Y137732806D01*
X43612238Y137732806D02*
X43707476Y137923282D01*
X43707476Y137923282D02*
X43897952Y138113758D01*
X43897952Y138113758D02*
X44278904Y138208996D01*
X44278904Y138208996D02*
X44945571Y138208996D01*
X44945571Y138208996D02*
X45326523Y138113758D01*
X45326523Y138113758D02*
X45517000Y137923282D01*
X45517000Y137923282D02*
X45612238Y137732806D01*
X45612238Y137732806D02*
X45612238Y137351853D01*
X45612238Y137351853D02*
X45517000Y137161377D01*
X45517000Y137161377D02*
X45326523Y136970901D01*
X45326523Y136970901D02*
X44945571Y136875663D01*
X44945571Y136875663D02*
X44278904Y136875663D01*
X44278904Y136875663D02*
X43897952Y136970901D01*
X43897952Y136970901D02*
X43707476Y137161377D01*
X43707476Y137161377D02*
X43612238Y137351853D01*
X45612238Y140208996D02*
X44659857Y139542329D01*
X45612238Y139066139D02*
X43612238Y139066139D01*
X43612238Y139066139D02*
X43612238Y139828044D01*
X43612238Y139828044D02*
X43707476Y140018520D01*
X43707476Y140018520D02*
X43802714Y140113758D01*
X43802714Y140113758D02*
X43993190Y140208996D01*
X43993190Y140208996D02*
X44278904Y140208996D01*
X44278904Y140208996D02*
X44469380Y140113758D01*
X44469380Y140113758D02*
X44564619Y140018520D01*
X44564619Y140018520D02*
X44659857Y139828044D01*
X44659857Y139828044D02*
X44659857Y139066139D01*
X44564619Y141066139D02*
X44564619Y141732806D01*
X45612238Y142018520D02*
X45612238Y141066139D01*
X45612238Y141066139D02*
X43612238Y141066139D01*
X43612238Y141066139D02*
X43612238Y142018520D01*
D13*
X44700000Y126235000D02*
X44700000Y-8395000D01*
D12*
X-1337762Y128589949D02*
X662238Y129256615D01*
X662238Y129256615D02*
X-1337762Y129923282D01*
X-99667Y130589949D02*
X-99667Y132113759D01*
X567000Y132970901D02*
X662238Y133256615D01*
X662238Y133256615D02*
X662238Y133732806D01*
X662238Y133732806D02*
X567000Y133923282D01*
X567000Y133923282D02*
X471761Y134018520D01*
X471761Y134018520D02*
X281285Y134113758D01*
X281285Y134113758D02*
X90809Y134113758D01*
X90809Y134113758D02*
X-99667Y134018520D01*
X-99667Y134018520D02*
X-194905Y133923282D01*
X-194905Y133923282D02*
X-290143Y133732806D01*
X-290143Y133732806D02*
X-385381Y133351853D01*
X-385381Y133351853D02*
X-480620Y133161377D01*
X-480620Y133161377D02*
X-575858Y133066139D01*
X-575858Y133066139D02*
X-766334Y132970901D01*
X-766334Y132970901D02*
X-956810Y132970901D01*
X-956810Y132970901D02*
X-1147286Y133066139D01*
X-1147286Y133066139D02*
X-1242524Y133161377D01*
X-1242524Y133161377D02*
X-1337762Y133351853D01*
X-1337762Y133351853D02*
X-1337762Y133828044D01*
X-1337762Y133828044D02*
X-1242524Y134113758D01*
X471761Y136113758D02*
X567000Y136018520D01*
X567000Y136018520D02*
X662238Y135732806D01*
X662238Y135732806D02*
X662238Y135542330D01*
X662238Y135542330D02*
X567000Y135256615D01*
X567000Y135256615D02*
X376523Y135066139D01*
X376523Y135066139D02*
X186047Y134970901D01*
X186047Y134970901D02*
X-194905Y134875663D01*
X-194905Y134875663D02*
X-480620Y134875663D01*
X-480620Y134875663D02*
X-861572Y134970901D01*
X-861572Y134970901D02*
X-1052048Y135066139D01*
X-1052048Y135066139D02*
X-1242524Y135256615D01*
X-1242524Y135256615D02*
X-1337762Y135542330D01*
X-1337762Y135542330D02*
X-1337762Y135732806D01*
X-1337762Y135732806D02*
X-1242524Y136018520D01*
X-1242524Y136018520D02*
X-1147286Y136113758D01*
X-1337762Y137351853D02*
X-1337762Y137732806D01*
X-1337762Y137732806D02*
X-1242524Y137923282D01*
X-1242524Y137923282D02*
X-1052048Y138113758D01*
X-1052048Y138113758D02*
X-671096Y138208996D01*
X-671096Y138208996D02*
X-4429Y138208996D01*
X-4429Y138208996D02*
X376523Y138113758D01*
X376523Y138113758D02*
X567000Y137923282D01*
X567000Y137923282D02*
X662238Y137732806D01*
X662238Y137732806D02*
X662238Y137351853D01*
X662238Y137351853D02*
X567000Y137161377D01*
X567000Y137161377D02*
X376523Y136970901D01*
X376523Y136970901D02*
X-4429Y136875663D01*
X-4429Y136875663D02*
X-671096Y136875663D01*
X-671096Y136875663D02*
X-1052048Y136970901D01*
X-1052048Y136970901D02*
X-1242524Y137161377D01*
X-1242524Y137161377D02*
X-1337762Y137351853D01*
X662238Y140208996D02*
X-290143Y139542329D01*
X662238Y139066139D02*
X-1337762Y139066139D01*
X-1337762Y139066139D02*
X-1337762Y139828044D01*
X-1337762Y139828044D02*
X-1242524Y140018520D01*
X-1242524Y140018520D02*
X-1147286Y140113758D01*
X-1147286Y140113758D02*
X-956810Y140208996D01*
X-956810Y140208996D02*
X-671096Y140208996D01*
X-671096Y140208996D02*
X-480620Y140113758D01*
X-480620Y140113758D02*
X-385381Y140018520D01*
X-385381Y140018520D02*
X-290143Y139828044D01*
X-290143Y139828044D02*
X-290143Y139066139D01*
X-385381Y141066139D02*
X-385381Y141732806D01*
X662238Y142018520D02*
X662238Y141066139D01*
X662238Y141066139D02*
X-1337762Y141066139D01*
X-1337762Y141066139D02*
X-1337762Y142018520D01*
D13*
X-250000Y126235000D02*
X-250000Y-8395000D01*
M02*
